<svg width="159" height="142" viewBox="0 0 159 142" fill="none" xmlns="http://www.w3.org/2000/svg">
<path d="M151.879 17.75H123.264V6.65625C123.264 2.96758 120.32 0 116.66 0H41.8217C38.1623 0 35.2183 2.96758 35.2183 6.65625V17.75H6.60342C2.94403 17.75 0 20.7176 0 24.4062V39.9375C0 49.8387 6.19071 60.0172 17.0313 67.866C25.6983 74.1617 36.2363 78.1555 47.297 79.4312C55.9365 93.8809 66.0342 99.8438 66.0342 99.8438V119.812H52.8274C43.1148 119.812 35.2183 125.554 35.2183 135.344V138.672C35.2183 140.502 36.704 142 38.52 142H119.962C121.778 142 123.264 140.502 123.264 138.672V135.344C123.264 125.554 115.367 119.812 105.655 119.812H92.4479V99.8438C92.4479 99.8438 102.546 93.8809 111.185 79.4312C122.273 78.1555 132.811 74.1617 141.451 67.866C152.264 60.0172 158.482 49.8387 158.482 39.9375V24.4062C158.482 20.7176 155.538 17.75 151.879 17.75ZM27.3217 53.4719C20.6082 48.5906 17.6091 43.1547 17.6091 39.9375V35.5H35.2733C35.5484 44.5414 36.8691 52.4734 38.7951 59.407C34.6405 57.9648 30.7609 55.968 27.3217 53.4719ZM140.873 39.9375C140.873 44.4027 136.003 49.9496 131.16 53.4719C127.721 55.968 123.814 57.9648 119.66 59.407C121.586 52.4734 122.906 44.5414 123.181 35.5H140.873V39.9375Z" fill="black"/>
<path d="M88.6758 63.4619C88.6465 63.5059 88.5 63.645 88.2363 63.8794C87.9873 64.0991 87.6431 64.3408 87.2036 64.6045C86.7642 64.8535 86.2295 65.0806 85.5996 65.2856C84.9844 65.4907 84.2886 65.5933 83.5122 65.5933C82.9409 65.5933 82.3623 65.542 81.7764 65.4395C81.1904 65.3369 80.6045 65.2197 80.0186 65.0879C79.4473 64.9707 78.876 64.8608 78.3047 64.7583C77.7334 64.6558 77.1694 64.6045 76.6128 64.6045C75.6899 64.6045 74.7598 64.707 73.8223 64.9121C72.8994 65.1025 71.9399 65.4321 70.9438 65.9009C70.8706 65.9448 70.79 65.9668 70.7021 65.9668C70.6289 65.9814 70.5483 65.9888 70.4604 65.9888C70.1235 65.9888 69.8525 65.8716 69.6475 65.6372C69.4424 65.4175 69.3398 65.1611 69.3398 64.8682C69.3398 64.7949 69.3398 64.729 69.3398 64.6704C69.3398 64.5972 69.3545 64.5239 69.3838 64.4507C69.6475 63.7476 69.9551 63.1104 70.3066 62.5391C70.6729 61.9678 71.0757 61.4258 71.5151 60.9131C71.9692 60.4004 72.4526 59.9023 72.9653 59.4189C73.4927 58.9355 74.0347 58.4375 74.5913 57.9248C75.4409 57.1777 76.2905 56.394 77.1401 55.5737C78.0044 54.7388 78.7808 53.7939 79.4692 52.7393C80.1577 51.6699 80.7144 50.4541 81.1392 49.0918C81.5786 47.7295 81.7983 46.1328 81.7983 44.3018C81.7983 43.2471 81.6299 42.2656 81.293 41.3574C80.9707 40.4492 80.5093 39.6655 79.9087 39.0063C79.3081 38.3325 78.5903 37.8125 77.7554 37.4463C76.9351 37.0654 76.0342 36.875 75.0527 36.875C74.2764 36.875 73.5732 36.9922 72.9434 37.2266C72.3135 37.4609 71.7715 37.7905 71.3174 38.2153C70.8779 38.6401 70.5337 39.1602 70.2847 39.7754C70.0356 40.3906 69.9111 41.0718 69.9111 41.8188C69.9111 42.0093 69.9185 42.1924 69.9331 42.3682C69.9478 42.5439 69.9697 42.7197 69.999 42.8955C70.3652 42.4414 70.8047 42.0825 71.3174 41.8188C71.8447 41.5552 72.4307 41.4233 73.0752 41.4233C73.6172 41.4233 74.1226 41.5259 74.5913 41.731C75.0747 41.936 75.4922 42.2144 75.8438 42.5659C76.1953 42.9175 76.4736 43.335 76.6787 43.8184C76.8838 44.2871 76.9863 44.7925 76.9863 45.3345C76.9863 45.8765 76.8838 46.3892 76.6787 46.8726C76.4736 47.3413 76.1953 47.7588 75.8438 48.125C75.4922 48.4766 75.0747 48.7622 74.5913 48.9819C74.1226 49.187 73.6172 49.2896 73.0752 49.2896C72.5771 49.2896 72.0132 49.187 71.3833 48.9819C70.7534 48.7769 70.1602 48.396 69.6035 47.8394C69.0469 47.2827 68.5781 46.521 68.1973 45.5542C67.8164 44.5874 67.626 43.3423 67.626 41.8188C67.626 40.3979 67.9336 39.1162 68.5488 37.9736C69.1787 36.8311 69.9917 35.8643 70.9878 35.0732C71.9839 34.2676 73.1118 33.6523 74.3716 33.2275C75.646 32.8027 76.9204 32.5903 78.1948 32.5903C79.7769 32.5903 81.249 32.8613 82.6113 33.4033C83.9736 33.9453 85.1455 34.6924 86.127 35.6445C87.123 36.5967 87.8994 37.7319 88.4561 39.0503C89.0273 40.3687 89.313 41.8042 89.313 43.3569C89.313 45.188 89.0054 46.8433 88.3901 48.3228C87.7896 49.7876 86.9912 51.1279 85.9951 52.3438C84.999 53.5596 83.8564 54.6802 82.5674 55.7056C81.293 56.7163 79.9819 57.6685 78.6343 58.562C77.5942 59.2212 76.6055 59.8877 75.668 60.5615C74.7305 61.2207 73.9102 61.9385 73.207 62.7148C73.793 62.5684 74.3716 62.4658 74.9429 62.4072C75.5288 62.334 76.1001 62.2974 76.6567 62.2974C77.272 62.2974 77.8652 62.3486 78.4365 62.4512C79.0225 62.5391 79.5938 62.6489 80.1504 62.7808C80.707 62.8979 81.2637 63.0078 81.8203 63.1104C82.377 63.1982 82.9409 63.2422 83.5122 63.2422C84.0396 63.2422 84.5156 63.1763 84.9404 63.0444C85.3652 62.9126 85.7241 62.7661 86.0171 62.605C86.3247 62.4292 86.5591 62.2754 86.7202 62.1436C86.896 61.9971 86.9912 61.9165 87.0059 61.9019C87.2549 61.6528 87.5259 61.5283 87.8188 61.5283C88.1558 61.5283 88.4341 61.6528 88.6538 61.9019C88.8882 62.1509 89.0054 62.4219 89.0054 62.7148C89.0054 62.8467 88.9688 62.9785 88.8955 63.1104C88.8369 63.2275 88.7637 63.3447 88.6758 63.4619Z" fill="white"/>
</svg>
