<svg width="74" height="76" viewBox="0 0 74 76" fill="none" xmlns="http://www.w3.org/2000/svg">
<path d="M37 76C16.5605 76 0 58.9919 0 38C0 17.0081 16.5605 0 37 0C57.4395 0 74 17.0081 74 38C74 58.9919 57.4395 76 37 76ZM54.3065 31.2581H37V20.3944C37 18.7548 35.0605 17.9274 33.9415 19.0919L16.8887 36.6976C16.1875 37.4177 16.1875 38.5669 16.8887 39.2871L33.9415 56.8927C35.0754 58.0573 37 57.2298 37 55.5903V44.7419H54.3065C55.2911 44.7419 56.0968 43.9145 56.0968 42.9032V33.0968C56.0968 32.0855 55.2911 31.2581 54.3065 31.2581Z" fill="black"/>
</svg>
