<svg width="502" height="62" viewBox="0 0 502 62" fill="none" xmlns="http://www.w3.org/2000/svg">
<path d="M59.3047 2.28125C59.3047 2.72396 59.1745 3.14062 58.9141 3.53125C58.6797 3.89583 58.3411 4.14323 57.8984 4.27344C56.987 4.50781 56.0885 4.72917 55.2031 4.9375C54.3177 5.11979 53.4193 5.27604 52.5078 5.40625C53.1849 9.52083 53.6536 13.5182 53.9141 17.3984C54.2005 21.2786 54.3438 25.1198 54.3438 28.9219C54.3438 34.0781 54.1354 39.0521 53.7188 43.8438C53.3281 48.6354 52.8464 53.3359 52.2734 57.9453C52.1172 58.5182 51.8438 58.9479 51.4531 59.2344C51.0885 59.5469 50.6719 59.7031 50.2031 59.7031C49.3177 59.7031 48.7057 59.2865 48.3672 58.4531C47.638 56.6823 46.6354 54.5078 45.3594 51.9297C44.1094 49.3255 42.6901 46.5391 41.1016 43.5703C39.5391 40.5755 37.8724 37.4766 36.1016 34.2734C34.3568 31.0703 32.638 27.9714 30.9453 24.9766C29.2786 21.9818 27.7031 19.1823 26.2188 16.5781C24.7344 13.9479 23.4714 11.7214 22.4297 9.89844L21.2578 55.1719C22.2474 55.25 23.25 55.3281 24.2656 55.4062C25.3073 55.4844 26.349 55.5625 27.3906 55.6406C27.9115 55.7188 28.3411 55.9531 28.6797 56.3438C29.0443 56.7344 29.2266 57.1901 29.2266 57.7109C29.2266 58.3099 29.0052 58.7917 28.5625 59.1562C28.1198 59.5208 27.651 59.7031 27.1562 59.7031H27C24.9167 59.4948 22.8333 59.3385 20.75 59.2344C18.6927 59.1302 16.6224 59.0781 14.5391 59.0781C12.4818 59.0781 10.4375 59.1302 8.40625 59.2344C6.40104 59.3385 4.38281 59.4948 2.35156 59.7031H2.19531C1.6224 59.7031 1.1276 59.4948 0.710938 59.0781C0.320312 58.6875 0.125 58.2318 0.125 57.7109C0.125 57.1901 0.294271 56.7344 0.632812 56.3438C0.997396 55.9531 1.4401 55.7188 1.96094 55.6406C2.92448 55.5625 3.88802 55.4844 4.85156 55.4062C5.84115 55.3281 6.81771 55.25 7.78125 55.1719L8.67969 5.875C6.4401 5.71875 4.17448 5.48438 1.88281 5.17188C1.36198 5.09375 0.932292 4.85938 0.59375 4.46875C0.28125 4.05208 0.125 3.58333 0.125 3.0625C0.125 2.4375 0.359375 1.95573 0.828125 1.61719C1.29688 1.2526 1.7526 1.07031 2.19531 1.07031H2.42969C5.21615 1.4349 7.9375 1.72135 10.5938 1.92969C13.276 2.11198 15.9453 2.20312 18.6016 2.20312H21.4922C21.5182 2.20312 21.5964 2.21615 21.7266 2.24219C21.8568 2.24219 22 2.26823 22.1562 2.32031C22.3385 2.3724 22.5208 2.46354 22.7031 2.59375C22.9115 2.72396 23.0938 2.90625 23.25 3.14062C23.3542 3.32292 23.6927 3.90885 24.2656 4.89844C24.8385 5.88802 25.5807 7.17708 26.4922 8.76562C27.4036 10.3542 28.4453 12.1901 29.6172 14.2734C30.8151 16.3568 32.0781 18.5833 33.4062 20.9531C34.7604 23.3229 36.1406 25.7839 37.5469 28.3359C38.9531 30.888 40.3333 33.4401 41.6875 35.9922C43.0677 38.5182 44.3828 40.9922 45.6328 43.4141C46.9089 45.8099 48.0547 48.0495 49.0703 50.1328C49.4089 46.7214 49.6953 43.2578 49.9297 39.7422C50.1641 36.2266 50.2812 32.6198 50.2812 28.9219C50.2812 25.224 50.138 21.4479 49.8516 17.5938C49.5651 13.7396 49.0964 9.78125 48.4453 5.71875C48.1068 5.77083 47.7812 5.79688 47.4688 5.79688C47.1562 5.79688 46.8177 5.79688 46.4531 5.79688C44.9167 5.79688 43.3151 5.71875 41.6484 5.5625C41.1276 5.51042 40.6849 5.28906 40.3203 4.89844C39.9818 4.48177 39.8125 4.01302 39.8125 3.49219C39.8125 2.91927 40.0208 2.4375 40.4375 2.04688C40.8802 1.65625 41.362 1.46094 41.8828 1.46094H42.1172C42.8464 1.5651 43.5625 1.64323 44.2656 1.69531C44.9948 1.72135 45.724 1.73438 46.4531 1.73438C48.25 1.73438 50.0078 1.61719 51.7266 1.38281C53.4453 1.14844 55.125 0.809896 56.7656 0.367188C56.8698 0.315104 57.0521 0.289062 57.3125 0.289062C57.8854 0.289062 58.3542 0.497396 58.7188 0.914062C59.1094 1.30469 59.3047 1.76042 59.3047 2.28125ZM99.8516 38.375V37.7109C99.8516 35.7578 99.6432 33.9479 99.2266 32.2812C98.8099 30.6146 98.1458 29.1432 97.2344 27.8672C96.349 26.5651 95.2031 25.4974 93.7969 24.6641C92.3906 23.8307 90.6979 23.2708 88.7188 22.9844C87.3385 23.1406 86.1406 23.5182 85.125 24.1172C84.1094 24.7161 83.237 25.4583 82.5078 26.3438C81.8047 27.2031 81.2188 28.1797 80.75 29.2734C80.2812 30.3672 79.9036 31.5 79.6172 32.6719C79.3568 33.8177 79.1615 34.9766 79.0312 36.1484C78.901 37.2943 78.8229 38.375 78.7969 39.3906C79.2135 39.5208 79.7344 39.6641 80.3594 39.8203C81.0104 39.9766 81.7396 40.1328 82.5469 40.2891C83.3542 40.4193 84.2266 40.5365 85.1641 40.6406C86.1276 40.7188 87.1302 40.7578 88.1719 40.7578C90.3854 40.7578 92.4557 40.5495 94.3828 40.1328C96.3359 39.7161 98.1589 39.1302 99.8516 38.375ZM103.836 39.8984C103.758 40.5755 103.393 41.1615 102.742 41.6562C102.091 42.151 101.271 42.5938 100.281 42.9844C99.2917 43.349 98.1979 43.6615 97 43.9219C95.8281 44.1562 94.6693 44.3516 93.5234 44.5078C92.3776 44.6641 91.3229 44.7812 90.3594 44.8594C89.3958 44.9115 88.6406 44.9375 88.0938 44.9375C86.1927 44.9375 84.4349 44.8073 82.8203 44.5469C81.2318 44.2865 79.9167 44.013 78.875 43.7266C79.0312 45.3411 79.3307 46.9297 79.7734 48.4922C80.2161 50.0547 80.8542 51.4609 81.6875 52.7109C82.5208 53.9349 83.5625 54.9375 84.8125 55.7188C86.0625 56.474 87.5729 56.8516 89.3438 56.8516C89.9948 56.8516 90.737 56.7734 91.5703 56.6172C92.4036 56.4349 93.224 56.1875 94.0312 55.875C94.8385 55.5365 95.5807 55.1458 96.2578 54.7031C96.9349 54.2344 97.4688 53.7135 97.8594 53.1406C98.3021 52.6198 98.8359 52.3594 99.4609 52.3594C100.008 52.3594 100.49 52.5807 100.906 53.0234C101.323 53.4401 101.531 53.9089 101.531 54.4297C101.531 54.9766 101.362 55.4062 101.023 55.7188C100.398 56.6823 99.526 57.5026 98.4062 58.1797C97.2865 58.8568 96.0755 59.4036 94.7734 59.8203C93.4714 60.263 92.1562 60.5755 90.8281 60.7578C89.5 60.9661 88.2891 61.0703 87.1953 61.0703C84.0703 61.0703 81.1667 60.5104 78.4844 59.3906C75.8021 58.2969 73.4714 56.7865 71.4922 54.8594C69.513 52.9323 67.9505 50.6667 66.8047 48.0625C65.6849 45.4583 65.125 42.6458 65.125 39.625C65.125 36.3177 65.6198 33.375 66.6094 30.7969C67.599 28.1927 69.0052 26.0052 70.8281 24.2344C72.651 22.4375 74.8646 21.0833 77.4688 20.1719C80.0729 19.2344 83.0026 18.7656 86.2578 18.7656C89.3307 18.8958 91.974 19.4167 94.1875 20.3281C96.4271 21.2396 98.263 22.5026 99.6953 24.1172C101.128 25.7318 102.182 27.6849 102.859 29.9766C103.562 32.2422 103.914 34.7943 103.914 37.6328C103.914 38.2839 103.901 38.8047 103.875 39.1953C103.849 39.5599 103.836 39.7943 103.836 39.8984ZM171.648 20.2891C171.648 20.7578 171.479 21.1875 171.141 21.5781C170.828 21.9688 170.438 22.2031 169.969 22.2812C168.068 22.6719 166.089 22.9062 164.031 22.9844C163.458 26.7083 162.885 30.0156 162.312 32.9062C161.74 35.7708 161.141 38.349 160.516 40.6406C159.917 42.9062 159.292 44.9505 158.641 46.7734C157.99 48.5703 157.299 50.25 156.57 51.8125C155.841 53.349 155.073 54.8203 154.266 56.2266C153.458 57.6328 152.586 59.0911 151.648 60.6016C151.44 60.888 151.193 61.1224 150.906 61.3047C150.646 61.487 150.333 61.5781 149.969 61.5781C149.604 61.5781 149.279 61.5 148.992 61.3438C148.732 61.1875 148.497 60.9922 148.289 60.7578C145.685 57.5026 143.536 54.5078 141.844 51.7734C140.177 49.0391 138.888 46.7344 137.977 44.8594C136.753 47.5417 135.503 50.1458 134.227 52.6719C132.977 55.1979 131.583 57.6849 130.047 60.1328C129.839 60.4193 129.578 60.6406 129.266 60.7969C128.979 60.9792 128.68 61.0703 128.367 61.0703C127.612 61.0703 127.026 60.7839 126.609 60.2109C124.682 57.5547 122.99 54.9115 121.531 52.2812C120.073 49.651 118.81 47.099 117.742 44.625C116.674 42.151 115.776 39.8073 115.047 37.5938C114.344 35.3802 113.758 33.3359 113.289 31.4609C112.846 29.5859 112.508 27.9453 112.273 26.5391C112.039 25.1068 111.883 23.9479 111.805 23.0625C111.206 23.0104 110.62 22.9714 110.047 22.9453C109.5 22.9193 108.94 22.8802 108.367 22.8281C107.846 22.75 107.404 22.5156 107.039 22.125C106.701 21.7344 106.531 21.2786 106.531 20.7578C106.531 20.1589 106.753 19.6771 107.195 19.3125C107.664 18.9479 108.133 18.7656 108.602 18.7656H108.758C109.982 18.8438 111.232 18.9219 112.508 19C113.81 19.0521 115.151 19.0781 116.531 19.0781C118.693 19.0781 120.854 19.013 123.016 18.8828C125.177 18.7266 127.195 18.5312 129.07 18.2969C129.122 18.2969 129.161 18.2839 129.188 18.2578C129.24 18.2318 129.318 18.2188 129.422 18.2188C130.021 18.2188 130.503 18.4401 130.867 18.8828C131.232 19.2995 131.414 19.7682 131.414 20.2891C131.414 20.8099 131.245 21.2656 130.906 21.6562C130.594 22.0208 130.177 22.2292 129.656 22.2812C128.979 22.4115 128.263 22.5156 127.508 22.5938C126.753 22.6719 125.997 22.75 125.242 22.8281C125.424 23.8438 125.698 25.1849 126.062 26.8516C126.427 28.4922 126.909 30.3411 127.508 32.3984C128.133 34.4297 128.901 36.5911 129.812 38.8828C130.724 41.1745 131.818 43.4531 133.094 45.7188C133.979 43.7656 134.786 41.7995 135.516 39.8203C136.245 37.8151 136.883 35.875 137.43 34C138.003 32.099 138.471 30.276 138.836 28.5312C139.201 26.7604 139.448 25.1328 139.578 23.6484C139.63 23.0495 139.865 22.5938 140.281 22.2812C140.698 21.9688 141.154 21.8125 141.648 21.8125C142.091 21.8125 142.482 21.9427 142.82 22.2031C143.185 22.4635 143.432 22.8151 143.562 23.2578C144.891 27.3464 146.44 31.2917 148.211 35.0938C150.008 38.8958 152.091 42.6458 154.461 46.3438C154.956 45.0677 155.438 43.6615 155.906 42.125C156.375 40.5885 156.831 38.8828 157.273 37.0078C157.716 35.1068 158.159 32.9974 158.602 30.6797C159.044 28.362 159.5 25.7969 159.969 22.9844C158.198 22.9844 156.44 22.8281 154.695 22.5156C154.201 22.4635 153.784 22.2552 153.445 21.8906C153.107 21.5 152.938 21.0443 152.938 20.5234C152.938 19.9505 153.146 19.4688 153.562 19.0781C154.005 18.6615 154.487 18.4531 155.008 18.4531C155.06 18.4531 155.099 18.4661 155.125 18.4922C155.177 18.5182 155.242 18.5312 155.32 18.5312C156.362 18.6875 157.417 18.8047 158.484 18.8828C159.552 18.9609 160.607 19 161.648 19C164.253 19 166.753 18.7656 169.148 18.2969C169.253 18.2969 169.331 18.2839 169.383 18.2578C169.461 18.2318 169.526 18.2188 169.578 18.2188C170.125 18.2188 170.607 18.4401 171.023 18.8828C171.44 19.2995 171.648 19.7682 171.648 20.2891ZM233.758 39.625C232.794 39.625 231.883 39.4427 231.023 39.0781C230.19 38.7135 229.461 38.2188 228.836 37.5938C228.211 36.9688 227.716 36.2396 227.352 35.4062C226.987 34.5469 226.805 33.6354 226.805 32.6719C226.805 31.7083 226.987 30.8099 227.352 29.9766C227.716 29.1172 228.211 28.375 228.836 27.75C229.461 27.099 230.19 26.5911 231.023 26.2266C231.883 25.8359 232.794 25.6406 233.758 25.6406C233.888 25.6406 234.005 25.6536 234.109 25.6797C234.24 25.7057 234.37 25.7188 234.5 25.7188C233.823 25.1979 233.029 24.8073 232.117 24.5469C231.232 24.2604 230.203 24.1172 229.031 24.1172C227.547 24.1172 226.258 24.4297 225.164 25.0547C224.07 25.6536 223.133 26.4219 222.352 27.3594C221.596 28.2708 220.984 29.2734 220.516 30.3672C220.047 31.4349 219.669 32.4505 219.383 33.4141C219.122 34.3516 218.94 35.1589 218.836 35.8359C218.758 36.513 218.719 36.9036 218.719 37.0078L218.641 54.3516C219.552 54.4297 220.464 54.5469 221.375 54.7031C222.312 54.8594 223.263 55.0156 224.227 55.1719C224.721 55.3021 225.125 55.5625 225.438 55.9531C225.75 56.3177 225.906 56.7474 225.906 57.2422C225.906 57.8151 225.685 58.2969 225.242 58.6875C224.799 59.0521 224.331 59.2344 223.836 59.2344H223.445C221.336 58.8438 219.331 58.5443 217.43 58.3359C215.529 58.1276 213.641 58.0234 211.766 58.0234C209.891 58.0234 208.016 58.1276 206.141 58.3359C204.266 58.5443 202.273 58.8438 200.164 59.2344H199.773C199.174 59.2344 198.693 59.0391 198.328 58.6484C197.964 58.2318 197.781 57.763 197.781 57.2422C197.781 56.7474 197.924 56.3177 198.211 55.9531C198.497 55.5625 198.888 55.3021 199.383 55.1719C200.294 55.0156 201.206 54.8594 202.117 54.7031C203.029 54.5469 203.927 54.4297 204.812 54.3516V25.25C203.172 25.1719 201.792 25.0677 200.672 24.9375C199.552 24.8073 198.927 24.7161 198.797 24.6641C198.276 24.612 197.846 24.4036 197.508 24.0391C197.195 23.6484 197.039 23.1927 197.039 22.6719C197.039 22.0208 197.26 21.513 197.703 21.1484C198.172 20.7839 198.641 20.6016 199.109 20.6016H199.383C199.409 20.6276 199.708 20.6797 200.281 20.7578C200.854 20.8099 201.596 20.875 202.508 20.9531C203.419 21.0312 204.461 21.0964 205.633 21.1484C206.831 21.2005 208.042 21.2266 209.266 21.2266C210.516 21.2266 211.74 21.1875 212.938 21.1094C214.135 21.0312 215.242 20.888 216.258 20.6797C216.31 20.6276 216.44 20.6016 216.648 20.6016C217.247 20.6016 217.742 20.8229 218.133 21.2656C218.523 21.6823 218.719 22.151 218.719 22.6719V25.4844C219.839 23.9219 221.245 22.6328 222.938 21.6172C224.656 20.5755 226.688 20.0547 229.031 20.0547C230.802 20.1068 232.417 20.4193 233.875 20.9922C235.333 21.5391 236.583 22.3073 237.625 23.2969C238.693 24.2604 239.513 25.4323 240.086 26.8125C240.685 28.1667 240.984 29.6901 240.984 31.3828C240.984 32.4505 240.815 33.4792 240.477 34.4688C240.138 35.4583 239.656 36.3438 239.031 37.125C238.406 37.8802 237.638 38.4922 236.727 38.9609C235.841 39.4036 234.852 39.625 233.758 39.625ZM280.477 38.375V37.7109C280.477 35.7578 280.268 33.9479 279.852 32.2812C279.435 30.6146 278.771 29.1432 277.859 27.8672C276.974 26.5651 275.828 25.4974 274.422 24.6641C273.016 23.8307 271.323 23.2708 269.344 22.9844C267.964 23.1406 266.766 23.5182 265.75 24.1172C264.734 24.7161 263.862 25.4583 263.133 26.3438C262.43 27.2031 261.844 28.1797 261.375 29.2734C260.906 30.3672 260.529 31.5 260.242 32.6719C259.982 33.8177 259.786 34.9766 259.656 36.1484C259.526 37.2943 259.448 38.375 259.422 39.3906C259.839 39.5208 260.359 39.6641 260.984 39.8203C261.635 39.9766 262.365 40.1328 263.172 40.2891C263.979 40.4193 264.852 40.5365 265.789 40.6406C266.753 40.7188 267.755 40.7578 268.797 40.7578C271.01 40.7578 273.081 40.5495 275.008 40.1328C276.961 39.7161 278.784 39.1302 280.477 38.375ZM284.461 39.8984C284.383 40.5755 284.018 41.1615 283.367 41.6562C282.716 42.151 281.896 42.5938 280.906 42.9844C279.917 43.349 278.823 43.6615 277.625 43.9219C276.453 44.1562 275.294 44.3516 274.148 44.5078C273.003 44.6641 271.948 44.7812 270.984 44.8594C270.021 44.9115 269.266 44.9375 268.719 44.9375C266.818 44.9375 265.06 44.8073 263.445 44.5469C261.857 44.2865 260.542 44.013 259.5 43.7266C259.656 45.3411 259.956 46.9297 260.398 48.4922C260.841 50.0547 261.479 51.4609 262.312 52.7109C263.146 53.9349 264.188 54.9375 265.438 55.7188C266.688 56.474 268.198 56.8516 269.969 56.8516C270.62 56.8516 271.362 56.7734 272.195 56.6172C273.029 56.4349 273.849 56.1875 274.656 55.875C275.464 55.5365 276.206 55.1458 276.883 54.7031C277.56 54.2344 278.094 53.7135 278.484 53.1406C278.927 52.6198 279.461 52.3594 280.086 52.3594C280.633 52.3594 281.115 52.5807 281.531 53.0234C281.948 53.4401 282.156 53.9089 282.156 54.4297C282.156 54.9766 281.987 55.4062 281.648 55.7188C281.023 56.6823 280.151 57.5026 279.031 58.1797C277.911 58.8568 276.701 59.4036 275.398 59.8203C274.096 60.263 272.781 60.5755 271.453 60.7578C270.125 60.9661 268.914 61.0703 267.82 61.0703C264.695 61.0703 261.792 60.5104 259.109 59.3906C256.427 58.2969 254.096 56.7865 252.117 54.8594C250.138 52.9323 248.576 50.6667 247.43 48.0625C246.31 45.4583 245.75 42.6458 245.75 39.625C245.75 36.3177 246.245 33.375 247.234 30.7969C248.224 28.1927 249.63 26.0052 251.453 24.2344C253.276 22.4375 255.49 21.0833 258.094 20.1719C260.698 19.2344 263.628 18.7656 266.883 18.7656C269.956 18.8958 272.599 19.4167 274.812 20.3281C277.052 21.2396 278.888 22.5026 280.32 24.1172C281.753 25.7318 282.807 27.6849 283.484 29.9766C284.188 32.2422 284.539 34.7943 284.539 37.6328C284.539 38.2839 284.526 38.8047 284.5 39.1953C284.474 39.5599 284.461 39.7943 284.461 39.8984ZM328.445 33.0625C328.367 33.5833 328.12 34.013 327.703 34.3516C327.312 34.6901 326.857 34.8594 326.336 34.8594C325.815 34.8594 325.359 34.6771 324.969 34.3125C324.604 33.9479 324.396 33.4792 324.344 32.9062C324.344 31.7865 324.109 30.6146 323.641 29.3906C323.172 28.1667 322.534 27.0469 321.727 26.0312C320.919 25.0156 319.995 24.1823 318.953 23.5312C317.911 22.8542 316.805 22.5156 315.633 22.5156C314.174 22.5156 312.885 22.8281 311.766 23.4531C310.646 24.0521 309.669 24.8594 308.836 25.875C308.003 26.8906 307.312 28.0495 306.766 29.3516C306.219 30.6536 305.776 31.9948 305.438 33.375C305.099 34.7292 304.852 36.0703 304.695 37.3984C304.565 38.7266 304.5 39.9245 304.5 40.9922C304.5 42.8151 304.695 44.638 305.086 46.4609C305.503 48.2839 306.128 49.9245 306.961 51.3828C307.794 52.8151 308.862 53.987 310.164 54.8984C311.466 55.8099 313.016 56.2656 314.812 56.2656C316.141 56.2656 317.391 55.9661 318.562 55.3672C319.734 54.7682 320.776 54 321.688 53.0625C322.625 52.099 323.419 51.0443 324.07 49.8984C324.721 48.7526 325.19 47.6328 325.477 46.5391C325.607 46.0443 325.841 45.6406 326.18 45.3281C326.544 45.0156 326.974 44.8594 327.469 44.8594C328.042 44.8594 328.523 45.0807 328.914 45.5234C329.331 45.9401 329.539 46.4089 329.539 46.9297C329.539 47.0859 329.513 47.2161 329.461 47.3203C329.279 48.1797 328.966 49.1172 328.523 50.1328C328.081 51.1484 327.495 52.1641 326.766 53.1797C326.062 54.1953 325.203 55.1849 324.188 56.1484C323.172 57.0859 322.013 57.9193 320.711 58.6484C319.409 59.3776 317.964 59.9635 316.375 60.4062C314.786 60.849 313.042 61.0703 311.141 61.0703C308.146 61.0703 305.385 60.5625 302.859 59.5469C300.333 58.5573 298.159 57.1641 296.336 55.3672C294.513 53.5443 293.081 51.3698 292.039 48.8438C291.023 46.2917 290.516 43.4922 290.516 40.4453C290.516 37.1641 290.958 34.1172 291.844 31.3047C292.755 28.4922 294.07 26.0573 295.789 24C297.534 21.9427 299.669 20.3281 302.195 19.1562C304.747 17.9844 307.677 17.3984 310.984 17.3984C313.953 17.3984 316.714 17.9974 319.266 19.1953C321.818 20.3672 323.914 22.138 325.555 24.5078L326.844 16.5391C326.922 16.0443 327.143 15.6406 327.508 15.3281C327.898 15.0156 328.341 14.8594 328.836 14.8594C329.487 14.8594 329.995 15.0807 330.359 15.5234C330.724 15.9661 330.906 16.4089 330.906 16.8516V17.1641L328.445 33.0625ZM374.227 39.7031C374.227 38.4271 374.083 37.138 373.797 35.8359C373.51 34.5339 373.094 33.2708 372.547 32.0469C372 30.8229 371.336 29.6771 370.555 28.6094C369.773 27.5417 368.888 26.6172 367.898 25.8359C366.935 25.0286 365.867 24.4036 364.695 23.9609C363.549 23.4922 362.326 23.2578 361.023 23.2578C359.565 23.2578 358.289 23.5052 357.195 24C356.128 24.4688 355.19 25.1198 354.383 25.9531C353.576 26.7604 352.911 27.6979 352.391 28.7656C351.87 29.8333 351.453 30.9661 351.141 32.1641C350.828 33.362 350.607 34.5729 350.477 35.7969C350.346 37.0208 350.281 38.1927 350.281 39.3125C350.281 40.4583 350.333 41.6823 350.438 42.9844C350.542 44.2604 350.724 45.5365 350.984 46.8125C351.245 48.0625 351.596 49.2734 352.039 50.4453C352.482 51.6172 353.055 52.6458 353.758 53.5312C354.461 54.4167 355.307 55.1198 356.297 55.6406C357.312 56.1615 358.51 56.4219 359.891 56.4219C362.156 56.4219 364.174 55.9531 365.945 55.0156C367.742 54.0521 369.253 52.7891 370.477 51.2266C371.701 49.6641 372.625 47.8802 373.25 45.875C373.901 43.8698 374.227 41.8125 374.227 39.7031ZM378.289 39.7031C378.289 42.8281 377.729 45.6927 376.609 48.2969C375.49 50.901 373.979 53.1406 372.078 55.0156C370.177 56.8646 367.951 58.3099 365.398 59.3516C362.872 60.3932 360.203 60.9141 357.391 60.9141C354.214 60.9141 351.336 60.4062 348.758 59.3906C346.206 58.401 344.018 56.9818 342.195 55.1328C340.372 53.2839 338.966 51.0573 337.977 48.4531C337.013 45.849 336.531 42.9323 336.531 39.7031C336.531 36.6302 337.065 33.7917 338.133 31.1875C339.201 28.5833 340.672 26.3438 342.547 24.4688C344.422 22.5677 346.622 21.0964 349.148 20.0547C351.701 18.987 354.448 18.4531 357.391 18.4531C360.464 18.4531 363.276 19.026 365.828 20.1719C368.406 21.2917 370.62 22.8281 372.469 24.7812C374.318 26.7083 375.75 28.9609 376.766 31.5391C377.781 34.1172 378.289 36.8385 378.289 39.7031ZM420.086 39.625C419.122 39.625 418.211 39.4427 417.352 39.0781C416.518 38.7135 415.789 38.2188 415.164 37.5938C414.539 36.9688 414.044 36.2396 413.68 35.4062C413.315 34.5469 413.133 33.6354 413.133 32.6719C413.133 31.7083 413.315 30.8099 413.68 29.9766C414.044 29.1172 414.539 28.375 415.164 27.75C415.789 27.099 416.518 26.5911 417.352 26.2266C418.211 25.8359 419.122 25.6406 420.086 25.6406C420.216 25.6406 420.333 25.6536 420.438 25.6797C420.568 25.7057 420.698 25.7188 420.828 25.7188C420.151 25.1979 419.357 24.8073 418.445 24.5469C417.56 24.2604 416.531 24.1172 415.359 24.1172C413.875 24.1172 412.586 24.4297 411.492 25.0547C410.398 25.6536 409.461 26.4219 408.68 27.3594C407.924 28.2708 407.312 29.2734 406.844 30.3672C406.375 31.4349 405.997 32.4505 405.711 33.4141C405.451 34.3516 405.268 35.1589 405.164 35.8359C405.086 36.513 405.047 36.9036 405.047 37.0078L404.969 54.3516C405.88 54.4297 406.792 54.5469 407.703 54.7031C408.641 54.8594 409.591 55.0156 410.555 55.1719C411.049 55.3021 411.453 55.5625 411.766 55.9531C412.078 56.3177 412.234 56.7474 412.234 57.2422C412.234 57.8151 412.013 58.2969 411.57 58.6875C411.128 59.0521 410.659 59.2344 410.164 59.2344H409.773C407.664 58.8438 405.659 58.5443 403.758 58.3359C401.857 58.1276 399.969 58.0234 398.094 58.0234C396.219 58.0234 394.344 58.1276 392.469 58.3359C390.594 58.5443 388.602 58.8438 386.492 59.2344H386.102C385.503 59.2344 385.021 59.0391 384.656 58.6484C384.292 58.2318 384.109 57.763 384.109 57.2422C384.109 56.7474 384.253 56.3177 384.539 55.9531C384.826 55.5625 385.216 55.3021 385.711 55.1719C386.622 55.0156 387.534 54.8594 388.445 54.7031C389.357 54.5469 390.255 54.4297 391.141 54.3516V25.25C389.5 25.1719 388.12 25.0677 387 24.9375C385.88 24.8073 385.255 24.7161 385.125 24.6641C384.604 24.612 384.174 24.4036 383.836 24.0391C383.523 23.6484 383.367 23.1927 383.367 22.6719C383.367 22.0208 383.589 21.513 384.031 21.1484C384.5 20.7839 384.969 20.6016 385.438 20.6016H385.711C385.737 20.6276 386.036 20.6797 386.609 20.7578C387.182 20.8099 387.924 20.875 388.836 20.9531C389.747 21.0312 390.789 21.0964 391.961 21.1484C393.159 21.2005 394.37 21.2266 395.594 21.2266C396.844 21.2266 398.068 21.1875 399.266 21.1094C400.464 21.0312 401.57 20.888 402.586 20.6797C402.638 20.6276 402.768 20.6016 402.977 20.6016C403.576 20.6016 404.07 20.8229 404.461 21.2656C404.852 21.6823 405.047 22.151 405.047 22.6719V25.4844C406.167 23.9219 407.573 22.6328 409.266 21.6172C410.984 20.5755 413.016 20.0547 415.359 20.0547C417.13 20.1068 418.745 20.4193 420.203 20.9922C421.661 21.5391 422.911 22.3073 423.953 23.2969C425.021 24.2604 425.841 25.4323 426.414 26.8125C427.013 28.1667 427.312 29.6901 427.312 31.3828C427.312 32.4505 427.143 33.4792 426.805 34.4688C426.466 35.4583 425.984 36.3438 425.359 37.125C424.734 37.8802 423.966 38.4922 423.055 38.9609C422.169 39.4036 421.18 39.625 420.086 39.625ZM461.531 29.5469C461.141 28.375 460.555 27.3594 459.773 26.5C458.992 25.6406 458.094 24.9245 457.078 24.3516C456.089 23.7786 455.021 23.362 453.875 23.1016C452.729 22.8151 451.57 22.6719 450.398 22.6719C448.628 22.6719 447.052 22.9583 445.672 23.5312C444.292 24.0781 443.081 24.8333 442.039 25.7969C440.997 26.7344 440.099 27.8411 439.344 29.1172C438.615 30.3672 438.016 31.6953 437.547 33.1016C437.078 34.4818 436.74 35.901 436.531 37.3594C436.323 38.8177 436.219 40.224 436.219 41.5781C436.245 43.4792 436.505 45.3151 437 47.0859C437.521 48.8307 438.276 50.3932 439.266 51.7734C440.281 53.1276 441.505 54.2214 442.938 55.0547C444.396 55.862 446.076 56.2656 447.977 56.2656C449.721 56.2656 451.271 55.862 452.625 55.0547C453.979 54.2214 455.164 53.1797 456.18 51.9297C457.221 50.6797 458.094 49.3125 458.797 47.8281C459.5 46.3177 460.06 44.8854 460.477 43.5312C460.893 42.151 461.18 40.9401 461.336 39.8984C461.518 38.8307 461.583 38.1276 461.531 37.7891V29.5469ZM480.164 58.8438H480.008C479.357 58.7917 478.706 58.7526 478.055 58.7266C477.43 58.7005 476.818 58.6875 476.219 58.6875C474.552 58.6875 472.99 58.7656 471.531 58.9219C470.073 59.0781 468.797 59.2474 467.703 59.4297C466.635 59.638 465.776 59.8203 465.125 59.9766C464.5 60.1328 464.174 60.2109 464.148 60.2109C464.07 60.263 463.979 60.2891 463.875 60.2891C463.771 60.2891 463.68 60.2891 463.602 60.2891C463.003 60.2891 462.508 60.0677 462.117 59.625C461.727 59.2083 461.531 58.7396 461.531 58.2188V51.5781C460.932 52.8281 460.164 53.987 459.227 55.0547C458.315 56.1224 457.286 57.0469 456.141 57.8281C454.995 58.6094 453.732 59.2214 452.352 59.6641C450.997 60.1328 449.578 60.3672 448.094 60.3672C445.594 60.3672 443.367 59.8594 441.414 58.8438C439.461 57.8281 437.794 56.474 436.414 54.7812C435.06 53.0625 434.018 51.0703 433.289 48.8047C432.56 46.5391 432.182 44.1562 432.156 41.6562C432.156 39.7031 432.312 37.7891 432.625 35.9141C432.964 34.013 433.471 32.2161 434.148 30.5234C434.826 28.8047 435.659 27.2161 436.648 25.7578C437.664 24.2995 438.849 23.0495 440.203 22.0078C441.557 20.9401 443.081 20.1068 444.773 19.5078C446.466 18.9089 448.341 18.6094 450.398 18.6094C452.664 18.6094 454.734 18.9479 456.609 19.625C458.484 20.3021 460.125 21.2396 461.531 22.4375V6.69531C459.917 6.61719 458.549 6.51302 457.43 6.38281C456.336 6.2526 455.724 6.1875 455.594 6.1875C455.073 6.10938 454.63 5.875 454.266 5.48438C453.927 5.09375 453.758 4.63802 453.758 4.11719C453.758 3.54427 453.966 3.07552 454.383 2.71094C454.826 2.32031 455.307 2.125 455.828 2.125H456.062C456.089 2.125 456.388 2.16406 456.961 2.24219C457.534 2.29427 458.276 2.35938 459.188 2.4375C460.125 2.51562 461.193 2.59375 462.391 2.67188C463.589 2.72396 464.812 2.75 466.062 2.75C467.286 2.75 468.484 2.71094 469.656 2.63281C470.854 2.52865 471.948 2.35938 472.938 2.125H473.445C474.044 2.125 474.526 2.33333 474.891 2.75C475.255 3.14062 475.438 3.59635 475.438 4.11719V54.5859H476.219C476.896 54.5859 477.573 54.599 478.25 54.625C478.953 54.625 479.643 54.6641 480.32 54.7422C480.893 54.7943 481.349 55.0156 481.688 55.4062C482.052 55.7969 482.234 56.2526 482.234 56.7734C482.234 57.3984 482 57.9062 481.531 58.2969C481.089 58.6615 480.633 58.8438 480.164 58.8438ZM500.281 54.7422C500.281 55.5755 500.125 56.3568 499.812 57.0859C499.5 57.8151 499.07 58.4531 498.523 59C498.003 59.5469 497.378 59.9766 496.648 60.2891C495.919 60.6016 495.138 60.7578 494.305 60.7578C493.471 60.7578 492.69 60.6016 491.961 60.2891C491.232 59.9766 490.594 59.5469 490.047 59C489.5 58.4531 489.07 57.8151 488.758 57.0859C488.445 56.3568 488.289 55.5755 488.289 54.7422C488.289 53.9349 488.445 53.1667 488.758 52.4375C489.07 51.7083 489.5 51.0833 490.047 50.5625C490.594 50.0417 491.232 49.625 491.961 49.3125C492.69 49 493.471 48.8438 494.305 48.8438C495.138 48.8438 495.919 49 496.648 49.3125C497.378 49.625 498.003 50.0417 498.523 50.5625C499.07 51.0833 499.5 51.7083 499.812 52.4375C500.125 53.1667 500.281 53.9349 500.281 54.7422ZM501.18 8.84375C501.18 10.5104 501.076 12.4115 500.867 14.5469C500.685 16.6562 500.424 18.9089 500.086 21.3047C499.773 23.7005 499.409 26.2005 498.992 28.8047C498.576 31.3828 498.159 33.9609 497.742 36.5391C497.508 38.0495 497.273 39.5208 497.039 40.9531C496.805 42.3854 496.583 43.7917 496.375 45.1719C496.297 45.6927 496.062 46.1224 495.672 46.4609C495.281 46.7734 494.826 46.9297 494.305 46.9297C493.81 46.9297 493.367 46.7734 492.977 46.4609C492.612 46.1224 492.391 45.6927 492.312 45.1719C492.104 43.7656 491.87 42.3073 491.609 40.7969C491.349 39.2865 491.102 37.724 490.867 36.1094C490.451 33.5833 490.034 31.0573 489.617 28.5312C489.227 25.9792 488.875 23.5312 488.562 21.1875C488.25 18.8177 487.99 16.5911 487.781 14.5078C487.599 12.3984 487.508 10.5104 487.508 8.84375C487.508 7.90625 487.677 7.03385 488.016 6.22656C488.38 5.39323 488.875 4.66406 489.5 4.03906C490.125 3.41406 490.841 2.93229 491.648 2.59375C492.482 2.22917 493.367 2.04688 494.305 2.04688C495.242 2.04688 496.128 2.22917 496.961 2.59375C497.794 2.93229 498.523 3.41406 499.148 4.03906C499.773 4.66406 500.268 5.39323 500.633 6.22656C500.997 7.03385 501.18 7.90625 501.18 8.84375Z" fill="black"/>
</svg>
