<svg width="159" height="142" viewBox="0 0 159 142" fill="none" xmlns="http://www.w3.org/2000/svg">
<path d="M151.879 17.75H123.264V6.65625C123.264 2.96758 120.32 0 116.66 0H41.8217C38.1623 0 35.2183 2.96758 35.2183 6.65625V17.75H6.60342C2.94403 17.75 0 20.7176 0 24.4062V39.9375C0 49.8387 6.19071 60.0172 17.0313 67.866C25.6983 74.1617 36.2363 78.1555 47.297 79.4312C55.9365 93.8809 66.0342 99.8438 66.0342 99.8438V119.812H52.8274C43.1148 119.812 35.2183 125.554 35.2183 135.344V138.672C35.2183 140.502 36.704 142 38.52 142H119.962C121.778 142 123.264 140.502 123.264 138.672V135.344C123.264 125.554 115.367 119.812 105.655 119.812H92.4479V99.8438C92.4479 99.8438 102.546 93.8809 111.185 79.4312C122.273 78.1555 132.811 74.1617 141.451 67.866C152.264 60.0172 158.482 49.8387 158.482 39.9375V24.4062C158.482 20.7176 155.538 17.75 151.879 17.75ZM27.3217 53.4719C20.6082 48.5906 17.6091 43.1547 17.6091 39.9375V35.5H35.2733C35.5484 44.5414 36.8691 52.4734 38.7951 59.407C34.6405 57.9648 30.7609 55.968 27.3217 53.4719ZM140.873 39.9375C140.873 44.4027 136.003 49.9496 131.16 53.4719C127.721 55.968 123.814 57.9648 119.66 59.407C121.586 52.4734 122.906 44.5414 123.181 35.5H140.873V39.9375Z" fill="black"/>
<path d="M90.2026 57.2446C90.2026 58.7974 90.0122 60.1963 89.6313 61.4414C89.2505 62.6865 88.7305 63.7925 88.0713 64.7593C87.4268 65.7261 86.6577 66.5537 85.7642 67.2422C84.8853 67.9307 83.9404 68.502 82.9297 68.9561C81.9189 69.3955 80.8716 69.7178 79.7876 69.9229C78.7036 70.1426 77.627 70.2524 76.5576 70.2524C75.21 70.2524 73.9355 70.04 72.7344 69.6152C71.5479 69.2051 70.5005 68.6118 69.5923 67.8354C68.6987 67.0444 67.9883 66.0776 67.4609 64.9351C66.9336 63.7925 66.6699 62.4961 66.6699 61.0459C66.6699 60.6797 66.6846 60.3062 66.7139 59.9253C66.7432 59.5298 66.8018 59.1196 66.8896 58.6948C66.9336 58.4165 67.0654 58.1895 67.2852 58.0137C67.5049 57.8379 67.7466 57.75 68.0103 57.75C68.3765 57.75 68.6621 57.8745 68.8672 58.1235C69.0723 58.3726 69.1748 58.6216 69.1748 58.8706C69.1748 58.9146 69.1675 58.9512 69.1528 58.9805C69.1382 59.0098 69.1309 59.0464 69.1309 59.0903C69.0869 59.4272 69.043 59.7642 68.999 60.1011C68.9697 60.438 68.9551 60.7676 68.9551 61.0898C68.9551 61.9834 69.0942 62.8257 69.3726 63.6167C69.6655 64.3931 70.0684 65.0742 70.5811 65.6602C71.1084 66.2314 71.7456 66.6855 72.4927 67.0225C73.2397 67.3447 74.0747 67.5059 74.9976 67.5059C76.0376 67.5059 77.019 67.3521 77.9419 67.0444C78.8794 66.7368 79.6997 66.2388 80.4028 65.5503C81.106 64.8618 81.6626 63.9756 82.0728 62.8916C82.4829 61.793 82.688 60.4526 82.688 58.8706C82.688 57.9331 82.5415 57.0835 82.2485 56.3218C81.9556 55.5601 81.5601 54.8862 81.062 54.3003C80.564 53.6997 79.9854 53.187 79.3262 52.7622C78.667 52.3374 77.9785 51.9932 77.2607 51.7295C76.5576 51.4512 75.8398 51.2461 75.1074 51.1143C74.3896 50.9824 73.7085 50.9165 73.064 50.9165H72.6025H72.5146C72.1777 50.9165 71.9067 50.7993 71.7017 50.5649C71.4966 50.3159 71.394 50.0596 71.394 49.7959C71.394 49.415 71.5259 49.1147 71.7896 48.895L82.8638 39.7983H69.1748C68.8379 39.7983 68.5596 39.6885 68.3398 39.4688C68.1201 39.249 68.0103 38.9854 68.0103 38.6777C68.0103 38.3408 68.1201 38.0625 68.3398 37.8428C68.5596 37.6084 68.8379 37.4912 69.1748 37.4912H85.9619C86.2842 37.4912 86.5625 37.6157 86.7969 37.8647C87.0312 38.1138 87.1484 38.3848 87.1484 38.6777C87.1484 39 87.0093 39.2856 86.731 39.5347L79.8535 44.9619C80.6592 45.1523 81.4722 45.394 82.2925 45.687C83.1128 45.98 83.9038 46.3535 84.6655 46.8076C85.4419 47.2617 86.1597 47.8037 86.8188 48.4336C87.4927 49.0635 88.0786 49.8032 88.5767 50.6528C89.0894 51.5024 89.4849 52.4766 89.7632 53.5752C90.0562 54.6592 90.2026 55.8823 90.2026 57.2446Z" fill="white"/>
</svg>
