<svg width="523" height="62" viewBox="0 0 523 62" fill="none" xmlns="http://www.w3.org/2000/svg">
<path d="M65.6797 4.74219C65.6797 5.23698 65.5104 5.67969 65.1719 6.07031C64.8333 6.46094 64.4167 6.69531 63.9219 6.77344C61.3438 7.16406 58.7786 7.39844 56.2266 7.47656C55.0547 11.6432 53.8177 15.3021 52.5156 18.4531C51.2135 21.6042 49.9635 24.3125 48.7656 26.5781C47.5938 28.8177 46.526 30.6146 45.5625 31.9688C44.625 33.3229 43.9219 34.2865 43.4531 34.8594V55.4062C45.6927 55.4844 47.9583 55.6406 50.25 55.875C50.7708 55.9531 51.2005 56.1875 51.5391 56.5781C51.9036 56.9688 52.0859 57.4245 52.0859 57.9453C52.0859 58.5964 51.8516 59.0911 51.3828 59.4297C50.9141 59.7943 50.4583 59.9766 50.0156 59.9766H49.7422C48.1536 59.7682 46.5391 59.612 44.8984 59.5078C43.2839 59.4297 41.6562 59.3906 40.0156 59.3906C37.3073 59.3906 34.638 59.5208 32.0078 59.7812C29.3776 60.0677 26.7604 60.4714 24.1562 60.9922H23.7656C23.1927 60.9922 22.6979 60.7839 22.2812 60.3672C21.8906 59.9766 21.6953 59.5208 21.6953 59C21.6953 58.5052 21.8516 58.0755 22.1641 57.7109C22.4766 57.3203 22.8802 57.0599 23.375 56.9297C24.4688 56.7214 25.5625 56.526 26.6562 56.3438C27.75 56.1615 28.8698 56.0052 30.0156 55.875V38.9219C28.2188 37.2292 26.474 35.3672 24.7812 33.3359C23.1146 31.2786 21.5391 29.1953 20.0547 27.0859C18.5703 24.9766 17.1901 22.8932 15.9141 20.8359C14.6641 18.7526 13.5443 16.8255 12.5547 15.0547C11.5651 13.2839 10.7188 11.7344 10.0156 10.4062C9.33854 9.07812 8.83073 8.07552 8.49219 7.39844C7.52865 7.32031 6.5651 7.24219 5.60156 7.16406C4.63802 7.0599 3.67448 6.92969 2.71094 6.77344C2.1901 6.69531 1.77344 6.46094 1.46094 6.07031C1.1224 5.67969 0.953125 5.23698 0.953125 4.74219C0.953125 4.0651 1.1875 3.55729 1.65625 3.21875C2.125 2.85417 2.58073 2.67188 3.02344 2.67188H3.29688C5.58854 3.03646 7.84115 3.3099 10.0547 3.49219C12.2943 3.64844 14.5208 3.72656 16.7344 3.72656C18.9479 3.72656 21.1354 3.64844 23.2969 3.49219C25.4844 3.3099 27.6719 3.03646 29.8594 2.67188H30.0938C30.6927 2.67188 31.1875 2.88021 31.5781 3.29688C31.9688 3.71354 32.1641 4.19531 32.1641 4.74219C32.1641 5.23698 31.9948 5.67969 31.6562 6.07031C31.3438 6.46094 30.9271 6.69531 30.4062 6.77344C29.4167 6.92969 28.401 7.07292 27.3594 7.20312C26.3177 7.30729 25.276 7.39844 24.2344 7.47656C24.9115 8.72656 25.8099 10.3151 26.9297 12.2422C28.0755 14.1432 29.3776 16.1875 30.8359 18.375C32.3203 20.5365 33.9349 22.724 35.6797 24.9375C37.4245 27.151 39.2604 29.1953 41.1875 31.0703C41.7604 30.3151 42.4635 29.2734 43.2969 27.9453C44.1302 26.5911 45.0286 24.9375 45.9922 22.9844C46.9557 21.0312 47.9583 18.7656 49 16.1875C50.0417 13.5833 51.0443 10.6536 52.0078 7.39844C50.7578 7.34635 49.5208 7.28125 48.2969 7.20312C47.0729 7.125 45.849 6.98177 44.625 6.77344C44.1042 6.69531 43.6745 6.46094 43.3359 6.07031C43.0234 5.67969 42.8672 5.23698 42.8672 4.74219C42.8672 4.11719 43.0885 3.6224 43.5312 3.25781C44 2.86719 44.4557 2.67188 44.8984 2.67188H45.2109C46.7474 2.90625 48.2578 3.08854 49.7422 3.21875C51.2526 3.34896 52.776 3.41406 54.3125 3.41406C55.849 3.41406 57.3594 3.34896 58.8438 3.21875C60.3281 3.08854 61.8125 2.90625 63.2969 2.67188H63.6094C64.1562 2.67188 64.638 2.89323 65.0547 3.33594C65.4714 3.7526 65.6797 4.22135 65.6797 4.74219ZM103.18 39.7031C103.18 38.4271 103.036 37.138 102.75 35.8359C102.464 34.5339 102.047 33.2708 101.5 32.0469C100.953 30.8229 100.289 29.6771 99.5078 28.6094C98.7266 27.5417 97.8411 26.6172 96.8516 25.8359C95.888 25.0286 94.8203 24.4036 93.6484 23.9609C92.5026 23.4922 91.2786 23.2578 89.9766 23.2578C88.5182 23.2578 87.2422 23.5052 86.1484 24C85.0807 24.4688 84.1432 25.1198 83.3359 25.9531C82.5286 26.7604 81.8646 27.6979 81.3438 28.7656C80.8229 29.8333 80.4062 30.9661 80.0938 32.1641C79.7812 33.362 79.5599 34.5729 79.4297 35.7969C79.2995 37.0208 79.2344 38.1927 79.2344 39.3125C79.2344 40.4583 79.2865 41.6823 79.3906 42.9844C79.4948 44.2604 79.6771 45.5365 79.9375 46.8125C80.1979 48.0625 80.5495 49.2734 80.9922 50.4453C81.4349 51.6172 82.0078 52.6458 82.7109 53.5312C83.4141 54.4167 84.2604 55.1198 85.25 55.6406C86.2656 56.1615 87.4635 56.4219 88.8438 56.4219C91.1094 56.4219 93.1276 55.9531 94.8984 55.0156C96.6953 54.0521 98.2057 52.7891 99.4297 51.2266C100.654 49.6641 101.578 47.8802 102.203 45.875C102.854 43.8698 103.18 41.8125 103.18 39.7031ZM107.242 39.7031C107.242 42.8281 106.682 45.6927 105.562 48.2969C104.443 50.901 102.932 53.1406 101.031 55.0156C99.1302 56.8646 96.9036 58.3099 94.3516 59.3516C91.8255 60.3932 89.1562 60.9141 86.3438 60.9141C83.1667 60.9141 80.2891 60.4062 77.7109 59.3906C75.1589 58.401 72.9714 56.9818 71.1484 55.1328C69.3255 53.2839 67.9193 51.0573 66.9297 48.4531C65.9661 45.849 65.4844 42.9323 65.4844 39.7031C65.4844 36.6302 66.0182 33.7917 67.0859 31.1875C68.1536 28.5833 69.625 26.3438 71.5 24.4688C73.375 22.5677 75.5755 21.0964 78.1016 20.0547C80.6536 18.987 83.401 18.4531 86.3438 18.4531C89.4167 18.4531 92.2292 19.026 94.7812 20.1719C97.3594 21.2917 99.5729 22.8281 101.422 24.7812C103.271 26.7083 104.703 28.9609 105.719 31.5391C106.734 34.1172 107.242 36.8385 107.242 39.7031ZM164.078 20.2891C164.078 20.7578 163.922 21.1875 163.609 21.5781C163.323 21.9688 162.919 22.2031 162.398 22.2812C161.487 22.4896 160.576 22.6589 159.664 22.7891C158.753 22.8932 157.854 23.0104 156.969 23.1406L156.344 55.4844C157.255 55.4844 158.18 55.5104 159.117 55.5625C160.081 55.5885 161.018 55.6667 161.93 55.7969C162.503 55.849 162.945 56.0833 163.258 56.5C163.596 56.8906 163.766 57.3203 163.766 57.7891C163.766 58.4401 163.544 58.9479 163.102 59.3125C162.685 59.7031 162.242 59.8984 161.773 59.8984H161.539C160.471 59.7682 159.417 59.6771 158.375 59.625C157.359 59.5729 156.357 59.5469 155.367 59.5469C153.57 59.5469 151.786 59.638 150.016 59.8203C148.271 60.0026 146.539 60.2891 144.82 60.6797H144.391C143.844 60.6797 143.362 60.4714 142.945 60.0547C142.529 59.6641 142.32 59.2083 142.32 58.6875V58.6094L142.555 51.4609C140.914 54.4557 139 56.7474 136.812 58.3359C134.625 59.8984 132.19 60.6797 129.508 60.6797C127.815 60.6797 126.318 60.4062 125.016 59.8594C123.74 59.3125 122.607 58.5833 121.617 57.6719C120.654 56.7344 119.833 55.6667 119.156 54.4688C118.505 53.2448 117.971 51.9688 117.555 50.6406C117.164 49.2865 116.878 47.9193 116.695 46.5391C116.513 45.1589 116.422 43.8438 116.422 42.5938C116.422 39.1823 116.747 35.8359 117.398 32.5547C118.076 29.2734 119.078 26.1745 120.406 23.2578L113.375 23.0625C112.802 23.0104 112.32 22.8021 111.93 22.4375C111.565 22.0469 111.383 21.5651 111.383 20.9922C111.383 20.4714 111.578 20.0156 111.969 19.625C112.359 19.2083 112.854 19 113.453 19L123.766 19.2344C124.339 19.3125 124.807 19.5469 125.172 19.9375C125.562 20.3021 125.758 20.7578 125.758 21.3047C125.758 21.513 125.719 21.7083 125.641 21.8906C125.589 22.0469 125.523 22.2031 125.445 22.3594C124.951 22.8542 124.482 23.5964 124.039 24.5859C123.596 25.5755 123.193 26.7083 122.828 27.9844C122.464 29.2344 122.138 30.5755 121.852 32.0078C121.565 33.4141 121.318 34.7943 121.109 36.1484C120.901 37.4766 120.745 38.7135 120.641 39.8594C120.536 41.0052 120.484 41.9427 120.484 42.6719C120.484 44.2865 120.615 45.9271 120.875 47.5938C121.161 49.2344 121.643 50.7318 122.32 52.0859C122.997 53.4141 123.909 54.5078 125.055 55.3672C126.201 56.2005 127.659 56.6172 129.43 56.6172C131.018 56.6172 132.529 56.1615 133.961 55.25C135.393 54.3125 136.682 52.9844 137.828 51.2656C139 49.5469 140.016 47.4505 140.875 44.9766C141.76 42.5026 142.464 39.7161 142.984 36.6172L143.453 20.9141C143.453 20.3411 143.674 19.8854 144.117 19.5469C144.56 19.1823 145.029 19 145.523 19H145.758C146.643 19.1302 147.542 19.2214 148.453 19.2734C149.365 19.2995 150.315 19.3125 151.305 19.3125C152.893 19.3125 154.547 19.2344 156.266 19.0781C158.01 18.9219 159.82 18.6615 161.695 18.2969C161.747 18.2969 161.799 18.2839 161.852 18.2578C161.904 18.2318 161.956 18.2188 162.008 18.2188C162.607 18.2188 163.102 18.4401 163.492 18.8828C163.883 19.2995 164.078 19.7682 164.078 20.2891ZM204.195 39.625C203.232 39.625 202.32 39.4427 201.461 39.0781C200.628 38.7135 199.898 38.2188 199.273 37.5938C198.648 36.9688 198.154 36.2396 197.789 35.4062C197.424 34.5469 197.242 33.6354 197.242 32.6719C197.242 31.7083 197.424 30.8099 197.789 29.9766C198.154 29.1172 198.648 28.375 199.273 27.75C199.898 27.099 200.628 26.5911 201.461 26.2266C202.32 25.8359 203.232 25.6406 204.195 25.6406C204.326 25.6406 204.443 25.6536 204.547 25.6797C204.677 25.7057 204.807 25.7188 204.938 25.7188C204.26 25.1979 203.466 24.8073 202.555 24.5469C201.669 24.2604 200.641 24.1172 199.469 24.1172C197.984 24.1172 196.695 24.4297 195.602 25.0547C194.508 25.6536 193.57 26.4219 192.789 27.3594C192.034 28.2708 191.422 29.2734 190.953 30.3672C190.484 31.4349 190.107 32.4505 189.82 33.4141C189.56 34.3516 189.378 35.1589 189.273 35.8359C189.195 36.513 189.156 36.9036 189.156 37.0078L189.078 54.3516C189.99 54.4297 190.901 54.5469 191.812 54.7031C192.75 54.8594 193.701 55.0156 194.664 55.1719C195.159 55.3021 195.562 55.5625 195.875 55.9531C196.188 56.3177 196.344 56.7474 196.344 57.2422C196.344 57.8151 196.122 58.2969 195.68 58.6875C195.237 59.0521 194.768 59.2344 194.273 59.2344H193.883C191.773 58.8438 189.768 58.5443 187.867 58.3359C185.966 58.1276 184.078 58.0234 182.203 58.0234C180.328 58.0234 178.453 58.1276 176.578 58.3359C174.703 58.5443 172.711 58.8438 170.602 59.2344H170.211C169.612 59.2344 169.13 59.0391 168.766 58.6484C168.401 58.2318 168.219 57.763 168.219 57.2422C168.219 56.7474 168.362 56.3177 168.648 55.9531C168.935 55.5625 169.326 55.3021 169.82 55.1719C170.732 55.0156 171.643 54.8594 172.555 54.7031C173.466 54.5469 174.365 54.4297 175.25 54.3516V25.25C173.609 25.1719 172.229 25.0677 171.109 24.9375C169.99 24.8073 169.365 24.7161 169.234 24.6641C168.714 24.612 168.284 24.4036 167.945 24.0391C167.633 23.6484 167.477 23.1927 167.477 22.6719C167.477 22.0208 167.698 21.513 168.141 21.1484C168.609 20.7839 169.078 20.6016 169.547 20.6016H169.82C169.846 20.6276 170.146 20.6797 170.719 20.7578C171.292 20.8099 172.034 20.875 172.945 20.9531C173.857 21.0312 174.898 21.0964 176.07 21.1484C177.268 21.2005 178.479 21.2266 179.703 21.2266C180.953 21.2266 182.177 21.1875 183.375 21.1094C184.573 21.0312 185.68 20.888 186.695 20.6797C186.747 20.6276 186.878 20.6016 187.086 20.6016C187.685 20.6016 188.18 20.8229 188.57 21.2656C188.961 21.6823 189.156 22.151 189.156 22.6719V25.4844C190.276 23.9219 191.682 22.6328 193.375 21.6172C195.094 20.5755 197.125 20.0547 199.469 20.0547C201.24 20.1068 202.854 20.4193 204.312 20.9922C205.771 21.5391 207.021 22.3073 208.062 23.2969C209.13 24.2604 209.951 25.4323 210.523 26.8125C211.122 28.1667 211.422 29.6901 211.422 31.3828C211.422 32.4505 211.253 33.4792 210.914 34.4688C210.576 35.4583 210.094 36.3438 209.469 37.125C208.844 37.8802 208.076 38.4922 207.164 38.9609C206.279 39.4036 205.289 39.625 204.195 39.625ZM289.938 43.8047C289.938 46.6432 289.286 49.1823 287.984 51.4219C286.682 53.6354 285.003 55.5104 282.945 57.0469C280.888 58.5573 278.596 59.7161 276.07 60.5234C273.57 61.3307 271.096 61.7344 268.648 61.7344C264.065 61.7344 259.833 60.901 255.953 59.2344C252.073 57.5677 248.622 55.1198 245.602 51.8906V52.8281C245.602 53.6615 245.615 54.4818 245.641 55.2891C245.667 56.0964 245.706 56.9036 245.758 57.7109V57.8672C245.758 58.388 245.576 58.8438 245.211 59.2344C244.872 59.625 244.417 59.8464 243.844 59.8984C243.245 59.8984 242.75 59.7161 242.359 59.3516C241.969 58.987 241.747 58.5182 241.695 57.9453C241.643 57.112 241.604 56.2786 241.578 55.4453C241.552 54.5859 241.539 53.7396 241.539 52.9062C241.539 50.25 241.669 47.8021 241.93 45.5625C242.19 43.2969 242.542 41.0573 242.984 38.8438C243.115 38.349 243.349 37.9453 243.688 37.6328C244.052 37.3203 244.482 37.1641 244.977 37.1641C245.576 37.1641 246.07 37.3984 246.461 37.8672C246.852 38.3099 247.047 38.7656 247.047 39.2344C247.047 39.2865 247.047 39.3516 247.047 39.4297C247.047 39.4818 247.021 39.5469 246.969 39.625C246.839 40.224 246.721 40.7839 246.617 41.3047C246.539 41.7995 246.448 42.2943 246.344 42.7891C246.266 43.2578 246.188 43.7526 246.109 44.2734C246.057 44.7682 245.992 45.3281 245.914 45.9531C248.831 49.7031 252.164 52.5938 255.914 54.625C259.664 56.6302 263.883 57.6328 268.57 57.6328C269.898 57.6328 271.318 57.5156 272.828 57.2812C274.365 57.0469 275.771 56.6302 277.047 56.0312C278.349 55.4062 279.417 54.5859 280.25 53.5703C281.109 52.5286 281.539 51.2135 281.539 49.625C281.539 48.5052 281.24 47.4896 280.641 46.5781C280.042 45.6406 279.26 44.8073 278.297 44.0781C277.333 43.349 276.24 42.7109 275.016 42.1641C273.818 41.5911 272.607 41.0964 271.383 40.6797C270.159 40.263 268.987 39.9245 267.867 39.6641C266.773 39.3776 265.836 39.1562 265.055 39C263.206 38.6094 261.37 38.1797 259.547 37.7109C257.724 37.2161 255.992 36.6302 254.352 35.9531C252.711 35.276 251.188 34.4818 249.781 33.5703C248.375 32.6589 247.151 31.5911 246.109 30.3672C245.094 29.1172 244.286 27.6719 243.688 26.0312C243.115 24.3906 242.828 22.5026 242.828 20.3672C242.828 18.2839 243.102 16.3698 243.648 14.625C244.221 12.8542 245.003 11.2656 245.992 9.85938C246.982 8.45312 248.141 7.22917 249.469 6.1875C250.823 5.11979 252.294 4.23438 253.883 3.53125C255.471 2.80208 257.138 2.26823 258.883 1.92969C260.654 1.5651 262.438 1.38281 264.234 1.38281C265.328 1.38281 266.487 1.47396 267.711 1.65625C268.961 1.8125 270.198 2.04688 271.422 2.35938C272.646 2.64583 273.844 2.9974 275.016 3.41406C276.214 3.80469 277.32 4.2474 278.336 4.74219C279.352 5.21094 280.25 5.71875 281.031 6.26562C281.812 6.78646 282.438 7.32031 282.906 7.86719C283.271 6.8776 283.661 5.90104 284.078 4.9375C284.521 3.94792 284.977 2.95833 285.445 1.96875C285.654 1.60417 285.914 1.33073 286.227 1.14844C286.565 0.940104 286.917 0.835938 287.281 0.835938C287.88 0.835938 288.375 1.05729 288.766 1.5C289.156 1.91667 289.352 2.38542 289.352 2.90625C289.352 3.19271 289.273 3.49219 289.117 3.80469C287.763 6.61719 286.643 9.44271 285.758 12.2812C284.898 15.0938 284.286 17.9453 283.922 20.8359C283.87 21.3568 283.648 21.7865 283.258 22.125C282.893 22.4375 282.451 22.5938 281.93 22.5938C281.331 22.5938 280.836 22.3724 280.445 21.9297C280.055 21.487 279.859 21.0443 279.859 20.6016V20.3672C280.172 17.6068 280.732 14.8854 281.539 12.2031C281.383 11.7344 280.979 11.2396 280.328 10.7188C279.677 10.1719 278.87 9.65104 277.906 9.15625C276.969 8.66146 275.901 8.19271 274.703 7.75C273.505 7.28125 272.281 6.8776 271.031 6.53906C269.781 6.20052 268.531 5.92708 267.281 5.71875C266.031 5.51042 264.885 5.40625 263.844 5.40625C262.255 5.40625 260.732 5.57552 259.273 5.91406C257.815 6.2526 256.513 6.79948 255.367 7.55469C254.247 8.3099 253.336 9.28646 252.633 10.4844C251.93 11.6562 251.565 13.0755 251.539 14.7422C251.643 16.2005 252.034 17.4635 252.711 18.5312C253.414 19.5729 254.273 20.4844 255.289 21.2656C256.331 22.0469 257.503 22.7109 258.805 23.2578C260.107 23.7786 261.422 24.2344 262.75 24.625C264.104 24.9896 265.419 25.3151 266.695 25.6016C267.971 25.862 269.13 26.1094 270.172 26.3438C272.802 26.9688 275.315 27.6719 277.711 28.4531C280.107 29.2344 282.203 30.263 284 31.5391C285.823 32.8151 287.268 34.4427 288.336 36.4219C289.404 38.375 289.938 40.8359 289.938 43.8047ZM334.977 33.0625C334.898 33.5833 334.651 34.013 334.234 34.3516C333.844 34.6901 333.388 34.8594 332.867 34.8594C332.346 34.8594 331.891 34.6771 331.5 34.3125C331.135 33.9479 330.927 33.4792 330.875 32.9062C330.875 31.7865 330.641 30.6146 330.172 29.3906C329.703 28.1667 329.065 27.0469 328.258 26.0312C327.451 25.0156 326.526 24.1823 325.484 23.5312C324.443 22.8542 323.336 22.5156 322.164 22.5156C320.706 22.5156 319.417 22.8281 318.297 23.4531C317.177 24.0521 316.201 24.8594 315.367 25.875C314.534 26.8906 313.844 28.0495 313.297 29.3516C312.75 30.6536 312.307 31.9948 311.969 33.375C311.63 34.7292 311.383 36.0703 311.227 37.3984C311.096 38.7266 311.031 39.9245 311.031 40.9922C311.031 42.8151 311.227 44.638 311.617 46.4609C312.034 48.2839 312.659 49.9245 313.492 51.3828C314.326 52.8151 315.393 53.987 316.695 54.8984C317.997 55.8099 319.547 56.2656 321.344 56.2656C322.672 56.2656 323.922 55.9661 325.094 55.3672C326.266 54.7682 327.307 54 328.219 53.0625C329.156 52.099 329.951 51.0443 330.602 49.8984C331.253 48.7526 331.721 47.6328 332.008 46.5391C332.138 46.0443 332.372 45.6406 332.711 45.3281C333.076 45.0156 333.505 44.8594 334 44.8594C334.573 44.8594 335.055 45.0807 335.445 45.5234C335.862 45.9401 336.07 46.4089 336.07 46.9297C336.07 47.0859 336.044 47.2161 335.992 47.3203C335.81 48.1797 335.497 49.1172 335.055 50.1328C334.612 51.1484 334.026 52.1641 333.297 53.1797C332.594 54.1953 331.734 55.1849 330.719 56.1484C329.703 57.0859 328.544 57.9193 327.242 58.6484C325.94 59.3776 324.495 59.9635 322.906 60.4062C321.318 60.849 319.573 61.0703 317.672 61.0703C314.677 61.0703 311.917 60.5625 309.391 59.5469C306.865 58.5573 304.69 57.1641 302.867 55.3672C301.044 53.5443 299.612 51.3698 298.57 48.8438C297.555 46.2917 297.047 43.4922 297.047 40.4453C297.047 37.1641 297.49 34.1172 298.375 31.3047C299.286 28.4922 300.602 26.0573 302.32 24C304.065 21.9427 306.201 20.3281 308.727 19.1562C311.279 17.9844 314.208 17.3984 317.516 17.3984C320.484 17.3984 323.245 17.9974 325.797 19.1953C328.349 20.3672 330.445 22.138 332.086 24.5078L333.375 16.5391C333.453 16.0443 333.674 15.6406 334.039 15.3281C334.43 15.0156 334.872 14.8594 335.367 14.8594C336.018 14.8594 336.526 15.0807 336.891 15.5234C337.255 15.9661 337.438 16.4089 337.438 16.8516V17.1641L334.977 33.0625ZM380.758 39.7031C380.758 38.4271 380.615 37.138 380.328 35.8359C380.042 34.5339 379.625 33.2708 379.078 32.0469C378.531 30.8229 377.867 29.6771 377.086 28.6094C376.305 27.5417 375.419 26.6172 374.43 25.8359C373.466 25.0286 372.398 24.4036 371.227 23.9609C370.081 23.4922 368.857 23.2578 367.555 23.2578C366.096 23.2578 364.82 23.5052 363.727 24C362.659 24.4688 361.721 25.1198 360.914 25.9531C360.107 26.7604 359.443 27.6979 358.922 28.7656C358.401 29.8333 357.984 30.9661 357.672 32.1641C357.359 33.362 357.138 34.5729 357.008 35.7969C356.878 37.0208 356.812 38.1927 356.812 39.3125C356.812 40.4583 356.865 41.6823 356.969 42.9844C357.073 44.2604 357.255 45.5365 357.516 46.8125C357.776 48.0625 358.128 49.2734 358.57 50.4453C359.013 51.6172 359.586 52.6458 360.289 53.5312C360.992 54.4167 361.839 55.1198 362.828 55.6406C363.844 56.1615 365.042 56.4219 366.422 56.4219C368.688 56.4219 370.706 55.9531 372.477 55.0156C374.273 54.0521 375.784 52.7891 377.008 51.2266C378.232 49.6641 379.156 47.8802 379.781 45.875C380.432 43.8698 380.758 41.8125 380.758 39.7031ZM384.82 39.7031C384.82 42.8281 384.26 45.6927 383.141 48.2969C382.021 50.901 380.51 53.1406 378.609 55.0156C376.708 56.8646 374.482 58.3099 371.93 59.3516C369.404 60.3932 366.734 60.9141 363.922 60.9141C360.745 60.9141 357.867 60.4062 355.289 59.3906C352.737 58.401 350.549 56.9818 348.727 55.1328C346.904 53.2839 345.497 51.0573 344.508 48.4531C343.544 45.849 343.062 42.9323 343.062 39.7031C343.062 36.6302 343.596 33.7917 344.664 31.1875C345.732 28.5833 347.203 26.3438 349.078 24.4688C350.953 22.5677 353.154 21.0964 355.68 20.0547C358.232 18.987 360.979 18.4531 363.922 18.4531C366.995 18.4531 369.807 19.026 372.359 20.1719C374.938 21.2917 377.151 22.8281 379 24.7812C380.849 26.7083 382.281 28.9609 383.297 31.5391C384.312 34.1172 384.82 36.8385 384.82 39.7031ZM426.617 39.625C425.654 39.625 424.742 39.4427 423.883 39.0781C423.049 38.7135 422.32 38.2188 421.695 37.5938C421.07 36.9688 420.576 36.2396 420.211 35.4062C419.846 34.5469 419.664 33.6354 419.664 32.6719C419.664 31.7083 419.846 30.8099 420.211 29.9766C420.576 29.1172 421.07 28.375 421.695 27.75C422.32 27.099 423.049 26.5911 423.883 26.2266C424.742 25.8359 425.654 25.6406 426.617 25.6406C426.747 25.6406 426.865 25.6536 426.969 25.6797C427.099 25.7057 427.229 25.7188 427.359 25.7188C426.682 25.1979 425.888 24.8073 424.977 24.5469C424.091 24.2604 423.062 24.1172 421.891 24.1172C420.406 24.1172 419.117 24.4297 418.023 25.0547C416.93 25.6536 415.992 26.4219 415.211 27.3594C414.456 28.2708 413.844 29.2734 413.375 30.3672C412.906 31.4349 412.529 32.4505 412.242 33.4141C411.982 34.3516 411.799 35.1589 411.695 35.8359C411.617 36.513 411.578 36.9036 411.578 37.0078L411.5 54.3516C412.411 54.4297 413.323 54.5469 414.234 54.7031C415.172 54.8594 416.122 55.0156 417.086 55.1719C417.581 55.3021 417.984 55.5625 418.297 55.9531C418.609 56.3177 418.766 56.7474 418.766 57.2422C418.766 57.8151 418.544 58.2969 418.102 58.6875C417.659 59.0521 417.19 59.2344 416.695 59.2344H416.305C414.195 58.8438 412.19 58.5443 410.289 58.3359C408.388 58.1276 406.5 58.0234 404.625 58.0234C402.75 58.0234 400.875 58.1276 399 58.3359C397.125 58.5443 395.133 58.8438 393.023 59.2344H392.633C392.034 59.2344 391.552 59.0391 391.188 58.6484C390.823 58.2318 390.641 57.763 390.641 57.2422C390.641 56.7474 390.784 56.3177 391.07 55.9531C391.357 55.5625 391.747 55.3021 392.242 55.1719C393.154 55.0156 394.065 54.8594 394.977 54.7031C395.888 54.5469 396.786 54.4297 397.672 54.3516V25.25C396.031 25.1719 394.651 25.0677 393.531 24.9375C392.411 24.8073 391.786 24.7161 391.656 24.6641C391.135 24.612 390.706 24.4036 390.367 24.0391C390.055 23.6484 389.898 23.1927 389.898 22.6719C389.898 22.0208 390.12 21.513 390.562 21.1484C391.031 20.7839 391.5 20.6016 391.969 20.6016H392.242C392.268 20.6276 392.568 20.6797 393.141 20.7578C393.714 20.8099 394.456 20.875 395.367 20.9531C396.279 21.0312 397.32 21.0964 398.492 21.1484C399.69 21.2005 400.901 21.2266 402.125 21.2266C403.375 21.2266 404.599 21.1875 405.797 21.1094C406.995 21.0312 408.102 20.888 409.117 20.6797C409.169 20.6276 409.299 20.6016 409.508 20.6016C410.107 20.6016 410.602 20.8229 410.992 21.2656C411.383 21.6823 411.578 22.151 411.578 22.6719V25.4844C412.698 23.9219 414.104 22.6328 415.797 21.6172C417.516 20.5755 419.547 20.0547 421.891 20.0547C423.661 20.1068 425.276 20.4193 426.734 20.9922C428.193 21.5391 429.443 22.3073 430.484 23.2969C431.552 24.2604 432.372 25.4323 432.945 26.8125C433.544 28.1667 433.844 29.6901 433.844 31.3828C433.844 32.4505 433.674 33.4792 433.336 34.4688C432.997 35.4583 432.516 36.3438 431.891 37.125C431.266 37.8802 430.497 38.4922 429.586 38.9609C428.701 39.4036 427.711 39.625 426.617 39.625ZM473.336 38.375V37.7109C473.336 35.7578 473.128 33.9479 472.711 32.2812C472.294 30.6146 471.63 29.1432 470.719 27.8672C469.833 26.5651 468.688 25.4974 467.281 24.6641C465.875 23.8307 464.182 23.2708 462.203 22.9844C460.823 23.1406 459.625 23.5182 458.609 24.1172C457.594 24.7161 456.721 25.4583 455.992 26.3438C455.289 27.2031 454.703 28.1797 454.234 29.2734C453.766 30.3672 453.388 31.5 453.102 32.6719C452.841 33.8177 452.646 34.9766 452.516 36.1484C452.385 37.2943 452.307 38.375 452.281 39.3906C452.698 39.5208 453.219 39.6641 453.844 39.8203C454.495 39.9766 455.224 40.1328 456.031 40.2891C456.839 40.4193 457.711 40.5365 458.648 40.6406C459.612 40.7188 460.615 40.7578 461.656 40.7578C463.87 40.7578 465.94 40.5495 467.867 40.1328C469.82 39.7161 471.643 39.1302 473.336 38.375ZM477.32 39.8984C477.242 40.5755 476.878 41.1615 476.227 41.6562C475.576 42.151 474.755 42.5938 473.766 42.9844C472.776 43.349 471.682 43.6615 470.484 43.9219C469.312 44.1562 468.154 44.3516 467.008 44.5078C465.862 44.6641 464.807 44.7812 463.844 44.8594C462.88 44.9115 462.125 44.9375 461.578 44.9375C459.677 44.9375 457.919 44.8073 456.305 44.5469C454.716 44.2865 453.401 44.013 452.359 43.7266C452.516 45.3411 452.815 46.9297 453.258 48.4922C453.701 50.0547 454.339 51.4609 455.172 52.7109C456.005 53.9349 457.047 54.9375 458.297 55.7188C459.547 56.474 461.057 56.8516 462.828 56.8516C463.479 56.8516 464.221 56.7734 465.055 56.6172C465.888 56.4349 466.708 56.1875 467.516 55.875C468.323 55.5365 469.065 55.1458 469.742 54.7031C470.419 54.2344 470.953 53.7135 471.344 53.1406C471.786 52.6198 472.32 52.3594 472.945 52.3594C473.492 52.3594 473.974 52.5807 474.391 53.0234C474.807 53.4401 475.016 53.9089 475.016 54.4297C475.016 54.9766 474.846 55.4062 474.508 55.7188C473.883 56.6823 473.01 57.5026 471.891 58.1797C470.771 58.8568 469.56 59.4036 468.258 59.8203C466.956 60.263 465.641 60.5755 464.312 60.7578C462.984 60.9661 461.773 61.0703 460.68 61.0703C457.555 61.0703 454.651 60.5104 451.969 59.3906C449.286 58.2969 446.956 56.7865 444.977 54.8594C442.997 52.9323 441.435 50.6667 440.289 48.0625C439.169 45.4583 438.609 42.6458 438.609 39.625C438.609 36.3177 439.104 33.375 440.094 30.7969C441.083 28.1927 442.49 26.0052 444.312 24.2344C446.135 22.4375 448.349 21.0833 450.953 20.1719C453.557 19.2344 456.487 18.7656 459.742 18.7656C462.815 18.8958 465.458 19.4167 467.672 20.3281C469.911 21.2396 471.747 22.5026 473.18 24.1172C474.612 25.7318 475.667 27.6849 476.344 29.9766C477.047 32.2422 477.398 34.7943 477.398 37.6328C477.398 38.2839 477.385 38.8047 477.359 39.1953C477.333 39.5599 477.32 39.7943 477.32 39.8984ZM522.984 47.8672C522.984 49.3516 522.724 50.7188 522.203 51.9688C521.682 53.1927 520.979 54.3125 520.094 55.3281C519.208 56.3177 518.18 57.1901 517.008 57.9453C515.862 58.6745 514.638 59.2865 513.336 59.7812C512.06 60.3021 510.758 60.6797 509.43 60.9141C508.102 61.1745 506.826 61.3047 505.602 61.3047C502.294 61.3047 499.182 60.8099 496.266 59.8203C493.349 58.8568 490.706 57.3594 488.336 55.3281C488.336 55.7708 488.336 56.2135 488.336 56.6562C488.336 57.0729 488.362 57.4766 488.414 57.8672V58.0234C488.414 58.5443 488.232 59.013 487.867 59.4297C487.529 59.8464 487.099 60.0547 486.578 60.0547C485.979 60.0547 485.458 59.8724 485.016 59.5078C484.599 59.1693 484.365 58.7396 484.312 58.2188C484.26 57.6979 484.234 57.1771 484.234 56.6562C484.234 56.1094 484.234 55.5625 484.234 55.0156C484.234 54.0521 484.247 53.1016 484.273 52.1641C484.326 51.2266 484.378 50.3932 484.43 49.6641C484.482 48.9089 484.521 48.2969 484.547 47.8281C484.599 47.3333 484.638 47.0599 484.664 47.0078C484.716 46.487 484.924 46.0573 485.289 45.7188C485.68 45.3542 486.135 45.1719 486.656 45.1719C487.307 45.1719 487.815 45.3802 488.18 45.7969C488.544 46.2135 488.727 46.6693 488.727 47.1641V47.3984C488.701 47.6068 488.674 47.8411 488.648 48.1016C488.622 48.3099 488.596 48.5703 488.57 48.8828C488.544 49.1953 488.518 49.5339 488.492 49.8984C490.862 52.4245 493.466 54.2734 496.305 55.4453C499.169 56.5911 502.268 57.1641 505.602 57.1641C505.992 57.1641 506.5 57.138 507.125 57.0859C507.75 57.0339 508.401 56.9557 509.078 56.8516C509.781 56.7214 510.484 56.5651 511.188 56.3828C511.891 56.1745 512.516 55.9271 513.062 55.6406C513.635 55.3281 514.091 54.9635 514.43 54.5469C514.794 54.1302 514.977 53.6354 514.977 53.0625C514.977 52.4896 514.716 51.9818 514.195 51.5391C513.701 51.0703 513.062 50.6536 512.281 50.2891C511.5 49.9245 510.628 49.612 509.664 49.3516C508.727 49.0911 507.802 48.8698 506.891 48.6875C506.005 48.5052 505.198 48.362 504.469 48.2578C503.766 48.1536 503.245 48.0755 502.906 48.0234C500.667 47.7891 498.453 47.3594 496.266 46.7344C494.104 46.0833 492.151 45.1979 490.406 44.0781C488.661 42.9583 487.255 41.5781 486.188 39.9375C485.12 38.2969 484.586 36.3568 484.586 34.1172C484.586 31.8255 485.055 29.7682 485.992 27.9453C486.93 26.0964 488.154 24.5339 489.664 23.2578C491.201 21.9818 492.945 21.0052 494.898 20.3281C496.878 19.651 498.896 19.3125 500.953 19.3125C503.661 19.3125 506.227 19.651 508.648 20.3281C511.096 20.9792 513.336 22.0078 515.367 23.4141C515.602 22.8411 515.875 22.2682 516.188 21.6953C516.5 21.0964 516.812 20.5234 517.125 19.9766C517.333 19.638 517.594 19.3906 517.906 19.2344C518.245 19.0781 518.57 19 518.883 19C519.482 19 519.977 19.2083 520.367 19.625C520.758 20.0156 520.953 20.4714 520.953 20.9922C520.953 21.4089 520.849 21.7604 520.641 22.0469C519.651 23.8177 518.818 25.6146 518.141 27.4375C517.49 29.2344 517.047 31.0573 516.812 32.9062C516.734 33.401 516.5 33.8177 516.109 34.1562C515.719 34.4948 515.263 34.6641 514.742 34.6641C514.169 34.6641 513.688 34.4557 513.297 34.0391C512.906 33.5964 512.711 33.1146 512.711 32.5938V32.2812C512.997 30.6667 513.375 29.0391 513.844 27.3984C511.969 25.9141 509.924 24.8854 507.711 24.3125C505.497 23.7135 503.245 23.4141 500.953 23.4141C500.172 23.4141 499.352 23.5052 498.492 23.6875C497.633 23.8438 496.826 24.1172 496.07 24.5078C495.341 24.8724 494.729 25.3672 494.234 25.9922C493.766 26.6172 493.531 27.3854 493.531 28.2969C493.531 29.1042 493.792 29.8203 494.312 30.4453C494.833 31.0443 495.497 31.5781 496.305 32.0469C497.112 32.5156 498.01 32.9193 499 33.2578C500.016 33.5964 501.005 33.8828 501.969 34.1172C502.958 34.3516 503.87 34.5469 504.703 34.7031C505.562 34.8594 506.24 34.9896 506.734 35.0938C508.557 35.4583 510.419 35.9401 512.32 36.5391C514.247 37.112 515.992 37.8932 517.555 38.8828C519.143 39.8464 520.445 41.0573 521.461 42.5156C522.477 43.974 522.984 45.7578 522.984 47.8672Z" fill="black"/>
</svg>
