<svg width="409" height="111" viewBox="0 0 409 111" fill="none" xmlns="http://www.w3.org/2000/svg">
<rect x="1.5" y="1.5" width="406" height="108" rx="28.5" fill="white" stroke="black" stroke-width="3"/>
<path d="M223.795 63.4526C223.795 65.0493 223.429 66.4775 222.696 67.7373C221.964 68.9824 221.019 70.0371 219.862 70.9014C218.705 71.751 217.416 72.4028 215.995 72.8569C214.588 73.311 213.197 73.5381 211.82 73.5381C209.242 73.5381 206.861 73.0693 204.679 72.1318C202.496 71.1943 200.555 69.8174 198.856 68.001V68.5283C198.856 68.9971 198.863 69.4585 198.878 69.9126C198.893 70.3667 198.915 70.8208 198.944 71.2749V71.3628C198.944 71.6558 198.841 71.9121 198.636 72.1318C198.446 72.3516 198.189 72.4761 197.867 72.5054C197.53 72.5054 197.252 72.4028 197.032 72.1978C196.812 71.9927 196.688 71.729 196.659 71.4067C196.629 70.938 196.607 70.4692 196.593 70.0005C196.578 69.5171 196.571 69.041 196.571 68.5723C196.571 67.0781 196.644 65.7012 196.791 64.4414C196.937 63.167 197.135 61.9072 197.384 60.6621C197.457 60.3838 197.589 60.1567 197.779 59.981C197.984 59.8052 198.226 59.7173 198.504 59.7173C198.841 59.7173 199.12 59.8491 199.339 60.1128C199.559 60.3618 199.669 60.6182 199.669 60.8818C199.669 60.9111 199.669 60.9478 199.669 60.9917C199.669 61.021 199.654 61.0576 199.625 61.1016C199.552 61.4385 199.486 61.7534 199.427 62.0464C199.383 62.3247 199.332 62.603 199.273 62.8813C199.229 63.145 199.186 63.4233 199.142 63.7163C199.112 63.9946 199.076 64.3096 199.032 64.6611C200.672 66.7705 202.547 68.3965 204.657 69.5391C206.766 70.667 209.139 71.231 211.776 71.231C212.523 71.231 213.321 71.165 214.171 71.0332C215.035 70.9014 215.826 70.667 216.544 70.3301C217.276 69.9785 217.877 69.5171 218.346 68.9458C218.829 68.3599 219.071 67.6201 219.071 66.7266C219.071 66.0967 218.902 65.5254 218.565 65.0127C218.229 64.4854 217.789 64.0166 217.247 63.6064C216.705 63.1963 216.09 62.8374 215.401 62.5298C214.728 62.2075 214.046 61.9292 213.358 61.6948C212.669 61.4604 212.01 61.27 211.38 61.1235C210.765 60.9624 210.238 60.8379 209.798 60.75C208.758 60.5303 207.726 60.2886 206.7 60.0249C205.675 59.7466 204.701 59.417 203.778 59.0361C202.855 58.6553 201.998 58.2085 201.207 57.6958C200.416 57.1831 199.728 56.5825 199.142 55.894C198.57 55.1909 198.116 54.3779 197.779 53.4551C197.457 52.5322 197.296 51.4702 197.296 50.269C197.296 49.0972 197.45 48.0205 197.757 47.0391C198.08 46.043 198.519 45.1494 199.076 44.3584C199.632 43.5674 200.284 42.8789 201.031 42.293C201.793 41.6924 202.621 41.1943 203.514 40.7988C204.408 40.3887 205.345 40.0884 206.327 39.8979C207.323 39.6929 208.326 39.5903 209.337 39.5903C209.952 39.5903 210.604 39.6416 211.292 39.7441C211.996 39.832 212.691 39.9639 213.38 40.1396C214.068 40.3008 214.742 40.4985 215.401 40.7329C216.075 40.9526 216.698 41.2017 217.269 41.48C217.84 41.7437 218.346 42.0293 218.785 42.3369C219.225 42.6299 219.576 42.9302 219.84 43.2378C220.045 42.6812 220.265 42.1318 220.499 41.5898C220.748 41.0332 221.004 40.4766 221.268 39.9199C221.385 39.7148 221.532 39.561 221.708 39.4585C221.898 39.3413 222.096 39.2827 222.301 39.2827C222.638 39.2827 222.916 39.4072 223.136 39.6562C223.355 39.8906 223.465 40.1543 223.465 40.4473C223.465 40.6084 223.421 40.7769 223.333 40.9526C222.572 42.5347 221.942 44.124 221.444 45.7207C220.96 47.3027 220.616 48.9067 220.411 50.5327C220.382 50.8257 220.257 51.0674 220.038 51.2578C219.833 51.4336 219.583 51.5215 219.291 51.5215C218.954 51.5215 218.675 51.397 218.456 51.1479C218.236 50.8989 218.126 50.6499 218.126 50.4009V50.269C218.302 48.7163 218.617 47.1855 219.071 45.6768C218.983 45.4131 218.756 45.1348 218.39 44.8418C218.023 44.5342 217.569 44.2412 217.027 43.9629C216.5 43.6846 215.899 43.4209 215.226 43.1719C214.552 42.9082 213.863 42.6812 213.16 42.4907C212.457 42.3003 211.754 42.1465 211.051 42.0293C210.348 41.9121 209.703 41.8535 209.117 41.8535C208.224 41.8535 207.367 41.9487 206.546 42.1392C205.726 42.3296 204.994 42.6372 204.349 43.062C203.719 43.4868 203.207 44.0361 202.811 44.71C202.416 45.3691 202.21 46.1675 202.196 47.105C202.254 47.9253 202.474 48.6357 202.855 49.2363C203.25 49.8223 203.734 50.335 204.305 50.7744C204.891 51.2139 205.55 51.5874 206.283 51.895C207.015 52.188 207.755 52.4443 208.502 52.6641C209.264 52.8691 210.003 53.0522 210.721 53.2134C211.439 53.3599 212.091 53.499 212.677 53.6309C214.156 53.9824 215.57 54.3779 216.917 54.8174C218.265 55.2568 219.444 55.8354 220.455 56.5532C221.48 57.271 222.293 58.1865 222.894 59.2998C223.495 60.3984 223.795 61.7827 223.795 63.4526ZM242.604 64.3096C242.574 64.0605 242.552 63.8042 242.538 63.5405C242.523 63.2769 242.516 63.0059 242.516 62.7275H241.703C241.117 62.7275 240.421 62.7715 239.615 62.8594C238.824 62.9473 238.004 63.0864 237.154 63.2769C236.305 63.4673 235.462 63.7236 234.627 64.0459C233.792 64.3535 233.045 64.7344 232.386 65.1885C231.727 65.6279 231.192 66.1479 230.782 66.7485C230.387 67.3491 230.189 68.0376 230.189 68.814C230.189 69.2241 230.284 69.5757 230.475 69.8687C230.68 70.1616 230.929 70.4033 231.222 70.5938C231.529 70.7695 231.866 70.9014 232.232 70.9893C232.599 71.0625 232.95 71.0991 233.287 71.0991C234.327 71.0991 235.309 70.9014 236.231 70.5059C237.169 70.0957 238.033 69.5684 238.824 68.9238C239.615 68.2646 240.326 67.5322 240.956 66.7266C241.585 65.9209 242.135 65.1152 242.604 64.3096ZM253.128 71.9121H253.041C252.792 71.8828 252.535 71.8682 252.271 71.8682C252.008 71.8682 251.751 71.8682 251.502 71.8682C250.125 71.8682 248.8 71.9561 247.525 72.1318C246.266 72.3076 244.999 72.5786 243.724 72.9448C243.68 72.9448 243.636 72.9521 243.592 72.9668C243.548 72.9814 243.49 72.9888 243.417 72.9888C243.08 72.9888 242.801 72.8569 242.582 72.5933C242.376 72.3442 242.274 72.0879 242.274 71.8242V71.6484C242.274 71.6191 242.311 71.3262 242.384 70.7695C242.457 70.1982 242.53 69.4072 242.604 68.3965C241.974 69.0996 241.3 69.7588 240.582 70.374C239.879 70.9746 239.132 71.502 238.341 71.9561C237.564 72.3955 236.759 72.7397 235.924 72.9888C235.089 73.2524 234.225 73.3843 233.331 73.3843C232.628 73.3843 231.947 73.2744 231.288 73.0547C230.628 72.8496 230.042 72.5493 229.53 72.1538C229.032 71.7583 228.629 71.2822 228.321 70.7256C228.028 70.1543 227.882 69.5171 227.882 68.814C227.882 67.7153 228.116 66.7485 228.585 65.9136C229.068 65.0786 229.698 64.3535 230.475 63.7383C231.251 63.1084 232.13 62.5884 233.111 62.1782C234.107 61.7534 235.118 61.4165 236.144 61.1675C237.169 60.9038 238.165 60.7207 239.132 60.6182C240.099 60.501 240.956 60.4424 241.703 60.4424H242.23C242.23 59.5488 242.069 58.6772 241.747 57.8276C241.439 56.978 241 56.2236 240.428 55.5645C239.872 54.9053 239.205 54.3779 238.429 53.9824C237.652 53.5723 236.795 53.3672 235.858 53.3672C235.169 53.3672 234.496 53.5649 233.836 53.9604C233.177 54.3413 232.591 54.832 232.079 55.4326C231.566 56.0332 231.148 56.707 230.826 57.4541C230.519 58.2012 230.365 58.9263 230.365 59.6294C230.365 59.9224 230.24 60.1714 229.991 60.3765C229.757 60.5669 229.493 60.6621 229.2 60.6621C228.878 60.6621 228.6 60.5449 228.365 60.3105C228.131 60.0615 228.014 59.7905 228.014 59.4976C228.014 58.7944 228.138 58.062 228.387 57.3003C228.636 56.5239 228.995 55.7695 229.464 55.0371C229.947 54.29 230.526 53.5869 231.2 52.9277C231.888 52.2686 232.665 51.6899 233.529 51.1919C234.408 50.6792 235.367 50.2764 236.407 49.9834C237.447 49.6904 238.553 49.5439 239.725 49.5439C241.366 49.5439 242.765 49.8003 243.922 50.313C245.094 50.8257 246.068 51.5215 246.844 52.4004C247.635 53.2793 248.258 54.2974 248.712 55.4546C249.166 56.6118 249.51 57.835 249.745 59.124C249.979 60.4131 250.125 61.7241 250.184 63.0571C250.257 64.3901 250.294 65.6646 250.294 66.8804C250.294 67.4956 250.287 68.0229 250.272 68.4624C250.257 68.9019 250.25 69.2681 250.25 69.561C250.47 69.561 250.689 69.5537 250.909 69.5391C251.144 69.5244 251.371 69.5171 251.59 69.5171C251.839 69.5171 252.096 69.5244 252.359 69.5391C252.638 69.5537 252.909 69.561 253.172 69.561C253.495 69.5903 253.751 69.7148 253.941 69.9346C254.146 70.1543 254.249 70.4253 254.249 70.7476C254.249 71.0552 254.139 71.3262 253.919 71.5605C253.714 71.7949 253.451 71.9121 253.128 71.9121ZM281.539 50.2251C281.539 50.4888 281.458 50.7231 281.297 50.9282C281.136 51.1333 280.917 51.2725 280.638 51.3457C280.14 51.4629 279.671 51.5581 279.232 51.6313C278.792 51.6899 278.36 51.7412 277.936 51.7852C277.584 53.3672 277.079 55.0591 276.419 56.8608C275.775 58.6479 275.021 60.4717 274.156 62.332C273.292 64.1777 272.34 66.0088 271.3 67.8252C270.274 69.6416 269.19 71.3628 268.048 72.9888C267.96 73.1206 267.835 73.2378 267.674 73.3403C267.528 73.4429 267.367 73.4941 267.191 73.4941C266.986 73.4941 266.81 73.4575 266.664 73.3843C266.532 73.3257 266.407 73.2378 266.29 73.1206C265.367 72.1685 264.393 71.0186 263.368 69.6709C262.357 68.3232 261.368 66.7705 260.401 65.0127C259.449 63.2402 258.57 61.2407 257.765 59.0142C256.974 56.7876 256.336 54.3193 255.853 51.6094C255.531 51.5654 255.208 51.5288 254.886 51.4995C254.579 51.4702 254.271 51.4189 253.963 51.3457C253.67 51.3018 253.429 51.1772 253.238 50.9722C253.062 50.7671 252.975 50.5181 252.975 50.2251C252.975 49.8442 253.106 49.5586 253.37 49.3682C253.634 49.1631 253.89 49.0605 254.139 49.0605C254.168 49.0605 254.19 49.0679 254.205 49.0825C254.234 49.0972 254.271 49.1045 254.315 49.1045C255.267 49.2363 256.19 49.3462 257.083 49.4341C257.992 49.5073 258.9 49.5439 259.808 49.5439C260.716 49.5439 261.603 49.5073 262.467 49.4341C263.346 49.3462 264.217 49.2363 265.082 49.1045C265.125 49.1045 265.155 49.0972 265.169 49.0825C265.199 49.0679 265.228 49.0605 265.257 49.0605C265.594 49.0605 265.873 49.1777 266.092 49.4121C266.312 49.6318 266.422 49.9028 266.422 50.2251C266.422 50.4888 266.334 50.7305 266.158 50.9502C265.982 51.1699 265.755 51.3018 265.477 51.3457C264.847 51.4775 264.203 51.5654 263.543 51.6094C263.675 52.2686 263.902 53.1475 264.225 54.2461C264.547 55.3447 264.979 56.5825 265.521 57.9595C265.843 58.7798 266.195 59.5781 266.576 60.3545C266.971 61.1309 267.359 61.8633 267.74 62.5518C268.136 63.2256 268.509 63.8408 268.861 64.3975C269.227 64.9541 269.542 65.4302 269.806 65.8257C270.465 64.6392 271.087 63.438 271.673 62.2222C272.259 60.9917 272.794 59.7832 273.277 58.5967C273.775 57.3955 274.215 56.2236 274.596 55.0811C274.977 53.9385 275.299 52.8398 275.562 51.7852C275.138 51.7412 274.698 51.6899 274.244 51.6313C273.79 51.5581 273.314 51.4629 272.816 51.3457C272.538 51.3018 272.311 51.1699 272.135 50.9502C271.959 50.7305 271.871 50.4888 271.871 50.2251C271.871 49.8882 271.996 49.6099 272.245 49.3901C272.508 49.1704 272.772 49.0605 273.036 49.0605C273.08 49.0605 273.116 49.0679 273.146 49.0825C273.175 49.0972 273.211 49.1045 273.255 49.1045C273.944 49.2363 274.566 49.3389 275.123 49.4121C275.68 49.4707 276.229 49.5 276.771 49.5C277.313 49.5 277.848 49.4707 278.375 49.4121C278.917 49.3389 279.496 49.2363 280.111 49.1045C280.155 49.1045 280.199 49.0972 280.243 49.0825C280.287 49.0679 280.331 49.0605 280.375 49.0605C280.697 49.0605 280.968 49.1851 281.188 49.4341C281.422 49.6685 281.539 49.9321 281.539 50.2251ZM302.215 60.3984V60.0249C302.215 58.9263 302.098 57.9082 301.864 56.9707C301.629 56.0332 301.256 55.2056 300.743 54.4878C300.245 53.7554 299.601 53.1548 298.81 52.686C298.019 52.2173 297.066 51.9023 295.953 51.7412C295.177 51.8291 294.503 52.0415 293.932 52.3784C293.36 52.7153 292.87 53.1328 292.459 53.6309C292.064 54.1143 291.734 54.6636 291.471 55.2788C291.207 55.894 290.995 56.5312 290.833 57.1904C290.687 57.835 290.577 58.4868 290.504 59.146C290.431 59.7905 290.387 60.3984 290.372 60.9697C290.606 61.043 290.899 61.1235 291.251 61.2114C291.617 61.2993 292.027 61.3872 292.481 61.4751C292.936 61.5483 293.426 61.6143 293.954 61.6729C294.496 61.7168 295.06 61.7388 295.646 61.7388C296.891 61.7388 298.055 61.6216 299.139 61.3872C300.238 61.1528 301.263 60.8232 302.215 60.3984ZM304.457 61.2554C304.413 61.6362 304.208 61.9658 303.841 62.2441C303.475 62.5225 303.014 62.7715 302.457 62.9912C301.9 63.1963 301.285 63.3721 300.611 63.5186C299.952 63.6504 299.3 63.7603 298.656 63.8481C298.011 63.936 297.418 64.002 296.876 64.0459C296.334 64.0752 295.909 64.0898 295.602 64.0898C294.532 64.0898 293.543 64.0166 292.635 63.8701C291.742 63.7236 291.002 63.5698 290.416 63.4087C290.504 64.3169 290.672 65.2104 290.921 66.0894C291.17 66.9683 291.529 67.7593 291.998 68.4624C292.467 69.1509 293.053 69.7148 293.756 70.1543C294.459 70.5791 295.309 70.7915 296.305 70.7915C296.671 70.7915 297.088 70.7476 297.557 70.6597C298.026 70.5571 298.487 70.418 298.941 70.2422C299.396 70.0518 299.813 69.832 300.194 69.583C300.575 69.3193 300.875 69.0264 301.095 68.7041C301.344 68.4111 301.644 68.2646 301.996 68.2646C302.303 68.2646 302.574 68.3892 302.809 68.6382C303.043 68.8726 303.16 69.1362 303.16 69.4292C303.16 69.7368 303.065 69.9785 302.875 70.1543C302.523 70.6963 302.032 71.1577 301.402 71.5386C300.772 71.9194 300.091 72.2271 299.359 72.4614C298.626 72.7104 297.887 72.8862 297.14 72.9888C296.393 73.106 295.711 73.1646 295.096 73.1646C293.338 73.1646 291.705 72.8496 290.196 72.2197C288.688 71.6045 287.376 70.7549 286.263 69.6709C285.15 68.5869 284.271 67.3125 283.626 65.8477C282.997 64.3828 282.682 62.8008 282.682 61.1016C282.682 59.2412 282.96 57.5859 283.517 56.1357C284.073 54.6709 284.864 53.4404 285.89 52.4443C286.915 51.4336 288.16 50.6719 289.625 50.1592C291.09 49.6318 292.738 49.3682 294.569 49.3682C296.297 49.4414 297.784 49.7344 299.029 50.2471C300.289 50.7598 301.322 51.4702 302.127 52.3784C302.933 53.2866 303.526 54.3853 303.907 55.6743C304.303 56.9487 304.5 58.3843 304.5 59.981C304.5 60.3472 304.493 60.6401 304.479 60.8599C304.464 61.0649 304.457 61.1968 304.457 61.2554Z" fill="black"/>
<path d="M179.296 58C179.296 76.4659 163.932 91.5 144.898 91.5C125.865 91.5 110.5 76.4659 110.5 58C110.5 39.5341 125.865 24.5 144.898 24.5C163.932 24.5 179.296 39.5341 179.296 58Z" fill="white" stroke="black" stroke-width="3"/>
<path d="M137.567 71.4501L125.542 59.247C124.819 58.5138 124.819 57.3251 125.542 56.5919L128.158 53.9369C128.881 53.2036 130.052 53.2036 130.774 53.9369L138.875 62.1574L156.226 44.5499C156.948 43.8167 158.119 43.8167 158.842 44.5499L161.458 47.2049C162.181 47.9381 162.181 49.1268 161.458 49.86L140.183 71.4502C139.461 72.1833 138.289 72.1833 137.567 71.4501Z" fill="black"/>
</svg>
