<svg width="409" height="111" viewBox="0 0 409 111" fill="none" xmlns="http://www.w3.org/2000/svg">
<rect x="1.5" y="1.5" width="406" height="108" rx="28.5" fill="white" stroke="black" stroke-width="3"/>
<path d="M205.795 65.4526C205.795 67.0493 205.429 68.4775 204.696 69.7373C203.964 70.9824 203.019 72.0371 201.862 72.9014C200.705 73.751 199.416 74.4028 197.995 74.8569C196.588 75.311 195.197 75.5381 193.82 75.5381C191.242 75.5381 188.861 75.0693 186.679 74.1318C184.496 73.1943 182.555 71.8174 180.856 70.001V70.5283C180.856 70.9971 180.863 71.4585 180.878 71.9126C180.893 72.3667 180.915 72.8208 180.944 73.2749V73.3628C180.944 73.6558 180.841 73.9121 180.636 74.1318C180.446 74.3516 180.189 74.4761 179.867 74.5054C179.53 74.5054 179.252 74.4028 179.032 74.1978C178.812 73.9927 178.688 73.729 178.659 73.4067C178.629 72.938 178.607 72.4692 178.593 72.0005C178.578 71.5171 178.571 71.041 178.571 70.5723C178.571 69.0781 178.644 67.7012 178.791 66.4414C178.937 65.167 179.135 63.9072 179.384 62.6621C179.457 62.3838 179.589 62.1567 179.779 61.981C179.984 61.8052 180.226 61.7173 180.504 61.7173C180.841 61.7173 181.12 61.8491 181.339 62.1128C181.559 62.3618 181.669 62.6182 181.669 62.8818C181.669 62.9111 181.669 62.9478 181.669 62.9917C181.669 63.021 181.654 63.0576 181.625 63.1016C181.552 63.4385 181.486 63.7534 181.427 64.0464C181.383 64.3247 181.332 64.603 181.273 64.8813C181.229 65.145 181.186 65.4233 181.142 65.7163C181.112 65.9946 181.076 66.3096 181.032 66.6611C182.672 68.7705 184.547 70.3965 186.657 71.5391C188.766 72.667 191.139 73.231 193.776 73.231C194.523 73.231 195.321 73.165 196.171 73.0332C197.035 72.9014 197.826 72.667 198.544 72.3301C199.276 71.9785 199.877 71.5171 200.346 70.9458C200.829 70.3599 201.071 69.6201 201.071 68.7266C201.071 68.0967 200.902 67.5254 200.565 67.0127C200.229 66.4854 199.789 66.0166 199.247 65.6064C198.705 65.1963 198.09 64.8374 197.401 64.5298C196.728 64.2075 196.046 63.9292 195.358 63.6948C194.669 63.4604 194.01 63.27 193.38 63.1235C192.765 62.9624 192.238 62.8379 191.798 62.75C190.758 62.5303 189.726 62.2886 188.7 62.0249C187.675 61.7466 186.701 61.417 185.778 61.0361C184.855 60.6553 183.998 60.2085 183.207 59.6958C182.416 59.1831 181.728 58.5825 181.142 57.894C180.57 57.1909 180.116 56.3779 179.779 55.4551C179.457 54.5322 179.296 53.4702 179.296 52.269C179.296 51.0972 179.45 50.0205 179.757 49.0391C180.08 48.043 180.519 47.1494 181.076 46.3584C181.632 45.5674 182.284 44.8789 183.031 44.293C183.793 43.6924 184.621 43.1943 185.514 42.7988C186.408 42.3887 187.345 42.0884 188.327 41.8979C189.323 41.6929 190.326 41.5903 191.337 41.5903C191.952 41.5903 192.604 41.6416 193.292 41.7441C193.996 41.832 194.691 41.9639 195.38 42.1396C196.068 42.3008 196.742 42.4985 197.401 42.7329C198.075 42.9526 198.698 43.2017 199.269 43.48C199.84 43.7437 200.346 44.0293 200.785 44.3369C201.225 44.6299 201.576 44.9302 201.84 45.2378C202.045 44.6812 202.265 44.1318 202.499 43.5898C202.748 43.0332 203.004 42.4766 203.268 41.9199C203.385 41.7148 203.532 41.561 203.708 41.4585C203.898 41.3413 204.096 41.2827 204.301 41.2827C204.638 41.2827 204.916 41.4072 205.136 41.6562C205.355 41.8906 205.465 42.1543 205.465 42.4473C205.465 42.6084 205.421 42.7769 205.333 42.9526C204.572 44.5347 203.942 46.124 203.444 47.7207C202.96 49.3027 202.616 50.9067 202.411 52.5327C202.382 52.8257 202.257 53.0674 202.038 53.2578C201.833 53.4336 201.583 53.5215 201.291 53.5215C200.954 53.5215 200.675 53.397 200.456 53.1479C200.236 52.8989 200.126 52.6499 200.126 52.4009V52.269C200.302 50.7163 200.617 49.1855 201.071 47.6768C200.983 47.4131 200.756 47.1348 200.39 46.8418C200.023 46.5342 199.569 46.2412 199.027 45.9629C198.5 45.6846 197.899 45.4209 197.226 45.1719C196.552 44.9082 195.863 44.6812 195.16 44.4907C194.457 44.3003 193.754 44.1465 193.051 44.0293C192.348 43.9121 191.703 43.8535 191.117 43.8535C190.224 43.8535 189.367 43.9487 188.546 44.1392C187.726 44.3296 186.994 44.6372 186.349 45.062C185.719 45.4868 185.207 46.0361 184.811 46.71C184.416 47.3691 184.21 48.1675 184.196 49.105C184.254 49.9253 184.474 50.6357 184.855 51.2363C185.25 51.8223 185.734 52.335 186.305 52.7744C186.891 53.2139 187.55 53.5874 188.283 53.895C189.015 54.188 189.755 54.4443 190.502 54.6641C191.264 54.8691 192.003 55.0522 192.721 55.2134C193.439 55.3599 194.091 55.499 194.677 55.6309C196.156 55.9824 197.57 56.3779 198.917 56.8174C200.265 57.2568 201.444 57.8354 202.455 58.5532C203.48 59.271 204.293 60.1865 204.894 61.2998C205.495 62.3984 205.795 63.7827 205.795 65.4526ZM231.129 59.4102C231.085 59.7031 230.946 59.9448 230.712 60.1353C230.492 60.3257 230.236 60.4209 229.943 60.4209C229.65 60.4209 229.394 60.3184 229.174 60.1133C228.969 59.9082 228.852 59.6445 228.822 59.3223C228.822 58.6924 228.69 58.0332 228.427 57.3447C228.163 56.6562 227.804 56.0264 227.35 55.4551C226.896 54.8838 226.376 54.415 225.79 54.0488C225.204 53.668 224.582 53.4775 223.922 53.4775C223.102 53.4775 222.377 53.6533 221.747 54.0049C221.117 54.3418 220.568 54.7959 220.099 55.3672C219.63 55.9385 219.242 56.5903 218.935 57.3228C218.627 58.0552 218.378 58.8096 218.188 59.5859C217.997 60.3477 217.858 61.1021 217.77 61.8491C217.697 62.5962 217.66 63.27 217.66 63.8706C217.66 64.896 217.77 65.9214 217.99 66.9468C218.224 67.9722 218.576 68.895 219.044 69.7153C219.513 70.521 220.114 71.1802 220.846 71.6929C221.579 72.2056 222.45 72.4619 223.461 72.4619C224.208 72.4619 224.911 72.2935 225.57 71.9565C226.229 71.6196 226.815 71.1875 227.328 70.6602C227.855 70.1182 228.302 69.5249 228.668 68.8804C229.035 68.2358 229.298 67.606 229.459 66.9907C229.533 66.7124 229.665 66.4854 229.855 66.3096C230.06 66.1338 230.302 66.0459 230.58 66.0459C230.902 66.0459 231.173 66.1704 231.393 66.4194C231.627 66.6538 231.745 66.9175 231.745 67.2104C231.745 67.2983 231.73 67.3716 231.701 67.4302C231.598 67.9136 231.422 68.4409 231.173 69.0122C230.924 69.5835 230.595 70.1548 230.185 70.7261C229.789 71.2974 229.306 71.854 228.734 72.396C228.163 72.9233 227.511 73.3921 226.779 73.8022C226.046 74.2124 225.233 74.542 224.34 74.791C223.446 75.04 222.465 75.1646 221.396 75.1646C219.711 75.1646 218.158 74.8789 216.737 74.3076C215.316 73.751 214.093 72.9673 213.068 71.9565C212.042 70.9312 211.237 69.708 210.651 68.2871C210.08 66.8516 209.794 65.2769 209.794 63.563C209.794 61.7173 210.043 60.0034 210.541 58.4214C211.054 56.8394 211.793 55.4697 212.76 54.3125C213.742 53.1553 214.943 52.2471 216.364 51.5879C217.799 50.9287 219.447 50.5991 221.308 50.5991C222.978 50.5991 224.53 50.936 225.966 51.6099C227.401 52.269 228.581 53.2651 229.503 54.5981L230.229 50.1157C230.272 49.8374 230.397 49.6104 230.602 49.4346C230.822 49.2588 231.071 49.1709 231.349 49.1709C231.715 49.1709 232.001 49.2954 232.206 49.5444C232.411 49.7935 232.514 50.0425 232.514 50.2915V50.4673L231.129 59.4102ZM256.881 63.1455C256.881 62.4277 256.801 61.7026 256.64 60.9702C256.479 60.2378 256.244 59.5273 255.937 58.8389C255.629 58.1504 255.255 57.5059 254.816 56.9053C254.376 56.3047 253.878 55.7847 253.322 55.3452C252.78 54.8911 252.179 54.5396 251.52 54.2905C250.875 54.0269 250.187 53.895 249.455 53.895C248.634 53.895 247.917 54.0342 247.301 54.3125C246.701 54.5762 246.173 54.9424 245.719 55.4111C245.265 55.8652 244.892 56.3926 244.599 56.9932C244.306 57.5938 244.071 58.231 243.896 58.9048C243.72 59.5786 243.595 60.2598 243.522 60.9482C243.449 61.6367 243.412 62.2959 243.412 62.9258C243.412 63.5703 243.441 64.2588 243.5 64.9912C243.559 65.709 243.661 66.4268 243.808 67.1445C243.954 67.8477 244.152 68.5288 244.401 69.188C244.65 69.8472 244.972 70.4258 245.368 70.9238C245.763 71.4219 246.239 71.8174 246.796 72.1104C247.367 72.4033 248.041 72.5498 248.817 72.5498C250.092 72.5498 251.227 72.2861 252.223 71.7588C253.234 71.2168 254.083 70.5063 254.772 69.6274C255.46 68.7485 255.98 67.7451 256.332 66.6172C256.698 65.4893 256.881 64.332 256.881 63.1455ZM259.167 63.1455C259.167 64.9033 258.852 66.5146 258.222 67.9795C257.592 69.4443 256.742 70.7041 255.673 71.7588C254.604 72.7988 253.351 73.6118 251.916 74.1978C250.495 74.7837 248.993 75.0767 247.411 75.0767C245.624 75.0767 244.005 74.791 242.555 74.2197C241.12 73.6631 239.889 72.8647 238.864 71.8247C237.838 70.7847 237.047 69.5322 236.491 68.0674C235.949 66.6025 235.678 64.9619 235.678 63.1455C235.678 61.417 235.978 59.8203 236.579 58.3555C237.179 56.8906 238.007 55.6309 239.062 54.5762C240.116 53.5068 241.354 52.6792 242.775 52.0933C244.21 51.4927 245.756 51.1924 247.411 51.1924C249.14 51.1924 250.722 51.5146 252.157 52.1592C253.607 52.7891 254.853 53.6533 255.893 54.752C256.933 55.8359 257.738 57.103 258.31 58.5532C258.881 60.0034 259.167 61.5342 259.167 63.1455ZM282.677 63.1016C282.135 63.1016 281.623 62.999 281.139 62.7939C280.67 62.5889 280.26 62.3105 279.909 61.959C279.557 61.6074 279.279 61.1973 279.074 60.7285C278.869 60.2451 278.766 59.7324 278.766 59.1904C278.766 58.6484 278.869 58.1431 279.074 57.6743C279.279 57.1909 279.557 56.7734 279.909 56.4219C280.26 56.0557 280.67 55.77 281.139 55.5649C281.623 55.3452 282.135 55.2354 282.677 55.2354C282.75 55.2354 282.816 55.2427 282.875 55.2573C282.948 55.272 283.021 55.2793 283.095 55.2793C282.714 54.9863 282.267 54.7666 281.754 54.6201C281.256 54.459 280.678 54.3784 280.019 54.3784C279.184 54.3784 278.458 54.5542 277.843 54.9058C277.228 55.2427 276.701 55.6748 276.261 56.2021C275.836 56.7148 275.492 57.2788 275.229 57.894C274.965 58.4946 274.752 59.0659 274.591 59.6079C274.445 60.1353 274.342 60.5894 274.284 60.9702C274.24 61.3511 274.218 61.5708 274.218 61.6294L274.174 71.3853C274.687 71.4292 275.199 71.4951 275.712 71.583C276.239 71.6709 276.774 71.7588 277.316 71.8467C277.594 71.9199 277.821 72.0664 277.997 72.2861C278.173 72.4912 278.261 72.7329 278.261 73.0112C278.261 73.3335 278.136 73.6045 277.887 73.8242C277.638 74.0293 277.375 74.1318 277.096 74.1318H276.876C275.69 73.9121 274.562 73.7437 273.493 73.6265C272.423 73.5093 271.361 73.4507 270.307 73.4507C269.252 73.4507 268.197 73.5093 267.143 73.6265C266.088 73.7437 264.967 73.9121 263.781 74.1318H263.561C263.224 74.1318 262.953 74.022 262.748 73.8022C262.543 73.5679 262.44 73.3042 262.44 73.0112C262.44 72.7329 262.521 72.4912 262.682 72.2861C262.843 72.0664 263.063 71.9199 263.341 71.8467C263.854 71.7588 264.367 71.6709 264.879 71.583C265.392 71.4951 265.897 71.4292 266.396 71.3853V55.0156C265.473 54.9717 264.696 54.9131 264.066 54.8398C263.437 54.7666 263.085 54.7153 263.012 54.686C262.719 54.6567 262.477 54.5396 262.287 54.3345C262.111 54.1147 262.023 53.8584 262.023 53.5654C262.023 53.1992 262.147 52.9136 262.396 52.7085C262.66 52.5034 262.924 52.4009 263.188 52.4009H263.341C263.356 52.4155 263.524 52.4448 263.847 52.4888C264.169 52.5181 264.586 52.5547 265.099 52.5986C265.612 52.6426 266.198 52.6792 266.857 52.7085C267.531 52.7378 268.212 52.7524 268.9 52.7524C269.604 52.7524 270.292 52.7305 270.966 52.6865C271.64 52.6426 272.262 52.562 272.833 52.4448C272.863 52.4155 272.936 52.4009 273.053 52.4009C273.39 52.4009 273.668 52.5254 273.888 52.7744C274.108 53.0088 274.218 53.2725 274.218 53.5654V55.1475C274.848 54.2686 275.639 53.5435 276.591 52.9722C277.558 52.3862 278.7 52.0933 280.019 52.0933C281.015 52.1226 281.923 52.2983 282.743 52.6206C283.563 52.9282 284.267 53.3604 284.853 53.917C285.453 54.459 285.915 55.1182 286.237 55.8945C286.574 56.6562 286.742 57.5132 286.742 58.4653C286.742 59.0659 286.647 59.6445 286.457 60.2012C286.266 60.7578 285.995 61.2559 285.644 61.6953C285.292 62.1201 284.86 62.4644 284.347 62.728C283.849 62.9771 283.292 63.1016 282.677 63.1016ZM308.957 62.3984V62.0249C308.957 60.9263 308.839 59.9082 308.605 58.9707C308.371 58.0332 307.997 57.2056 307.484 56.4878C306.986 55.7554 306.342 55.1548 305.551 54.686C304.76 54.2173 303.808 53.9023 302.694 53.7412C301.918 53.8291 301.244 54.0415 300.673 54.3784C300.102 54.7153 299.611 55.1328 299.201 55.6309C298.805 56.1143 298.476 56.6636 298.212 57.2788C297.948 57.894 297.736 58.5312 297.575 59.1904C297.428 59.835 297.318 60.4868 297.245 61.146C297.172 61.7905 297.128 62.3984 297.113 62.9697C297.348 63.043 297.641 63.1235 297.992 63.2114C298.358 63.2993 298.769 63.3872 299.223 63.4751C299.677 63.5483 300.167 63.6143 300.695 63.6729C301.237 63.7168 301.801 63.7388 302.387 63.7388C303.632 63.7388 304.796 63.6216 305.88 63.3872C306.979 63.1528 308.004 62.8232 308.957 62.3984ZM311.198 63.2554C311.154 63.6362 310.949 63.9658 310.583 64.2441C310.216 64.5225 309.755 64.7715 309.198 64.9912C308.642 65.1963 308.026 65.3721 307.353 65.5186C306.693 65.6504 306.042 65.7603 305.397 65.8481C304.752 65.936 304.159 66.002 303.617 66.0459C303.075 66.0752 302.65 66.0898 302.343 66.0898C301.273 66.0898 300.285 66.0166 299.376 65.8701C298.483 65.7236 297.743 65.5698 297.157 65.4087C297.245 66.3169 297.414 67.2104 297.663 68.0894C297.912 68.9683 298.271 69.7593 298.739 70.4624C299.208 71.1509 299.794 71.7148 300.497 72.1543C301.2 72.5791 302.05 72.7915 303.046 72.7915C303.412 72.7915 303.83 72.7476 304.298 72.6597C304.767 72.5571 305.229 72.418 305.683 72.2422C306.137 72.0518 306.554 71.832 306.935 71.583C307.316 71.3193 307.616 71.0264 307.836 70.7041C308.085 70.4111 308.385 70.2646 308.737 70.2646C309.044 70.2646 309.315 70.3892 309.55 70.6382C309.784 70.8726 309.901 71.1362 309.901 71.4292C309.901 71.7368 309.806 71.9785 309.616 72.1543C309.264 72.6963 308.773 73.1577 308.144 73.5386C307.514 73.9194 306.833 74.2271 306.1 74.4614C305.368 74.7104 304.628 74.8862 303.881 74.9888C303.134 75.106 302.453 75.1646 301.837 75.1646C300.08 75.1646 298.446 74.8496 296.938 74.2197C295.429 73.6045 294.118 72.7549 293.004 71.6709C291.891 70.5869 291.012 69.3125 290.368 67.8477C289.738 66.3828 289.423 64.8008 289.423 63.1016C289.423 61.2412 289.701 59.5859 290.258 58.1357C290.814 56.6709 291.605 55.4404 292.631 54.4443C293.656 53.4336 294.901 52.6719 296.366 52.1592C297.831 51.6318 299.479 51.3682 301.31 51.3682C303.039 51.4414 304.525 51.7344 305.771 52.2471C307.03 52.7598 308.063 53.4702 308.869 54.3784C309.674 55.2866 310.268 56.3853 310.648 57.6743C311.044 58.9487 311.242 60.3843 311.242 61.981C311.242 62.3472 311.234 62.6401 311.22 62.8599C311.205 63.0649 311.198 63.1968 311.198 63.2554Z" fill="black"/>
<path d="M160.458 33.75H149.444V29.5312C149.444 28.1285 148.311 27 146.903 27H118.097C116.689 27 115.556 28.1285 115.556 29.5312V33.75H104.542C103.133 33.75 102 34.8785 102 36.2812V42.1875C102 45.9527 104.383 49.8234 108.555 52.8082C111.891 55.2023 115.947 56.7211 120.205 57.2062C123.53 62.7012 127.417 64.9688 127.417 64.9688V72.5625H122.333C118.595 72.5625 115.556 74.7457 115.556 78.4688V79.7344C115.556 80.4305 116.127 81 116.826 81H148.174C148.873 81 149.444 80.4305 149.444 79.7344V78.4688C149.444 74.7457 146.405 72.5625 142.667 72.5625H137.583V64.9688C137.583 64.9688 141.47 62.7012 144.795 57.2062C149.063 56.7211 153.119 55.2023 156.445 52.8082C160.607 49.8234 163 45.9527 163 42.1875V36.2812C163 34.8785 161.867 33.75 160.458 33.75ZM112.516 47.3344C109.932 45.4781 108.778 43.4109 108.778 42.1875V40.5H115.577C115.683 43.9383 116.191 46.9547 116.932 49.5914C115.333 49.043 113.84 48.2836 112.516 47.3344ZM156.222 42.1875C156.222 43.8855 154.348 45.9949 152.484 47.3344C151.16 48.2836 149.656 49.043 148.057 49.5914C148.798 46.9547 149.307 43.9383 149.413 40.5H156.222V42.1875Z" fill="black"/>
</svg>
