<svg width="409" height="111" viewBox="0 0 409 111" fill="none" xmlns="http://www.w3.org/2000/svg">
<rect x="1.5" y="1.5" width="406" height="108" rx="28.5" fill="white" stroke="black" stroke-width="3"/>
<path d="M151.63 52.9941C151.557 53.2432 151.418 53.4336 151.213 53.5654C151.008 53.6826 150.781 53.7412 150.532 53.7412C150.195 53.7412 149.917 53.6167 149.697 53.3677C149.477 53.1187 149.367 52.8696 149.367 52.6206C149.367 52.5034 149.396 52.3862 149.455 52.269L150.861 48.1602C150.495 47.5742 150.048 47.0176 149.521 46.4902C149.008 45.9482 148.444 45.4722 147.829 45.062C147.214 44.6519 146.562 44.3296 145.874 44.0952C145.185 43.8462 144.489 43.7217 143.786 43.7217C142.453 43.7217 141.259 43.9268 140.205 44.3369C139.165 44.7471 138.249 45.3037 137.458 46.0068C136.682 46.71 136.015 47.5376 135.458 48.4897C134.902 49.4272 134.448 50.4307 134.096 51.5C133.759 52.5693 133.51 53.6753 133.349 54.8179C133.203 55.9458 133.129 57.0591 133.129 58.1577C133.129 59.1099 133.181 60.1279 133.283 61.2119C133.386 62.2812 133.562 63.3579 133.811 64.4419C134.06 65.5112 134.389 66.5439 134.799 67.54C135.209 68.5215 135.715 69.3931 136.315 70.1548C136.931 70.9165 137.648 71.5244 138.469 71.9785C139.289 72.4326 140.241 72.6597 141.325 72.6597C142.6 72.6597 143.808 72.4766 144.951 72.1104C146.108 71.7441 147.155 71.2241 148.093 70.5503C149.045 69.8618 149.873 69.0415 150.576 68.0894C151.293 67.1372 151.85 66.0752 152.246 64.9033C152.319 64.6396 152.458 64.4272 152.663 64.2661C152.868 64.0903 153.103 64.0024 153.366 64.0024C153.688 64.0024 153.959 64.127 154.179 64.376C154.399 64.625 154.509 64.896 154.509 65.189V65.4526C154.494 65.4819 154.443 65.6284 154.355 65.8921C154.282 66.1558 154.15 66.5 153.959 66.9248C153.784 67.335 153.542 67.811 153.234 68.353C152.941 68.8804 152.568 69.4297 152.114 70.001C151.44 70.8359 150.686 71.561 149.851 72.1763C149.016 72.7915 148.129 73.3042 147.192 73.7144C146.269 74.1245 145.31 74.4321 144.313 74.6372C143.317 74.8423 142.321 74.9448 141.325 74.9448C138.82 74.9009 136.572 74.498 134.58 73.7363C132.602 72.96 130.917 71.8833 129.526 70.5063C128.149 69.1147 127.087 67.4448 126.34 65.4966C125.607 63.5483 125.241 61.373 125.241 58.9707C125.241 56.7441 125.476 54.7593 125.944 53.0161C126.413 51.2729 127.05 49.7495 127.856 48.4458C128.676 47.1274 129.636 46.0142 130.734 45.106C131.833 44.1831 132.998 43.436 134.228 42.8647C135.473 42.2935 136.762 41.8833 138.095 41.6343C139.428 41.3706 140.739 41.2388 142.028 41.2388C143.317 41.2388 144.475 41.3779 145.5 41.6562C146.525 41.9199 147.441 42.2642 148.247 42.689C149.052 43.1138 149.741 43.5825 150.312 44.0952C150.898 44.5933 151.381 45.0693 151.762 45.5234L152.971 42.0518C153.059 41.8027 153.205 41.605 153.41 41.4585C153.615 41.312 153.828 41.2388 154.047 41.2388C154.37 41.2388 154.641 41.3633 154.86 41.6123C155.095 41.8467 155.212 42.1104 155.212 42.4033C155.212 42.5352 155.183 42.6597 155.124 42.7769L151.63 52.9941ZM178.042 63.1016C177.5 63.1016 176.987 62.999 176.503 62.7939C176.035 62.5889 175.625 62.3105 175.273 61.959C174.921 61.6074 174.643 61.1973 174.438 60.7285C174.233 60.2451 174.13 59.7324 174.13 59.1904C174.13 58.6484 174.233 58.1431 174.438 57.6743C174.643 57.1909 174.921 56.7734 175.273 56.4219C175.625 56.0557 176.035 55.77 176.503 55.5649C176.987 55.3452 177.5 55.2354 178.042 55.2354C178.115 55.2354 178.181 55.2427 178.239 55.2573C178.312 55.272 178.386 55.2793 178.459 55.2793C178.078 54.9863 177.631 54.7666 177.119 54.6201C176.621 54.459 176.042 54.3784 175.383 54.3784C174.548 54.3784 173.823 54.5542 173.208 54.9058C172.592 55.2427 172.065 55.6748 171.625 56.2021C171.201 56.7148 170.856 57.2788 170.593 57.894C170.329 58.4946 170.117 59.0659 169.956 59.6079C169.809 60.1353 169.707 60.5894 169.648 60.9702C169.604 61.3511 169.582 61.5708 169.582 61.6294L169.538 71.3853C170.051 71.4292 170.563 71.4951 171.076 71.583C171.604 71.6709 172.138 71.7588 172.68 71.8467C172.958 71.9199 173.186 72.0664 173.361 72.2861C173.537 72.4912 173.625 72.7329 173.625 73.0112C173.625 73.3335 173.5 73.6045 173.251 73.8242C173.002 74.0293 172.739 74.1318 172.46 74.1318H172.241C171.054 73.9121 169.926 73.7437 168.857 73.6265C167.788 73.5093 166.726 73.4507 165.671 73.4507C164.616 73.4507 163.562 73.5093 162.507 73.6265C161.452 73.7437 160.332 73.9121 159.145 74.1318H158.925C158.588 74.1318 158.317 74.022 158.112 73.8022C157.907 73.5679 157.805 73.3042 157.805 73.0112C157.805 72.7329 157.885 72.4912 158.046 72.2861C158.208 72.0664 158.427 71.9199 158.706 71.8467C159.218 71.7588 159.731 71.6709 160.244 71.583C160.756 71.4951 161.262 71.4292 161.76 71.3853V55.0156C160.837 54.9717 160.061 54.9131 159.431 54.8398C158.801 54.7666 158.449 54.7153 158.376 54.686C158.083 54.6567 157.841 54.5396 157.651 54.3345C157.475 54.1147 157.387 53.8584 157.387 53.5654C157.387 53.1992 157.512 52.9136 157.761 52.7085C158.024 52.5034 158.288 52.4009 158.552 52.4009H158.706C158.72 52.4155 158.889 52.4448 159.211 52.4888C159.533 52.5181 159.951 52.5547 160.463 52.5986C160.976 52.6426 161.562 52.6792 162.221 52.7085C162.895 52.7378 163.576 52.7524 164.265 52.7524C164.968 52.7524 165.656 52.7305 166.33 52.6865C167.004 52.6426 167.626 52.562 168.198 52.4448C168.227 52.4155 168.3 52.4009 168.417 52.4009C168.754 52.4009 169.033 52.5254 169.252 52.7744C169.472 53.0088 169.582 53.2725 169.582 53.5654V55.1475C170.212 54.2686 171.003 53.5435 171.955 52.9722C172.922 52.3862 174.064 52.0933 175.383 52.0933C176.379 52.1226 177.287 52.2983 178.107 52.6206C178.928 52.9282 179.631 53.3604 180.217 53.917C180.817 54.459 181.279 55.1182 181.601 55.8945C181.938 56.6562 182.106 57.5132 182.106 58.4653C182.106 59.0659 182.011 59.6445 181.821 60.2012C181.63 60.7578 181.359 61.2559 181.008 61.6953C180.656 62.1201 180.224 62.4644 179.711 62.728C179.213 62.9771 178.657 63.1016 178.042 63.1016ZM204.321 62.3984V62.0249C204.321 60.9263 204.204 59.9082 203.969 58.9707C203.735 58.0332 203.361 57.2056 202.849 56.4878C202.351 55.7554 201.706 55.1548 200.915 54.686C200.124 54.2173 199.172 53.9023 198.059 53.7412C197.282 53.8291 196.608 54.0415 196.037 54.3784C195.466 54.7153 194.975 55.1328 194.565 55.6309C194.169 56.1143 193.84 56.6636 193.576 57.2788C193.312 57.894 193.1 58.5312 192.939 59.1904C192.792 59.835 192.683 60.4868 192.609 61.146C192.536 61.7905 192.492 62.3984 192.478 62.9697C192.712 63.043 193.005 63.1235 193.356 63.2114C193.723 63.2993 194.133 63.3872 194.587 63.4751C195.041 63.5483 195.532 63.6143 196.059 63.6729C196.601 63.7168 197.165 63.7388 197.751 63.7388C198.996 63.7388 200.161 63.6216 201.245 63.3872C202.343 63.1528 203.369 62.8232 204.321 62.3984ZM206.562 63.2554C206.518 63.6362 206.313 63.9658 205.947 64.2441C205.581 64.5225 205.119 64.7715 204.562 64.9912C204.006 65.1963 203.391 65.3721 202.717 65.5186C202.058 65.6504 201.406 65.7603 200.761 65.8481C200.117 65.936 199.523 66.002 198.981 66.0459C198.439 66.0752 198.015 66.0898 197.707 66.0898C196.638 66.0898 195.649 66.0166 194.741 65.8701C193.847 65.7236 193.107 65.5698 192.521 65.4087C192.609 66.3169 192.778 67.2104 193.027 68.0894C193.276 68.9683 193.635 69.7593 194.104 70.4624C194.572 71.1509 195.158 71.7148 195.861 72.1543C196.564 72.5791 197.414 72.7915 198.41 72.7915C198.776 72.7915 199.194 72.7476 199.663 72.6597C200.131 72.5571 200.593 72.418 201.047 72.2422C201.501 72.0518 201.918 71.832 202.299 71.583C202.68 71.3193 202.98 71.0264 203.2 70.7041C203.449 70.4111 203.75 70.2646 204.101 70.2646C204.409 70.2646 204.68 70.3892 204.914 70.6382C205.148 70.8726 205.266 71.1362 205.266 71.4292C205.266 71.7368 205.17 71.9785 204.98 72.1543C204.628 72.6963 204.138 73.1577 203.508 73.5386C202.878 73.9194 202.197 74.2271 201.464 74.4614C200.732 74.7104 199.992 74.8862 199.245 74.9888C198.498 75.106 197.817 75.1646 197.202 75.1646C195.444 75.1646 193.811 74.8496 192.302 74.2197C190.793 73.6045 189.482 72.7549 188.369 71.6709C187.255 70.5869 186.376 69.3125 185.732 67.8477C185.102 66.3828 184.787 64.8008 184.787 63.1016C184.787 61.2412 185.065 59.5859 185.622 58.1357C186.179 56.6709 186.97 55.4404 187.995 54.4443C189.021 53.4336 190.266 52.6719 191.73 52.1592C193.195 51.6318 194.843 51.3682 196.674 51.3682C198.403 51.4414 199.89 51.7344 201.135 52.2471C202.395 52.7598 203.427 53.4702 204.233 54.3784C205.039 55.2866 205.632 56.3853 206.013 57.6743C206.408 58.9487 206.606 60.3843 206.606 61.981C206.606 62.3472 206.599 62.6401 206.584 62.8599C206.569 63.0649 206.562 63.1968 206.562 63.2554ZM224.909 66.3096C224.88 66.0605 224.858 65.8042 224.843 65.5405C224.829 65.2769 224.821 65.0059 224.821 64.7275H224.008C223.422 64.7275 222.727 64.7715 221.921 64.8594C221.13 64.9473 220.31 65.0864 219.46 65.2769C218.61 65.4673 217.768 65.7236 216.933 66.0459C216.098 66.3535 215.351 66.7344 214.692 67.1885C214.033 67.6279 213.498 68.1479 213.088 68.7485C212.692 69.3491 212.495 70.0376 212.495 70.814C212.495 71.2241 212.59 71.5757 212.78 71.8687C212.985 72.1616 213.234 72.4033 213.527 72.5938C213.835 72.7695 214.172 72.9014 214.538 72.9893C214.904 73.0625 215.256 73.0991 215.593 73.0991C216.633 73.0991 217.614 72.9014 218.537 72.5059C219.475 72.0957 220.339 71.5684 221.13 70.9238C221.921 70.2646 222.631 69.5322 223.261 68.7266C223.891 67.9209 224.44 67.1152 224.909 66.3096ZM235.434 73.9121H235.346C235.097 73.8828 234.841 73.8682 234.577 73.8682C234.313 73.8682 234.057 73.8682 233.808 73.8682C232.431 73.8682 231.105 73.9561 229.831 74.1318C228.571 74.3076 227.304 74.5786 226.03 74.9448C225.986 74.9448 225.942 74.9521 225.898 74.9668C225.854 74.9814 225.795 74.9888 225.722 74.9888C225.385 74.9888 225.107 74.8569 224.887 74.5933C224.682 74.3442 224.58 74.0879 224.58 73.8242V73.6484C224.58 73.6191 224.616 73.3262 224.689 72.7695C224.763 72.1982 224.836 71.4072 224.909 70.3965C224.279 71.0996 223.605 71.7588 222.888 72.374C222.185 72.9746 221.438 73.502 220.646 73.9561C219.87 74.3955 219.064 74.7397 218.229 74.9888C217.395 75.2524 216.53 75.3843 215.637 75.3843C214.934 75.3843 214.252 75.2744 213.593 75.0547C212.934 74.8496 212.348 74.5493 211.835 74.1538C211.337 73.7583 210.935 73.2822 210.627 72.7256C210.334 72.1543 210.188 71.5171 210.188 70.814C210.188 69.7153 210.422 68.7485 210.891 67.9136C211.374 67.0786 212.004 66.3535 212.78 65.7383C213.557 65.1084 214.436 64.5884 215.417 64.1782C216.413 63.7534 217.424 63.4165 218.449 63.1675C219.475 62.9038 220.471 62.7207 221.438 62.6182C222.404 62.501 223.261 62.4424 224.008 62.4424H224.536C224.536 61.5488 224.375 60.6772 224.052 59.8276C223.745 58.978 223.305 58.2236 222.734 57.5645C222.177 56.9053 221.511 56.3779 220.734 55.9824C219.958 55.5723 219.101 55.3672 218.164 55.3672C217.475 55.3672 216.801 55.5649 216.142 55.9604C215.483 56.3413 214.897 56.832 214.384 57.4326C213.872 58.0332 213.454 58.707 213.132 59.4541C212.824 60.2012 212.67 60.9263 212.67 61.6294C212.67 61.9224 212.546 62.1714 212.297 62.3765C212.062 62.5669 211.799 62.6621 211.506 62.6621C211.184 62.6621 210.905 62.5449 210.671 62.3105C210.437 62.0615 210.319 61.7905 210.319 61.4976C210.319 60.7944 210.444 60.062 210.693 59.3003C210.942 58.5239 211.301 57.7695 211.77 57.0371C212.253 56.29 212.832 55.5869 213.505 54.9277C214.194 54.2686 214.97 53.6899 215.834 53.1919C216.713 52.6792 217.673 52.2764 218.713 51.9834C219.753 51.6904 220.859 51.5439 222.031 51.5439C223.671 51.5439 225.07 51.8003 226.228 52.313C227.399 52.8257 228.374 53.5215 229.15 54.4004C229.941 55.2793 230.563 56.2974 231.018 57.4546C231.472 58.6118 231.816 59.835 232.05 61.124C232.285 62.4131 232.431 63.7241 232.49 65.0571C232.563 66.3901 232.6 67.6646 232.6 68.8804C232.6 69.4956 232.592 70.0229 232.578 70.4624C232.563 70.9019 232.556 71.2681 232.556 71.561C232.775 71.561 232.995 71.5537 233.215 71.5391C233.449 71.5244 233.676 71.5171 233.896 71.5171C234.145 71.5171 234.401 71.5244 234.665 71.5391C234.943 71.5537 235.214 71.561 235.478 71.561C235.8 71.5903 236.057 71.7148 236.247 71.9346C236.452 72.1543 236.555 72.4253 236.555 72.7476C236.555 73.0552 236.445 73.3262 236.225 73.5605C236.02 73.7949 235.756 73.9121 235.434 73.9121ZM255.166 52.6206C255.166 52.9136 255.063 53.1772 254.858 53.4116C254.667 53.6313 254.426 53.7559 254.133 53.7852C253.181 53.8584 252.236 53.9243 251.298 53.9829C250.361 54.0415 249.416 54.0854 248.464 54.1147V69.4956C248.464 69.7886 248.522 70.0596 248.64 70.3086C248.771 70.5576 248.933 70.77 249.123 70.9458C249.328 71.1216 249.555 71.2607 249.804 71.3633C250.053 71.4658 250.31 71.5171 250.573 71.5171C250.969 71.5171 251.291 71.4146 251.54 71.2095C251.804 70.9897 252.023 70.7261 252.199 70.4185C252.375 70.0962 252.514 69.7593 252.617 69.4077C252.734 69.0562 252.829 68.7412 252.902 68.4629C252.946 68.1992 253.078 67.9868 253.298 67.8257C253.518 67.6499 253.759 67.562 254.023 67.562C254.36 67.562 254.631 67.6938 254.836 67.9575C255.056 68.2065 255.166 68.4629 255.166 68.7266V68.9683C254.741 70.9165 253.906 72.4253 252.661 73.4946C251.416 74.5493 249.877 75.0767 248.046 75.0767C247.211 75.0767 246.354 74.9668 245.476 74.7471C244.597 74.5273 243.798 74.1172 243.081 73.5166C242.377 72.916 241.799 72.0884 241.345 71.0337C240.891 69.9644 240.664 68.5801 240.664 66.8809V54.0708C240.004 54.0269 239.338 53.9829 238.664 53.939C238.005 53.895 237.338 53.8438 236.665 53.7852C236.372 53.7412 236.123 53.6094 235.917 53.3896C235.727 53.1699 235.632 52.9136 235.632 52.6206C235.632 52.2837 235.756 52.0127 236.005 51.8076C236.269 51.6025 236.533 51.5 236.796 51.5H236.884C237.529 51.5439 238.159 51.5879 238.774 51.6318C239.404 51.6758 240.034 51.7197 240.664 51.7637V44.293C240.664 44.0439 240.744 43.8169 240.905 43.6118C241.066 43.3921 241.271 43.2456 241.521 43.1724L247.014 41.7002C247.058 41.6709 247.109 41.6562 247.167 41.6562C247.226 41.6416 247.277 41.6343 247.321 41.6343C247.658 41.6343 247.929 41.7588 248.134 42.0078C248.354 42.2568 248.464 42.5278 248.464 42.8208V51.8076C249.357 51.7783 250.258 51.7417 251.167 51.6978C252.089 51.6392 253.012 51.5732 253.935 51.5H254.023C254.345 51.5 254.616 51.6172 254.836 51.8516C255.056 52.0713 255.166 52.3276 255.166 52.6206ZM277.622 62.3984V62.0249C277.622 60.9263 277.504 59.9082 277.27 58.9707C277.036 58.0332 276.662 57.2056 276.149 56.4878C275.651 55.7554 275.007 55.1548 274.216 54.686C273.425 54.2173 272.473 53.9023 271.359 53.7412C270.583 53.8291 269.909 54.0415 269.338 54.3784C268.767 54.7153 268.276 55.1328 267.866 55.6309C267.47 56.1143 267.141 56.6636 266.877 57.2788C266.613 57.894 266.401 58.5312 266.24 59.1904C266.093 59.835 265.983 60.4868 265.91 61.146C265.837 61.7905 265.793 62.3984 265.778 62.9697C266.013 63.043 266.306 63.1235 266.657 63.2114C267.023 63.2993 267.434 63.3872 267.888 63.4751C268.342 63.5483 268.833 63.6143 269.36 63.6729C269.902 63.7168 270.466 63.7388 271.052 63.7388C272.297 63.7388 273.461 63.6216 274.545 63.3872C275.644 63.1528 276.669 62.8232 277.622 62.3984ZM279.863 63.2554C279.819 63.6362 279.614 63.9658 279.248 64.2441C278.881 64.5225 278.42 64.7715 277.863 64.9912C277.307 65.1963 276.691 65.3721 276.018 65.5186C275.358 65.6504 274.707 65.7603 274.062 65.8481C273.417 65.936 272.824 66.002 272.282 66.0459C271.74 66.0752 271.315 66.0898 271.008 66.0898C269.938 66.0898 268.95 66.0166 268.042 65.8701C267.148 65.7236 266.408 65.5698 265.822 65.4087C265.91 66.3169 266.079 67.2104 266.328 68.0894C266.577 68.9683 266.936 69.7593 267.404 70.4624C267.873 71.1509 268.459 71.7148 269.162 72.1543C269.865 72.5791 270.715 72.7915 271.711 72.7915C272.077 72.7915 272.495 72.7476 272.963 72.6597C273.432 72.5571 273.894 72.418 274.348 72.2422C274.802 72.0518 275.219 71.832 275.6 71.583C275.981 71.3193 276.281 71.0264 276.501 70.7041C276.75 70.4111 277.05 70.2646 277.402 70.2646C277.709 70.2646 277.98 70.3892 278.215 70.6382C278.449 70.8726 278.566 71.1362 278.566 71.4292C278.566 71.7368 278.471 71.9785 278.281 72.1543C277.929 72.6963 277.438 73.1577 276.809 73.5386C276.179 73.9194 275.498 74.2271 274.765 74.4614C274.033 74.7104 273.293 74.8862 272.546 74.9888C271.799 75.106 271.118 75.1646 270.502 75.1646C268.745 75.1646 267.111 74.8496 265.603 74.2197C264.094 73.6045 262.783 72.7549 261.669 71.6709C260.556 70.5869 259.677 69.3125 259.033 67.8477C258.403 66.3828 258.088 64.8008 258.088 63.1016C258.088 61.2412 258.366 59.5859 258.923 58.1357C259.479 56.6709 260.271 55.4404 261.296 54.4443C262.321 53.4336 263.566 52.6719 265.031 52.1592C266.496 51.6318 268.144 51.3682 269.975 51.3682C271.704 51.4414 273.19 51.7344 274.436 52.2471C275.695 52.7598 276.728 53.4702 277.534 54.3784C278.339 55.2866 278.933 56.3853 279.313 57.6743C279.709 58.9487 279.907 60.3843 279.907 61.981C279.907 62.3472 279.899 62.6401 279.885 62.8599C279.87 63.0649 279.863 63.1968 279.863 63.2554Z" fill="black"/>
</svg>
