<svg width="105" height="134" viewBox="0 0 105 134" fill="none" xmlns="http://www.w3.org/2000/svg">
<path d="M93.2914 36.2203C89.9718 36.2203 87.0505 37.5289 84.9038 39.5764C77.0032 34.3628 66.3583 31.0068 54.5626 30.6479L60.6928 4.30591L80.2121 8.48517C80.2121 13.0444 84.1071 16.7593 88.8874 16.7593C93.7561 16.7593 97.6733 12.9388 97.6733 8.37963C97.6733 3.82044 93.7782 0 88.8874 0C85.4792 0 82.5359 1.96299 81.0752 4.64363L59.5199 0.0844295C58.4355 -0.189967 57.3732 0.548793 57.0855 1.58305L50.3578 30.6268C38.6507 31.0912 28.1164 34.4473 20.1936 39.6608C18.047 37.5289 15.0151 36.2203 11.6955 36.2203C-0.60922 36.2203 -4.63701 51.9664 6.62752 57.3488C6.22917 59.0163 6.05212 60.7893 6.05212 62.5623C6.05212 80.2503 26.9435 94.5822 52.593 94.5822C78.3531 94.5822 99.2445 80.2503 99.2445 62.5623C99.2445 60.7893 99.0454 58.9318 98.5585 57.2644C109.602 51.8609 105.53 36.2203 93.2914 36.2203ZM24.487 58.4675C24.487 53.8239 28.382 50.0878 33.2729 50.0878C38.0531 50.0878 41.9481 53.8027 41.9481 58.4675C41.9481 63.0267 38.0531 66.7416 33.2729 66.7416C28.4041 66.7627 24.487 63.0267 24.487 58.4675ZM71.9131 78.2029C63.8575 85.886 41.1293 85.886 33.0737 78.2029C32.1885 77.4641 32.1885 76.1555 33.0737 75.3112C33.8483 74.5724 35.2204 74.5724 35.995 75.3112C42.1473 81.3268 62.5518 81.4323 68.9697 75.3112C69.7443 74.5724 71.1164 74.5724 71.891 75.3112C72.7983 76.1555 72.7983 77.4641 71.9131 78.2029ZM71.7361 66.7627C66.9558 66.7627 63.0608 63.0478 63.0608 58.4886C63.0608 53.845 66.9558 50.109 71.7361 50.109C76.6048 50.109 80.522 53.8239 80.522 58.4886C80.4998 63.0267 76.6048 66.7627 71.7361 66.7627Z" fill="black"/>
<ellipse cx="15.6697" cy="4.38005" rx="15.6697" ry="4.38005" transform="matrix(0.865845 0.500312 -0.536187 0.844099 18.2942 95.1017)" fill="black"/>
<ellipse cx="15.6697" cy="4.38005" rx="15.6697" ry="4.38005" transform="matrix(0.865845 0.500312 -0.536187 0.844099 18.2942 95.1017)" fill="black"/>
<ellipse cx="15.6697" cy="4.38005" rx="15.6697" ry="4.38005" transform="matrix(-0.865845 0.500312 0.536187 0.844099 90.5881 95.1017)" fill="black"/>
<ellipse cx="15.6697" cy="4.38005" rx="15.6697" ry="4.38005" transform="matrix(-0.865845 0.500312 0.536187 0.844099 90.5881 95.1017)" fill="black"/>
<ellipse cx="54.3885" cy="112.393" rx="18.1295" ry="21.614" fill="black"/>
<rect x="27.1941" y="121.038" width="31.7266" height="12.9684" rx="6.48419" fill="black"/>
<rect x="49.856" y="121.038" width="31.7266" height="12.9684" rx="6.48419" fill="black"/>
</svg>
