<svg width="409" height="111" viewBox="0 0 409 111" fill="none" xmlns="http://www.w3.org/2000/svg">
<rect x="1.5" y="1.5" width="406" height="108" rx="28.5" fill="white" stroke="black" stroke-width="3"/>
<path d="M179.707 51.5C179.707 50.4746 179.539 49.5811 179.202 48.8193C178.865 48.043 178.389 47.3765 177.773 46.8198C177.173 46.2632 176.448 45.8091 175.598 45.4575C174.749 45.0913 173.818 44.8057 172.808 44.6006C171.797 44.3809 170.713 44.2344 169.556 44.1611C168.413 44.0732 167.234 44.0293 166.018 44.0293C165.681 44.0293 165.374 44.0293 165.095 44.0293C164.817 44.0293 164.553 44.0439 164.304 44.0732L163.909 59.0146C164.465 59.1318 165.073 59.2124 165.732 59.2563C166.392 59.3003 167.073 59.3223 167.776 59.3223C168.64 59.3223 169.534 59.271 170.457 59.1685C171.379 59.0659 172.28 58.8975 173.159 58.6631C174.053 58.4287 174.895 58.1211 175.686 57.7402C176.477 57.3447 177.166 56.8613 177.751 56.29C178.352 55.7041 178.828 55.0156 179.18 54.2246C179.531 53.4336 179.707 52.5254 179.707 51.5ZM183.354 65.4087C183.354 65.438 183.362 65.5186 183.376 65.6504C183.391 65.7676 183.398 65.9434 183.398 66.1777C183.398 67.3643 183.215 68.4629 182.849 69.4736C182.498 70.4844 181.992 71.356 181.333 72.0884C180.674 72.8062 179.875 73.3701 178.938 73.7803C178 74.1904 176.953 74.3955 175.796 74.3955H175.73C174.661 74.3662 173.716 74.1904 172.896 73.8682C172.09 73.5459 171.379 73.1211 170.764 72.5938C170.164 72.0518 169.658 71.4219 169.248 70.7041C168.838 69.9863 168.508 69.2173 168.259 68.397C168.01 67.562 167.827 66.6978 167.71 65.8042C167.607 64.9106 167.556 64.0244 167.556 63.1455C167.556 62.8818 167.563 62.6255 167.578 62.3765C167.593 62.1128 167.6 61.8784 167.6 61.6733C166.941 61.6733 166.296 61.644 165.667 61.5854C165.051 61.5269 164.451 61.4536 163.865 61.3657L163.535 72.7476C163.535 73.0991 163.418 73.3774 163.184 73.5825C162.964 73.7729 162.693 73.8682 162.371 73.8682C162.356 73.8682 162.056 73.8755 161.47 73.8901C160.898 73.8901 160.159 73.9048 159.25 73.9341C158.342 73.9634 157.339 74.0146 156.24 74.0879C155.142 74.1611 154.065 74.2637 153.01 74.3955H152.878C152.542 74.3955 152.263 74.2783 152.043 74.0439C151.824 73.8242 151.714 73.5679 151.714 73.2749C151.714 72.9819 151.802 72.7256 151.978 72.5059C152.168 72.2861 152.41 72.1543 152.703 72.1104C153.245 72.0371 153.794 71.9785 154.351 71.9346C154.922 71.8906 155.479 71.8467 156.021 71.8027L156.526 44.7104C155.442 44.8862 154.622 45.04 154.065 45.1719C153.508 45.3037 153.215 45.3696 153.186 45.3696C153.083 45.4429 152.981 45.4795 152.878 45.4795C152.542 45.4795 152.263 45.3623 152.043 45.1279C151.824 44.8936 151.714 44.6152 151.714 44.293C151.714 44.0439 151.787 43.8242 151.934 43.6338C152.08 43.4287 152.278 43.2896 152.527 43.2163C152.571 43.2017 152.878 43.1138 153.45 42.9526C154.021 42.7915 154.863 42.623 155.977 42.4473C157.104 42.2715 158.496 42.1104 160.151 41.9639C161.821 41.8174 163.777 41.7441 166.018 41.7441C167.454 41.8174 168.838 41.9199 170.171 42.0518C171.519 42.1836 172.786 42.3887 173.972 42.667C175.159 42.9307 176.243 43.2896 177.224 43.7437C178.206 44.1831 179.048 44.7544 179.751 45.4575C180.469 46.1606 181.018 47.0103 181.399 48.0063C181.794 48.9878 181.992 50.1523 181.992 51.5C181.992 52.5693 181.824 53.5801 181.487 54.5322C181.165 55.4697 180.71 56.3267 180.125 57.103C179.539 57.8647 178.828 58.5312 177.993 59.1025C177.173 59.6592 176.272 60.0986 175.291 60.4209C175.261 60.7578 175.239 61.1021 175.225 61.4536C175.21 61.8052 175.203 62.1641 175.203 62.5303C175.203 62.8379 175.21 63.27 175.225 63.8267C175.239 64.3833 175.276 64.9912 175.334 65.6504C175.393 66.3096 175.481 66.9834 175.598 67.6719C175.73 68.3604 175.898 68.9902 176.104 69.5615C176.323 70.1182 176.594 70.5796 176.917 70.9458C177.239 71.2974 177.627 71.4731 178.081 71.4731C178.667 71.4731 179.15 71.2754 179.531 70.8799C179.912 70.4844 180.22 70.0083 180.454 69.4517C180.688 68.8804 180.85 68.2944 180.938 67.6938C181.04 67.0933 181.091 66.5879 181.091 66.1777C181.091 66.0166 181.084 65.8848 181.069 65.7822C181.055 65.6797 181.047 65.5845 181.047 65.4966C181.047 65.1597 181.165 64.8887 181.399 64.6836C181.648 64.4785 181.919 64.376 182.212 64.376C182.505 64.376 182.761 64.4785 182.981 64.6836C183.201 64.874 183.325 65.1157 183.354 65.4087ZM206.58 62.3984V62.0249C206.58 60.9263 206.462 59.9082 206.228 58.9707C205.994 58.0332 205.62 57.2056 205.107 56.4878C204.609 55.7554 203.965 55.1548 203.174 54.686C202.383 54.2173 201.431 53.9023 200.317 53.7412C199.541 53.8291 198.867 54.0415 198.296 54.3784C197.725 54.7153 197.234 55.1328 196.824 55.6309C196.428 56.1143 196.099 56.6636 195.835 57.2788C195.571 57.894 195.359 58.5312 195.198 59.1904C195.051 59.835 194.941 60.4868 194.868 61.146C194.795 61.7905 194.751 62.3984 194.736 62.9697C194.971 63.043 195.264 63.1235 195.615 63.2114C195.981 63.2993 196.392 63.3872 196.846 63.4751C197.3 63.5483 197.791 63.6143 198.318 63.6729C198.86 63.7168 199.424 63.7388 200.01 63.7388C201.255 63.7388 202.419 63.6216 203.503 63.3872C204.602 63.1528 205.627 62.8232 206.58 62.3984ZM208.821 63.2554C208.777 63.6362 208.572 63.9658 208.206 64.2441C207.839 64.5225 207.378 64.7715 206.821 64.9912C206.265 65.1963 205.649 65.3721 204.976 65.5186C204.316 65.6504 203.665 65.7603 203.02 65.8481C202.375 65.936 201.782 66.002 201.24 66.0459C200.698 66.0752 200.273 66.0898 199.966 66.0898C198.896 66.0898 197.908 66.0166 197 65.8701C196.106 65.7236 195.366 65.5698 194.78 65.4087C194.868 66.3169 195.037 67.2104 195.286 68.0894C195.535 68.9683 195.894 69.7593 196.362 70.4624C196.831 71.1509 197.417 71.7148 198.12 72.1543C198.823 72.5791 199.673 72.7915 200.669 72.7915C201.035 72.7915 201.453 72.7476 201.921 72.6597C202.39 72.5571 202.852 72.418 203.306 72.2422C203.76 72.0518 204.177 71.832 204.558 71.583C204.939 71.3193 205.239 71.0264 205.459 70.7041C205.708 70.4111 206.008 70.2646 206.36 70.2646C206.667 70.2646 206.938 70.3892 207.173 70.6382C207.407 70.8726 207.524 71.1362 207.524 71.4292C207.524 71.7368 207.429 71.9785 207.239 72.1543C206.887 72.6963 206.396 73.1577 205.767 73.5386C205.137 73.9194 204.456 74.2271 203.723 74.4614C202.991 74.7104 202.251 74.8862 201.504 74.9888C200.757 75.106 200.076 75.1646 199.46 75.1646C197.703 75.1646 196.069 74.8496 194.561 74.2197C193.052 73.6045 191.741 72.7549 190.627 71.6709C189.514 70.5869 188.635 69.3125 187.991 67.8477C187.361 66.3828 187.046 64.8008 187.046 63.1016C187.046 61.2412 187.324 59.5859 187.881 58.1357C188.438 56.6709 189.229 55.4404 190.254 54.4443C191.279 53.4336 192.524 52.6719 193.989 52.1592C195.454 51.6318 197.102 51.3682 198.933 51.3682C200.662 51.4414 202.148 51.7344 203.394 52.2471C204.653 52.7598 205.686 53.4702 206.492 54.3784C207.297 55.2866 207.891 56.3853 208.271 57.6743C208.667 58.9487 208.865 60.3843 208.865 61.981C208.865 62.3472 208.857 62.6401 208.843 62.8599C208.828 63.0649 208.821 63.1968 208.821 63.2554ZM235.034 48.4019V48.4458C235.034 48.7534 234.917 49.0171 234.683 49.2368C234.463 49.4565 234.192 49.5664 233.87 49.5664C233.547 49.5664 233.276 49.4565 233.057 49.2368C232.852 49.0171 232.734 48.7534 232.705 48.4458C232.661 47.8599 232.544 47.2666 232.354 46.666C232.178 46.0654 231.921 45.5234 231.584 45.04C231.248 44.5566 230.837 44.1611 230.354 43.8535C229.871 43.5459 229.299 43.3921 228.64 43.3921C227.952 43.3921 227.358 43.5386 226.86 43.8315C226.377 44.1245 225.967 44.5127 225.63 44.9961C225.293 45.4795 225.022 46.0288 224.817 46.644C224.612 47.2446 224.451 47.8672 224.333 48.5117C224.216 49.1562 224.136 49.7861 224.092 50.4014C224.062 51.002 224.048 51.5366 224.048 52.0054V52.1372C224.663 52.1079 225.278 52.0933 225.894 52.0933C226.509 52.0786 227.124 52.0493 227.739 52.0054H227.783C228.105 52.0054 228.376 52.1152 228.596 52.335C228.816 52.54 228.94 52.8037 228.97 53.126C228.97 53.4629 228.86 53.7412 228.64 53.9609C228.42 54.1807 228.157 54.2905 227.849 54.2905C226.575 54.3784 225.308 54.4224 224.048 54.4224V71.2534C224.648 71.3267 225.242 71.4072 225.828 71.4951C226.428 71.583 227.036 71.6855 227.651 71.8027C227.93 71.8467 228.149 71.9785 228.311 72.1982C228.472 72.4033 228.552 72.645 228.552 72.9233C228.552 73.3042 228.428 73.5972 228.179 73.8022C227.93 73.9927 227.681 74.0879 227.432 74.0879C227.388 74.0879 227.351 74.0806 227.322 74.0659C227.292 74.0513 227.256 74.0439 227.212 74.0439C226.055 73.8242 224.897 73.6558 223.74 73.5386C222.583 73.4214 221.411 73.3628 220.225 73.3628C219.082 73.3628 217.939 73.4214 216.797 73.5386C215.654 73.6558 214.504 73.8242 213.347 74.0439C213.303 74.0439 213.259 74.0513 213.215 74.0659C213.186 74.0806 213.157 74.0879 213.127 74.0879C212.791 74.0879 212.512 73.9707 212.292 73.7363C212.073 73.4873 211.963 73.2163 211.963 72.9233C211.963 72.645 212.043 72.4033 212.205 72.1982C212.38 71.9785 212.615 71.8467 212.908 71.8027C213.464 71.6855 214.021 71.583 214.578 71.4951C215.149 71.4072 215.728 71.3413 216.313 71.2974V54.4224C215.083 54.4224 213.809 54.3784 212.49 54.2905C212.197 54.2905 211.941 54.1807 211.721 53.9609C211.516 53.7412 211.414 53.4775 211.414 53.1699C211.414 52.8477 211.531 52.5767 211.765 52.3569C212 52.1226 212.271 52.0054 212.578 52.0054H212.622C213.237 52.0493 213.853 52.0786 214.468 52.0933C215.083 52.0933 215.698 52.1079 216.313 52.1372V51.3242C216.313 49.7129 216.541 48.2334 216.995 46.8857C217.463 45.5381 218.13 44.3809 218.994 43.4141C219.858 42.4473 220.913 41.6929 222.158 41.1509C223.403 40.6089 224.817 40.3379 226.399 40.3379C227.761 40.3379 228.984 40.5723 230.068 41.041C231.152 41.4951 232.068 42.103 232.815 42.8647C233.562 43.6265 234.126 44.4907 234.507 45.4575C234.888 46.4097 235.063 47.3911 235.034 48.4019ZM251.755 63.1016C251.213 63.1016 250.701 62.999 250.217 62.7939C249.749 62.5889 249.338 62.3105 248.987 61.959C248.635 61.6074 248.357 61.1973 248.152 60.7285C247.947 60.2451 247.844 59.7324 247.844 59.1904C247.844 58.6484 247.947 58.1431 248.152 57.6743C248.357 57.1909 248.635 56.7734 248.987 56.4219C249.338 56.0557 249.749 55.77 250.217 55.5649C250.701 55.3452 251.213 55.2354 251.755 55.2354C251.829 55.2354 251.895 55.2427 251.953 55.2573C252.026 55.272 252.1 55.2793 252.173 55.2793C251.792 54.9863 251.345 54.7666 250.833 54.6201C250.334 54.459 249.756 54.3784 249.097 54.3784C248.262 54.3784 247.537 54.5542 246.921 54.9058C246.306 55.2427 245.779 55.6748 245.339 56.2021C244.915 56.7148 244.57 57.2788 244.307 57.894C244.043 58.4946 243.831 59.0659 243.669 59.6079C243.523 60.1353 243.42 60.5894 243.362 60.9702C243.318 61.3511 243.296 61.5708 243.296 61.6294L243.252 71.3853C243.765 71.4292 244.277 71.4951 244.79 71.583C245.317 71.6709 245.852 71.7588 246.394 71.8467C246.672 71.9199 246.899 72.0664 247.075 72.2861C247.251 72.4912 247.339 72.7329 247.339 73.0112C247.339 73.3335 247.214 73.6045 246.965 73.8242C246.716 74.0293 246.453 74.1318 246.174 74.1318H245.955C244.768 73.9121 243.64 73.7437 242.571 73.6265C241.501 73.5093 240.439 73.4507 239.385 73.4507C238.33 73.4507 237.275 73.5093 236.221 73.6265C235.166 73.7437 234.045 73.9121 232.859 74.1318H232.639C232.302 74.1318 232.031 74.022 231.826 73.8022C231.621 73.5679 231.519 73.3042 231.519 73.0112C231.519 72.7329 231.599 72.4912 231.76 72.2861C231.921 72.0664 232.141 71.9199 232.419 71.8467C232.932 71.7588 233.445 71.6709 233.958 71.583C234.47 71.4951 234.976 71.4292 235.474 71.3853V55.0156C234.551 54.9717 233.774 54.9131 233.145 54.8398C232.515 54.7666 232.163 54.7153 232.09 54.686C231.797 54.6567 231.555 54.5396 231.365 54.3345C231.189 54.1147 231.101 53.8584 231.101 53.5654C231.101 53.1992 231.226 52.9136 231.475 52.7085C231.738 52.5034 232.002 52.4009 232.266 52.4009H232.419C232.434 52.4155 232.603 52.4448 232.925 52.4888C233.247 52.5181 233.665 52.5547 234.177 52.5986C234.69 52.6426 235.276 52.6792 235.935 52.7085C236.609 52.7378 237.29 52.7524 237.979 52.7524C238.682 52.7524 239.37 52.7305 240.044 52.6865C240.718 52.6426 241.34 52.562 241.912 52.4448C241.941 52.4155 242.014 52.4009 242.131 52.4009C242.468 52.4009 242.747 52.5254 242.966 52.7744C243.186 53.0088 243.296 53.2725 243.296 53.5654V55.1475C243.926 54.2686 244.717 53.5435 245.669 52.9722C246.636 52.3862 247.778 52.0933 249.097 52.0933C250.093 52.1226 251.001 52.2983 251.821 52.6206C252.642 52.9282 253.345 53.3604 253.931 53.917C254.531 54.459 254.993 55.1182 255.315 55.8945C255.652 56.6562 255.82 57.5132 255.82 58.4653C255.82 59.0659 255.725 59.6445 255.535 60.2012C255.344 60.7578 255.073 61.2559 254.722 61.6953C254.37 62.1201 253.938 62.4644 253.425 62.728C252.927 62.9771 252.371 63.1016 251.755 63.1016ZM278.035 62.3984V62.0249C278.035 60.9263 277.917 59.9082 277.683 58.9707C277.449 58.0332 277.075 57.2056 276.562 56.4878C276.064 55.7554 275.42 55.1548 274.629 54.686C273.838 54.2173 272.886 53.9023 271.772 53.7412C270.996 53.8291 270.322 54.0415 269.751 54.3784C269.18 54.7153 268.689 55.1328 268.279 55.6309C267.883 56.1143 267.554 56.6636 267.29 57.2788C267.026 57.894 266.814 58.5312 266.653 59.1904C266.506 59.835 266.396 60.4868 266.323 61.146C266.25 61.7905 266.206 62.3984 266.191 62.9697C266.426 63.043 266.719 63.1235 267.07 63.2114C267.437 63.2993 267.847 63.3872 268.301 63.4751C268.755 63.5483 269.246 63.6143 269.773 63.6729C270.315 63.7168 270.879 63.7388 271.465 63.7388C272.71 63.7388 273.875 63.6216 274.958 63.3872C276.057 63.1528 277.083 62.8232 278.035 62.3984ZM280.276 63.2554C280.232 63.6362 280.027 63.9658 279.661 64.2441C279.294 64.5225 278.833 64.7715 278.276 64.9912C277.72 65.1963 277.104 65.3721 276.431 65.5186C275.771 65.6504 275.12 65.7603 274.475 65.8481C273.831 65.936 273.237 66.002 272.695 66.0459C272.153 66.0752 271.729 66.0898 271.421 66.0898C270.352 66.0898 269.363 66.0166 268.455 65.8701C267.561 65.7236 266.821 65.5698 266.235 65.4087C266.323 66.3169 266.492 67.2104 266.741 68.0894C266.99 68.9683 267.349 69.7593 267.817 70.4624C268.286 71.1509 268.872 71.7148 269.575 72.1543C270.278 72.5791 271.128 72.7915 272.124 72.7915C272.49 72.7915 272.908 72.7476 273.376 72.6597C273.845 72.5571 274.307 72.418 274.761 72.2422C275.215 72.0518 275.632 71.832 276.013 71.583C276.394 71.3193 276.694 71.0264 276.914 70.7041C277.163 70.4111 277.463 70.2646 277.815 70.2646C278.123 70.2646 278.394 70.3892 278.628 70.6382C278.862 70.8726 278.979 71.1362 278.979 71.4292C278.979 71.7368 278.884 71.9785 278.694 72.1543C278.342 72.6963 277.852 73.1577 277.222 73.5386C276.592 73.9194 275.911 74.2271 275.178 74.4614C274.446 74.7104 273.706 74.8862 272.959 74.9888C272.212 75.106 271.531 75.1646 270.916 75.1646C269.158 75.1646 267.524 74.8496 266.016 74.2197C264.507 73.6045 263.196 72.7549 262.083 71.6709C260.969 70.5869 260.09 69.3125 259.446 67.8477C258.816 66.3828 258.501 64.8008 258.501 63.1016C258.501 61.2412 258.779 59.5859 259.336 58.1357C259.893 56.6709 260.684 55.4404 261.709 54.4443C262.734 53.4336 263.979 52.6719 265.444 52.1592C266.909 51.6318 268.557 51.3682 270.388 51.3682C272.117 51.4414 273.604 51.7344 274.849 52.2471C276.108 52.7598 277.141 53.4702 277.947 54.3784C278.752 55.2866 279.346 56.3853 279.727 57.6743C280.122 58.9487 280.32 60.3843 280.32 61.981C280.32 62.3472 280.312 62.6401 280.298 62.8599C280.283 63.0649 280.276 63.1968 280.276 63.2554ZM305.962 67.7378C305.962 68.5728 305.815 69.3418 305.522 70.0449C305.229 70.7334 304.834 71.3633 304.336 71.9346C303.838 72.4912 303.259 72.9819 302.6 73.4067C301.956 73.8169 301.267 74.1611 300.535 74.4395C299.817 74.7324 299.084 74.9448 298.337 75.0767C297.59 75.2231 296.873 75.2964 296.184 75.2964C294.324 75.2964 292.573 75.0181 290.933 74.4614C289.292 73.9194 287.805 73.0771 286.472 71.9346C286.472 72.1836 286.472 72.4326 286.472 72.6816C286.472 72.916 286.487 73.1431 286.516 73.3628V73.4507C286.516 73.7437 286.414 74.0073 286.208 74.2417C286.018 74.4761 285.776 74.5933 285.483 74.5933C285.146 74.5933 284.854 74.4907 284.604 74.2856C284.37 74.0952 284.238 73.8535 284.209 73.5605C284.18 73.2676 284.165 72.9746 284.165 72.6816C284.165 72.374 284.165 72.0664 284.165 71.7588C284.165 71.2168 284.172 70.6821 284.187 70.1548C284.216 69.6274 284.246 69.1587 284.275 68.7485C284.304 68.3237 284.326 67.9795 284.341 67.7158C284.37 67.4375 284.392 67.2837 284.407 67.2544C284.436 66.9614 284.553 66.7197 284.758 66.5293C284.978 66.3242 285.234 66.2217 285.527 66.2217C285.894 66.2217 286.179 66.3389 286.384 66.5732C286.589 66.8076 286.692 67.064 286.692 67.3423V67.4741C286.677 67.5913 286.663 67.7231 286.648 67.8696C286.633 67.9868 286.619 68.1333 286.604 68.3091C286.589 68.4849 286.575 68.6753 286.56 68.8804C287.893 70.3013 289.358 71.3413 290.955 72.0005C292.566 72.645 294.309 72.9673 296.184 72.9673C296.404 72.9673 296.689 72.9526 297.041 72.9233C297.393 72.894 297.759 72.8501 298.14 72.7915C298.535 72.7183 298.931 72.6304 299.326 72.5278C299.722 72.4106 300.073 72.2715 300.381 72.1104C300.703 71.9346 300.959 71.7295 301.15 71.4951C301.355 71.2607 301.458 70.9824 301.458 70.6602C301.458 70.3379 301.311 70.0522 301.018 69.8032C300.74 69.5396 300.381 69.3052 299.941 69.1001C299.502 68.895 299.011 68.7192 298.469 68.5728C297.942 68.4263 297.422 68.3018 296.909 68.1992C296.411 68.0967 295.957 68.0161 295.547 67.9575C295.151 67.8989 294.858 67.855 294.668 67.8257C293.408 67.6938 292.163 67.4521 290.933 67.1006C289.717 66.7344 288.618 66.2363 287.637 65.6064C286.655 64.9766 285.864 64.2002 285.264 63.2773C284.663 62.3545 284.363 61.2632 284.363 60.0034C284.363 58.7144 284.626 57.5571 285.154 56.5317C285.681 55.4917 286.37 54.6128 287.219 53.895C288.083 53.1772 289.065 52.6279 290.164 52.2471C291.277 51.8662 292.412 51.6758 293.569 51.6758C295.093 51.6758 296.536 51.8662 297.898 52.2471C299.275 52.6133 300.535 53.1919 301.677 53.9829C301.809 53.6606 301.963 53.3384 302.139 53.0161C302.314 52.6792 302.49 52.3569 302.666 52.0493C302.783 51.8589 302.93 51.7197 303.105 51.6318C303.296 51.5439 303.479 51.5 303.655 51.5C303.992 51.5 304.27 51.6172 304.49 51.8516C304.709 52.0713 304.819 52.3276 304.819 52.6206C304.819 52.855 304.761 53.0527 304.644 53.2139C304.087 54.21 303.618 55.2207 303.237 56.2461C302.871 57.2568 302.622 58.2822 302.49 59.3223C302.446 59.6006 302.314 59.835 302.095 60.0254C301.875 60.2158 301.619 60.311 301.326 60.311C301.003 60.311 300.732 60.1938 300.513 59.9595C300.293 59.7104 300.183 59.4395 300.183 59.1465V58.9707C300.344 58.0625 300.557 57.147 300.82 56.2241C299.766 55.3892 298.616 54.8105 297.371 54.4883C296.125 54.1514 294.858 53.9829 293.569 53.9829C293.13 53.9829 292.668 54.0342 292.185 54.1367C291.702 54.2246 291.248 54.3784 290.823 54.5981C290.413 54.8032 290.068 55.0815 289.79 55.4331C289.526 55.7847 289.395 56.2168 289.395 56.7295C289.395 57.1836 289.541 57.5864 289.834 57.938C290.127 58.2749 290.5 58.5752 290.955 58.8389C291.409 59.1025 291.914 59.3296 292.471 59.52C293.042 59.7104 293.599 59.8716 294.141 60.0034C294.697 60.1353 295.21 60.2451 295.679 60.333C296.162 60.4209 296.543 60.4941 296.821 60.5527C297.847 60.7578 298.894 61.0288 299.963 61.3657C301.047 61.688 302.029 62.1274 302.908 62.6841C303.801 63.2261 304.534 63.9072 305.105 64.7275C305.676 65.5479 305.962 66.5513 305.962 67.7378ZM336.152 73.6484C336.094 73.6484 336.05 73.6338 336.021 73.6045C335.508 73.5312 335.002 73.48 334.504 73.4507C334.006 73.4214 333.508 73.4067 333.01 73.4067C332.263 73.4067 331.516 73.4434 330.769 73.5166C330.037 73.5898 329.297 73.6924 328.55 73.8242C328.521 73.8535 328.491 73.8682 328.462 73.8682C328.433 73.8682 328.403 73.8682 328.374 73.8682C328.037 73.8682 327.759 73.751 327.539 73.5166C327.319 73.2676 327.209 72.9966 327.209 72.7036C327.209 72.4253 327.297 72.1836 327.473 71.9785C327.649 71.7588 327.876 71.6196 328.154 71.561C329.194 71.3413 330.242 71.2095 331.296 71.1655C332.102 67.4595 332.505 64.2954 332.505 61.6733C332.505 60.5308 332.417 59.4614 332.241 58.4653C332.08 57.4546 331.78 56.5757 331.34 55.8286C330.916 55.0815 330.33 54.4883 329.583 54.0488C328.835 53.6094 327.876 53.3896 326.704 53.3896C326.045 53.3896 325.415 53.5142 324.814 53.7632C324.229 54.0122 323.679 54.3491 323.167 54.7739C322.668 55.1841 322.214 55.6675 321.804 56.2241C321.394 56.7808 321.042 57.3667 320.75 57.9819C320.471 58.5825 320.251 59.1978 320.09 59.8276C319.944 60.4575 319.871 61.0581 319.871 61.6294L319.827 71.4292C320.339 71.4731 320.852 71.5391 321.365 71.627C321.892 71.7148 322.427 71.8174 322.969 71.9346C323.247 71.9785 323.474 72.1104 323.65 72.3301C323.826 72.5352 323.914 72.7769 323.914 73.0552C323.914 73.3921 323.789 73.6631 323.54 73.8682C323.306 74.0732 323.042 74.1758 322.749 74.1758H322.529C321.343 73.9561 320.215 73.7876 319.146 73.6704C318.076 73.5532 317.014 73.4946 315.959 73.4946C314.919 73.4946 313.865 73.5532 312.795 73.6704C311.726 73.7876 310.605 73.9561 309.434 74.1758H309.214C308.877 74.1758 308.599 74.0659 308.379 73.8462C308.174 73.6118 308.071 73.3481 308.071 73.0552C308.071 72.7769 308.152 72.5352 308.313 72.3301C308.489 72.1104 308.708 71.9785 308.972 71.9346C309.485 71.8174 309.998 71.7222 310.51 71.6489C311.038 71.5757 311.55 71.5024 312.048 71.4292V45.2378C311.125 45.1938 310.349 45.1426 309.719 45.084C309.089 45.0107 308.738 44.9741 308.665 44.9741C308.372 44.9302 308.13 44.7983 307.939 44.5786C307.764 44.3589 307.676 44.1025 307.676 43.8096C307.676 43.4434 307.808 43.165 308.071 42.9746C308.335 42.7842 308.591 42.689 308.84 42.689H308.972C308.987 42.689 309.155 42.7109 309.478 42.7549C309.8 42.7842 310.217 42.8208 310.73 42.8647C311.257 42.9087 311.851 42.9526 312.51 42.9966C313.169 43.0259 313.85 43.0405 314.553 43.0405C315.256 43.0405 315.945 43.0186 316.619 42.9746C317.292 42.916 317.915 42.8208 318.486 42.689H318.706C319.043 42.689 319.321 42.8062 319.541 43.0405C319.761 43.2603 319.871 43.5166 319.871 43.8096V54.9717C320.706 53.6826 321.694 52.7158 322.837 52.0713C323.994 51.4268 325.283 51.1045 326.704 51.1045C328.228 51.1045 329.502 51.3828 330.527 51.9395C331.567 52.4961 332.402 53.2505 333.032 54.2026C333.677 55.1548 334.131 56.2827 334.395 57.5864C334.673 58.8755 334.812 60.2524 334.812 61.7173C334.812 64.3101 334.424 67.4448 333.647 71.1216C334.102 71.1216 334.548 71.1436 334.988 71.1875C335.442 71.2168 335.881 71.2681 336.306 71.3413C336.599 71.3706 336.841 71.4951 337.031 71.7148C337.236 71.9199 337.339 72.1689 337.339 72.4619C337.339 72.7842 337.214 73.0625 336.965 73.2969C336.716 73.5312 336.445 73.6484 336.152 73.6484Z" fill="black"/>
<path d="M84.626 54.9837C84.626 55.9899 84.2243 56.955 83.5092 57.6665C82.7941 58.378 81.8243 58.7778 80.813 58.7778C79.8017 58.7778 78.8319 58.378 78.1168 57.6665C77.4017 56.955 77 55.9899 77 54.9837C77.0021 49.674 78.5301 44.4755 81.4037 40.0015C84.2773 35.5274 88.3767 31.9642 93.2186 29.7321C98.0604 27.5001 103.443 26.6922 108.731 27.4037C114.019 28.1153 118.992 30.3166 123.064 33.7482V30.7941C123.064 29.7878 123.466 28.8228 124.181 28.1113C124.896 27.3997 125.866 27 126.877 27C127.889 27 128.858 27.3997 129.574 28.1113C130.289 28.8228 130.69 29.7878 130.69 30.7941V42.7568C130.69 43.758 130.291 44.7182 129.579 45.4262C128.868 46.1342 127.903 46.532 126.896 46.532L115.329 47.6032C114.833 47.6478 114.332 47.5946 113.856 47.4467C113.38 47.2988 112.938 47.0591 112.555 46.7412C112.172 46.4232 111.856 46.0334 111.624 45.5939C111.393 45.1543 111.25 44.6738 111.206 44.1795C111.161 43.6853 111.214 43.1872 111.363 42.7135C111.511 42.2398 111.752 41.7999 112.072 41.4189C112.391 41.0379 112.783 40.7232 113.225 40.4929C113.667 40.2625 114.15 40.121 114.646 40.0764L118.44 39.7319C115.493 37.1682 111.866 35.5028 107.993 34.9347C104.12 34.3665 100.165 34.9196 96.5995 36.5278C93.034 38.136 90.009 40.7315 87.8858 44.0041C85.7626 47.2768 84.631 51.0884 84.626 54.9837ZM95.4248 64.2329C96.431 64.1428 97.432 64.4542 98.2076 65.0984C98.9832 65.7427 99.4697 66.6671 99.5603 67.6684C99.6509 68.6696 99.338 69.6657 98.6905 70.4374C98.043 71.2091 97.114 71.6932 96.1077 71.7834L91.3272 72.2128C94.2518 74.8498 97.8833 76.5845 101.78 77.2062C105.677 77.8279 109.672 77.3097 113.278 75.7146C116.885 74.1195 119.948 71.5162 122.095 68.2213C124.243 64.9263 125.382 61.0815 125.374 57.1544C125.374 56.1482 125.776 55.1831 126.491 54.4716C127.206 53.7601 128.176 53.3604 129.187 53.3604C130.198 53.3604 131.168 53.7601 131.883 54.4716C132.598 55.1831 133 56.1482 133 57.1544C133.001 62.3953 131.515 67.5299 128.713 71.9678C125.911 76.4057 121.908 79.9667 117.163 82.2412C112.418 84.5157 107.124 85.4114 101.89 84.8253C96.6556 84.2392 91.6942 82.195 87.5759 78.9279V80.9005C87.5759 81.9067 87.1742 82.8718 86.4591 83.5833C85.744 84.2948 84.7741 84.6946 83.7629 84.6946C82.7516 84.6946 81.7817 84.2948 81.0667 83.5833C80.3516 82.8718 79.9499 81.9067 79.9499 80.9005V69.0841C79.9461 68.1383 80.2993 67.2255 80.9395 66.5264C81.5798 65.8273 82.4604 65.3928 83.4072 65.3089L95.4106 64.2235L95.4248 64.2329Z" fill="black"/>
</svg>
