<svg width="245" height="31" viewBox="0 0 245 31" fill="none" xmlns="http://www.w3.org/2000/svg">
<path d="M19.3213 6.5166C19.3213 6.5459 19.3262 6.58496 19.3359 6.63379C19.3457 6.67285 19.3506 6.7168 19.3506 6.76562C19.3506 6.9707 19.2676 7.15137 19.1016 7.30762C18.9453 7.46387 18.7695 7.54199 18.5742 7.54199C18.418 7.54199 18.2715 7.49316 18.1348 7.39551C18.0078 7.29785 17.915 7.16602 17.8564 7C17.7295 6.62891 17.6074 6.2334 17.4902 5.81348C17.373 5.38379 17.2656 4.96387 17.168 4.55371C17.0801 4.14355 16.9971 3.75781 16.9189 3.39648C16.8408 3.03516 16.7822 2.72754 16.7432 2.47363C16.1865 2.50293 15.5518 2.52734 14.8389 2.54688C14.126 2.55664 13.3594 2.56152 12.5391 2.56152L12.0557 20.6523C12.8564 20.6816 13.6279 20.7402 14.3701 20.8281C14.585 20.8477 14.751 20.9307 14.8682 21.0771C14.9951 21.2139 15.0586 21.3799 15.0586 21.5752C15.0586 21.8193 14.9756 22.0098 14.8096 22.1465C14.6533 22.293 14.4873 22.3662 14.3115 22.3662H14.2236C13.4326 22.2686 12.6514 22.2002 11.8799 22.1611C11.1084 22.1318 10.3369 22.1172 9.56543 22.1172C8.78418 22.1172 8.01758 22.1318 7.26562 22.1611C6.51367 22.2002 5.76172 22.2686 5.00977 22.3662H4.92188C4.70703 22.3662 4.52148 22.2832 4.36523 22.1172C4.21875 21.9512 4.14551 21.7705 4.14551 21.5752C4.14551 21.3799 4.20898 21.2139 4.33594 21.0771C4.47266 20.9307 4.63867 20.8477 4.83398 20.8281C5.58594 20.7402 6.32324 20.6816 7.0459 20.6523L7.38281 2.47363C6.55273 2.44434 5.77148 2.41016 5.03906 2.37109C4.31641 2.32227 3.66699 2.27344 3.09082 2.22461C3.03223 2.48828 2.95898 2.81055 2.87109 3.19141C2.79297 3.57227 2.7002 3.97754 2.59277 4.40723C2.49512 4.83691 2.39258 5.27637 2.28516 5.72559C2.17773 6.16504 2.06543 6.58008 1.94824 6.9707C1.89941 7.13672 1.80664 7.27344 1.66992 7.38086C1.54297 7.48828 1.39648 7.54199 1.23047 7.54199C1.00586 7.54199 0.820312 7.46387 0.673828 7.30762C0.527344 7.1416 0.454102 6.96094 0.454102 6.76562C0.454102 6.73633 0.454102 6.70215 0.454102 6.66309C0.454102 6.61426 0.463867 6.5752 0.483398 6.5459C0.629883 6.02832 0.776367 5.46191 0.922852 4.84668C1.06934 4.23145 1.20117 3.65527 1.31836 3.11816C1.44531 2.58105 1.54785 2.13184 1.62598 1.77051C1.7041 1.40918 1.74316 1.22363 1.74316 1.21387C1.79199 1.02832 1.87988 0.881836 2.00684 0.774414C2.14355 0.666992 2.30469 0.613281 2.49023 0.613281H2.60742C3.11523 0.681641 3.73047 0.740234 4.45312 0.789062C5.18555 0.837891 5.97168 0.881836 6.81152 0.920898C7.66113 0.950195 8.54004 0.974609 9.44824 0.994141C10.3564 1.01367 11.2451 1.02344 12.1143 1.02344C13.1787 1.02344 14.1602 1.01367 15.0586 0.994141C15.957 0.964844 16.709 0.925781 17.3145 0.876953H17.373C17.5488 0.876953 17.71 0.94043 17.8564 1.06738C18.0029 1.18457 18.0908 1.33105 18.1201 1.50684C18.1201 1.5166 18.1348 1.59961 18.1641 1.75586C18.1934 1.91211 18.2324 2.12207 18.2812 2.38574C18.3301 2.64941 18.3887 2.95215 18.457 3.29395C18.5352 3.63574 18.6182 3.99219 18.7061 4.36328C18.7939 4.72461 18.8867 5.0957 18.9844 5.47656C19.0918 5.84766 19.2041 6.19434 19.3213 6.5166ZM30.2344 16.873C30.2148 16.707 30.2002 16.5361 30.1904 16.3604C30.1807 16.1846 30.1758 16.0039 30.1758 15.8184H29.6338C29.2432 15.8184 28.7793 15.8477 28.2422 15.9062C27.7148 15.9648 27.168 16.0576 26.6016 16.1846C26.0352 16.3115 25.4736 16.4824 24.917 16.6973C24.3604 16.9023 23.8623 17.1562 23.4229 17.459C22.9834 17.752 22.627 18.0986 22.3535 18.499C22.0898 18.8994 21.958 19.3584 21.958 19.876C21.958 20.1494 22.0215 20.3838 22.1484 20.5791C22.2852 20.7744 22.4512 20.9355 22.6465 21.0625C22.8516 21.1797 23.0762 21.2676 23.3203 21.3262C23.5645 21.375 23.7988 21.3994 24.0234 21.3994C24.7168 21.3994 25.3711 21.2676 25.9863 21.0039C26.6113 20.7305 27.1875 20.3789 27.7148 19.9492C28.2422 19.5098 28.7158 19.0215 29.1357 18.4844C29.5557 17.9473 29.9219 17.4102 30.2344 16.873ZM37.251 21.9414H37.1924C37.0264 21.9219 36.8555 21.9121 36.6797 21.9121C36.5039 21.9121 36.333 21.9121 36.167 21.9121C35.249 21.9121 34.3652 21.9707 33.5156 22.0879C32.6758 22.2051 31.8311 22.3857 30.9814 22.6299C30.9521 22.6299 30.9229 22.6348 30.8936 22.6445C30.8643 22.6543 30.8252 22.6592 30.7764 22.6592C30.5518 22.6592 30.3662 22.5713 30.2197 22.3955C30.083 22.2295 30.0146 22.0586 30.0146 21.8828V21.7656C30.0146 21.7461 30.0391 21.5508 30.0879 21.1797C30.1367 20.7988 30.1855 20.2715 30.2344 19.5977C29.8145 20.0664 29.3652 20.5059 28.8867 20.916C28.418 21.3164 27.9199 21.668 27.3926 21.9707C26.875 22.2637 26.3379 22.4932 25.7812 22.6592C25.2246 22.835 24.6484 22.9229 24.0527 22.9229C23.584 22.9229 23.1299 22.8496 22.6904 22.7031C22.251 22.5664 21.8604 22.3662 21.5186 22.1025C21.1865 21.8389 20.918 21.5215 20.7129 21.1504C20.5176 20.7695 20.4199 20.3447 20.4199 19.876C20.4199 19.1436 20.5762 18.499 20.8887 17.9424C21.2109 17.3857 21.6309 16.9023 22.1484 16.4922C22.666 16.0723 23.252 15.7256 23.9062 15.4521C24.5703 15.1689 25.2441 14.9443 25.9277 14.7783C26.6113 14.6025 27.2754 14.4805 27.9199 14.4121C28.5645 14.334 29.1357 14.2949 29.6338 14.2949H29.9854C29.9854 13.6992 29.8779 13.1182 29.6631 12.5518C29.458 11.9854 29.165 11.4824 28.7842 11.043C28.4131 10.6035 27.9688 10.252 27.4512 9.98828C26.9336 9.71484 26.3623 9.57812 25.7373 9.57812C25.2783 9.57812 24.8291 9.70996 24.3896 9.97363C23.9502 10.2275 23.5596 10.5547 23.2178 10.9551C22.876 11.3555 22.5977 11.8047 22.3828 12.3027C22.1777 12.8008 22.0752 13.2842 22.0752 13.7529C22.0752 13.9482 21.9922 14.1143 21.8262 14.251C21.6699 14.3779 21.4941 14.4414 21.2988 14.4414C21.084 14.4414 20.8984 14.3633 20.7422 14.207C20.5859 14.041 20.5078 13.8604 20.5078 13.665C20.5078 13.1963 20.5908 12.708 20.7568 12.2002C20.9229 11.6826 21.1621 11.1797 21.4746 10.6914C21.7969 10.1934 22.1826 9.72461 22.6318 9.28516C23.0908 8.8457 23.6084 8.45996 24.1846 8.12793C24.7705 7.78613 25.4102 7.51758 26.1035 7.32227C26.7969 7.12695 27.5342 7.0293 28.3154 7.0293C29.4092 7.0293 30.3418 7.2002 31.1133 7.54199C31.8945 7.88379 32.5439 8.34766 33.0615 8.93359C33.5889 9.51953 34.0039 10.1982 34.3066 10.9697C34.6094 11.7412 34.8389 12.5566 34.9951 13.416C35.1514 14.2754 35.249 15.1494 35.2881 16.0381C35.3369 16.9268 35.3613 17.7764 35.3613 18.5869C35.3613 18.9971 35.3564 19.3486 35.3467 19.6416C35.3369 19.9346 35.332 20.1787 35.332 20.374C35.4785 20.374 35.625 20.3691 35.7715 20.3594C35.9277 20.3496 36.0791 20.3447 36.2256 20.3447C36.3916 20.3447 36.5625 20.3496 36.7383 20.3594C36.9238 20.3691 37.1045 20.374 37.2803 20.374C37.4951 20.3936 37.666 20.4766 37.793 20.623C37.9297 20.7695 37.998 20.9502 37.998 21.165C37.998 21.3701 37.9248 21.5508 37.7783 21.707C37.6416 21.8633 37.4658 21.9414 37.251 21.9414ZM54.9902 14.1338C54.9805 13.46 54.8779 12.7959 54.6826 12.1416C54.4873 11.4775 54.1992 10.8867 53.8184 10.3691C53.4473 9.85156 52.9883 9.43164 52.4414 9.10938C51.9043 8.78711 51.2842 8.62598 50.5811 8.62598C50.0635 8.62598 49.5752 8.73828 49.1162 8.96289C48.667 9.1875 48.252 9.48535 47.8711 9.85645C47.5 10.2275 47.168 10.6523 46.875 11.1309C46.582 11.6094 46.333 12.1074 46.1279 12.625C45.9326 13.1426 45.7812 13.6602 45.6738 14.1777C45.5664 14.6953 45.5127 15.1738 45.5127 15.6133V18.5869C45.6299 19.0459 45.835 19.4414 46.1279 19.7734C46.4209 20.0957 46.7627 20.3691 47.1533 20.5938C47.5439 20.8086 47.9639 20.9697 48.4131 21.0771C48.8623 21.1748 49.2969 21.2236 49.7168 21.2236C50.3613 21.2236 50.9375 21.1162 51.4453 20.9014C51.9629 20.6865 52.417 20.3984 52.8076 20.0371C53.1982 19.6758 53.5303 19.2607 53.8037 18.792C54.0771 18.3135 54.3018 17.8105 54.4775 17.2832C54.6533 16.7559 54.7803 16.2236 54.8584 15.6865C54.9463 15.1396 54.9902 14.6221 54.9902 14.1338ZM56.5576 14.1338C56.5576 14.8369 56.4893 15.54 56.3525 16.2432C56.2256 16.9365 56.0303 17.6055 55.7666 18.25C55.5127 18.8848 55.1953 19.4805 54.8145 20.0371C54.4336 20.584 53.9893 21.0625 53.4814 21.4727C52.9736 21.873 52.4023 22.1904 51.7676 22.4248C51.1426 22.6592 50.459 22.7764 49.7168 22.7764C48.9258 22.7764 48.1641 22.6494 47.4316 22.3955C46.709 22.1514 46.0693 21.79 45.5127 21.3115V28.2109C45.7373 28.2305 45.9668 28.25 46.2012 28.2695C46.4355 28.2988 46.665 28.3281 46.8896 28.3574C47.085 28.3867 47.2412 28.4746 47.3584 28.6211C47.4854 28.7676 47.5488 28.9287 47.5488 29.1045C47.5488 29.3584 47.4609 29.5537 47.2852 29.6904C47.1094 29.8271 46.9385 29.8955 46.7725 29.8955H46.6846C46.1084 29.8174 45.5176 29.749 44.9121 29.6904C44.3066 29.6416 43.667 29.6172 42.9932 29.6172C42.3779 29.6172 41.7334 29.6416 41.0596 29.6904C40.3955 29.749 39.6777 29.8564 38.9062 30.0127H38.7891C38.5645 30.0127 38.3789 29.9346 38.2324 29.7783C38.0859 29.6318 38.0127 29.4609 38.0127 29.2656C38.0127 29.0801 38.0664 28.9141 38.1738 28.7676C38.291 28.6309 38.4473 28.543 38.6426 28.5039C39.2285 28.3867 39.7803 28.2988 40.2979 28.2402V8.94824C39.7705 8.91895 39.3359 8.88477 38.9941 8.8457C38.6523 8.79688 38.4668 8.77246 38.4375 8.77246C38.2422 8.74316 38.0811 8.65527 37.9541 8.50879C37.8271 8.3623 37.7637 8.20117 37.7637 8.02539C37.7637 7.77148 37.8516 7.57617 38.0273 7.43945C38.2129 7.30273 38.3887 7.23438 38.5547 7.23438H38.6426C38.6523 7.23438 38.7549 7.24902 38.9502 7.27832C39.1455 7.29785 39.3994 7.32715 39.7119 7.36621C40.0342 7.39551 40.4004 7.4248 40.8105 7.4541C41.2207 7.47363 41.6455 7.4834 42.085 7.4834C42.5146 7.4834 42.9443 7.46875 43.374 7.43945C43.8037 7.40039 44.2041 7.3418 44.5752 7.26367C44.6143 7.24414 44.668 7.23438 44.7363 7.23438C44.9609 7.23438 45.1465 7.31738 45.293 7.4834C45.4395 7.64941 45.5127 7.83008 45.5127 8.02539V10.4131C46.0986 9.3877 46.8213 8.57715 47.6807 7.98145C48.5498 7.38574 49.5166 7.08789 50.5811 7.08789C51.5381 7.08789 52.3828 7.29785 53.1152 7.71777C53.8477 8.1377 54.4629 8.68457 54.9609 9.3584C55.4688 10.0322 55.8545 10.7891 56.1182 11.6289C56.3818 12.4688 56.5283 13.3037 56.5576 14.1338ZM79.6729 7.74707C79.6729 7.94238 79.6045 8.11816 79.4678 8.27441C79.3408 8.4209 79.1797 8.50391 78.9844 8.52344C78.3496 8.57227 77.7197 8.61621 77.0947 8.65527C76.4697 8.69434 75.8398 8.72363 75.2051 8.74316V18.9971C75.2051 19.1924 75.2441 19.373 75.3223 19.5391C75.4102 19.7051 75.5176 19.8467 75.6445 19.9639C75.7812 20.0811 75.9326 20.1738 76.0986 20.2422C76.2646 20.3105 76.4355 20.3447 76.6113 20.3447C76.875 20.3447 77.0898 20.2764 77.2559 20.1396C77.4316 19.9932 77.5781 19.8174 77.6953 19.6123C77.8125 19.3975 77.9053 19.1729 77.9736 18.9385C78.0518 18.7041 78.1152 18.4941 78.1641 18.3086C78.1934 18.1328 78.2812 17.9912 78.4277 17.8838C78.5742 17.7666 78.7354 17.708 78.9111 17.708C79.1357 17.708 79.3164 17.7959 79.4531 17.9717C79.5996 18.1377 79.6729 18.3086 79.6729 18.4844V18.6455C79.3896 19.9443 78.833 20.9502 78.0029 21.6631C77.1729 22.3662 76.1475 22.7178 74.9268 22.7178C74.3701 22.7178 73.7988 22.6445 73.2129 22.498C72.627 22.3516 72.0947 22.0781 71.6162 21.6777C71.1475 21.2773 70.7617 20.7256 70.459 20.0225C70.1562 19.3096 70.0049 18.3867 70.0049 17.2539V8.71387C69.5654 8.68457 69.1211 8.65527 68.6719 8.62598C68.2324 8.59668 67.7881 8.5625 67.3389 8.52344C67.1436 8.49414 66.9775 8.40625 66.8408 8.25977C66.7139 8.11328 66.6504 7.94238 66.6504 7.74707C66.6504 7.52246 66.7334 7.3418 66.8994 7.20508C67.0752 7.06836 67.251 7 67.4268 7H67.4854C67.915 7.0293 68.335 7.05859 68.7451 7.08789C69.165 7.11719 69.585 7.14648 70.0049 7.17578V2.19531C70.0049 2.0293 70.0586 1.87793 70.166 1.74121C70.2734 1.59473 70.4102 1.49707 70.5762 1.44824L74.2383 0.466797C74.2676 0.447266 74.3018 0.4375 74.3408 0.4375C74.3799 0.427734 74.4141 0.422852 74.4434 0.422852C74.668 0.422852 74.8486 0.505859 74.9854 0.671875C75.1318 0.837891 75.2051 1.01855 75.2051 1.21387V7.20508C75.8008 7.18555 76.4014 7.16113 77.0068 7.13184C77.6221 7.09277 78.2373 7.04883 78.8525 7H78.9111C79.126 7 79.3066 7.07812 79.4531 7.23438C79.5996 7.38086 79.6729 7.55176 79.6729 7.74707ZM95.7568 14.7637C95.7568 14.2852 95.7031 13.8018 95.5957 13.3135C95.4883 12.8252 95.332 12.3516 95.127 11.8926C94.9219 11.4336 94.6729 11.0039 94.3799 10.6035C94.0869 10.2031 93.7549 9.85645 93.3838 9.56348C93.0225 9.26074 92.6221 9.02637 92.1826 8.86035C91.7529 8.68457 91.2939 8.59668 90.8057 8.59668C90.2588 8.59668 89.7803 8.68945 89.3701 8.875C88.9697 9.05078 88.6182 9.29492 88.3154 9.60742C88.0127 9.91016 87.7637 10.2617 87.5684 10.6621C87.373 11.0625 87.2168 11.4873 87.0996 11.9365C86.9824 12.3857 86.8994 12.8398 86.8506 13.2988C86.8018 13.7578 86.7773 14.1973 86.7773 14.6172C86.7773 15.0469 86.7969 15.5059 86.8359 15.9941C86.875 16.4727 86.9434 16.9512 87.041 17.4297C87.1387 17.8984 87.2705 18.3525 87.4365 18.792C87.6025 19.2314 87.8174 19.6172 88.0811 19.9492C88.3447 20.2812 88.6621 20.5449 89.0332 20.7402C89.4141 20.9355 89.8633 21.0332 90.3809 21.0332C91.2305 21.0332 91.9873 20.8574 92.6514 20.5059C93.3252 20.1445 93.8916 19.6709 94.3506 19.085C94.8096 18.499 95.1562 17.8301 95.3906 17.0781C95.6348 16.3262 95.7568 15.5547 95.7568 14.7637ZM97.2803 14.7637C97.2803 15.9355 97.0703 17.0098 96.6504 17.9863C96.2305 18.9629 95.6641 19.8027 94.9512 20.5059C94.2383 21.1992 93.4033 21.7412 92.4463 22.1318C91.499 22.5225 90.498 22.7178 89.4434 22.7178C88.252 22.7178 87.1729 22.5273 86.2061 22.1465C85.249 21.7754 84.4287 21.2432 83.7451 20.5498C83.0615 19.8564 82.5342 19.0215 82.1631 18.0449C81.8018 17.0684 81.6211 15.9746 81.6211 14.7637C81.6211 13.6113 81.8213 12.5469 82.2217 11.5703C82.6221 10.5938 83.1738 9.75391 83.877 9.05078C84.5801 8.33789 85.4053 7.78613 86.3525 7.39551C87.3096 6.99512 88.3398 6.79492 89.4434 6.79492C90.5957 6.79492 91.6504 7.00977 92.6074 7.43945C93.5742 7.85938 94.4043 8.43555 95.0977 9.16797C95.791 9.89062 96.3281 10.7354 96.709 11.7021C97.0898 12.6689 97.2803 13.6895 97.2803 14.7637ZM122.856 12.2734C122.827 12.4688 122.734 12.6299 122.578 12.7568C122.432 12.8838 122.261 12.9473 122.065 12.9473C121.87 12.9473 121.699 12.8789 121.553 12.7422C121.416 12.6055 121.338 12.4297 121.318 12.2148C121.318 11.7949 121.23 11.3555 121.055 10.8965C120.879 10.4375 120.64 10.0176 120.337 9.63672C120.034 9.25586 119.688 8.94336 119.297 8.69922C118.906 8.44531 118.491 8.31836 118.052 8.31836C117.505 8.31836 117.021 8.43555 116.602 8.66992C116.182 8.89453 115.815 9.19727 115.503 9.57812C115.19 9.95898 114.932 10.3936 114.727 10.8818C114.521 11.3701 114.355 11.873 114.229 12.3906C114.102 12.8984 114.009 13.4014 113.95 13.8994C113.901 14.3975 113.877 14.8467 113.877 15.2471C113.877 15.9307 113.95 16.6143 114.097 17.2979C114.253 17.9814 114.487 18.5967 114.8 19.1436C115.112 19.6807 115.513 20.1201 116.001 20.4619C116.489 20.8037 117.07 20.9746 117.744 20.9746C118.242 20.9746 118.711 20.8623 119.15 20.6377C119.59 20.4131 119.98 20.125 120.322 19.7734C120.674 19.4121 120.972 19.0166 121.216 18.5869C121.46 18.1572 121.636 17.7373 121.743 17.3271C121.792 17.1416 121.88 16.9902 122.007 16.873C122.144 16.7559 122.305 16.6973 122.49 16.6973C122.705 16.6973 122.886 16.7803 123.032 16.9463C123.188 17.1025 123.267 17.2783 123.267 17.4736C123.267 17.5322 123.257 17.5811 123.237 17.6201C123.169 17.9424 123.052 18.2939 122.886 18.6748C122.72 19.0557 122.5 19.4365 122.227 19.8174C121.963 20.1982 121.641 20.5693 121.26 20.9307C120.879 21.2822 120.444 21.5947 119.956 21.8682C119.468 22.1416 118.926 22.3613 118.33 22.5273C117.734 22.6934 117.08 22.7764 116.367 22.7764C115.244 22.7764 114.209 22.5859 113.262 22.2051C112.314 21.834 111.499 21.3115 110.815 20.6377C110.132 19.9541 109.595 19.1387 109.204 18.1914C108.823 17.2344 108.633 16.1846 108.633 15.042C108.633 13.8115 108.799 12.6689 109.131 11.6143C109.473 10.5596 109.966 9.64648 110.61 8.875C111.265 8.10352 112.065 7.49805 113.013 7.05859C113.97 6.61914 115.068 6.39941 116.309 6.39941C117.422 6.39941 118.457 6.62402 119.414 7.07324C120.371 7.5127 121.157 8.17676 121.772 9.06543L122.256 6.07715C122.285 5.8916 122.368 5.74023 122.505 5.62305C122.651 5.50586 122.817 5.44727 123.003 5.44727C123.247 5.44727 123.438 5.53027 123.574 5.69629C123.711 5.8623 123.779 6.02832 123.779 6.19434V6.31152L122.856 12.2734ZM140.024 14.7637C140.024 14.2852 139.971 13.8018 139.863 13.3135C139.756 12.8252 139.6 12.3516 139.395 11.8926C139.189 11.4336 138.94 11.0039 138.647 10.6035C138.354 10.2031 138.022 9.85645 137.651 9.56348C137.29 9.26074 136.89 9.02637 136.45 8.86035C136.021 8.68457 135.562 8.59668 135.073 8.59668C134.526 8.59668 134.048 8.68945 133.638 8.875C133.237 9.05078 132.886 9.29492 132.583 9.60742C132.28 9.91016 132.031 10.2617 131.836 10.6621C131.641 11.0625 131.484 11.4873 131.367 11.9365C131.25 12.3857 131.167 12.8398 131.118 13.2988C131.069 13.7578 131.045 14.1973 131.045 14.6172C131.045 15.0469 131.064 15.5059 131.104 15.9941C131.143 16.4727 131.211 16.9512 131.309 17.4297C131.406 17.8984 131.538 18.3525 131.704 18.792C131.87 19.2314 132.085 19.6172 132.349 19.9492C132.612 20.2812 132.93 20.5449 133.301 20.7402C133.682 20.9355 134.131 21.0332 134.648 21.0332C135.498 21.0332 136.255 20.8574 136.919 20.5059C137.593 20.1445 138.159 19.6709 138.618 19.085C139.077 18.499 139.424 17.8301 139.658 17.0781C139.902 16.3262 140.024 15.5547 140.024 14.7637ZM141.548 14.7637C141.548 15.9355 141.338 17.0098 140.918 17.9863C140.498 18.9629 139.932 19.8027 139.219 20.5059C138.506 21.1992 137.671 21.7412 136.714 22.1318C135.767 22.5225 134.766 22.7178 133.711 22.7178C132.52 22.7178 131.44 22.5273 130.474 22.1465C129.517 21.7754 128.696 21.2432 128.013 20.5498C127.329 19.8564 126.802 19.0215 126.431 18.0449C126.069 17.0684 125.889 15.9746 125.889 14.7637C125.889 13.6113 126.089 12.5469 126.489 11.5703C126.89 10.5938 127.441 9.75391 128.145 9.05078C128.848 8.33789 129.673 7.78613 130.62 7.39551C131.577 6.99512 132.607 6.79492 133.711 6.79492C134.863 6.79492 135.918 7.00977 136.875 7.43945C137.842 7.85938 138.672 8.43555 139.365 9.16797C140.059 9.89062 140.596 10.7354 140.977 11.7021C141.357 12.6689 141.548 13.6895 141.548 14.7637ZM162.48 21.3408C162.461 21.5361 162.373 21.7021 162.217 21.8389C162.061 21.9658 161.885 22.0293 161.689 22.0293H161.631C161.162 21.9805 160.708 21.9463 160.269 21.9268C159.839 21.8975 159.414 21.8828 158.994 21.8828C158.379 21.8828 157.788 21.9121 157.222 21.9707C156.665 22.0195 156.118 22.0879 155.581 22.1758C155.562 22.1758 155.537 22.1807 155.508 22.1904C155.488 22.2002 155.469 22.2051 155.449 22.2051C155.244 22.2051 155.063 22.127 154.907 21.9707C154.751 21.8047 154.673 21.624 154.673 21.4287C154.673 21.2529 154.731 21.0918 154.849 20.9453C154.976 20.7988 155.127 20.7109 155.303 20.6816C155.713 20.6035 156.123 20.5449 156.533 20.5059C156.953 20.457 157.383 20.4131 157.822 20.374C157.91 20.0713 158.003 19.6611 158.101 19.1436C158.198 18.626 158.286 18.0693 158.364 17.4736C158.452 16.8779 158.521 16.2773 158.569 15.6719C158.628 15.0664 158.657 14.5244 158.657 14.0459C158.657 13.5479 158.628 13.0059 158.569 12.4199C158.521 11.834 158.398 11.2871 158.203 10.7793C158.018 10.2617 157.744 9.83203 157.383 9.49023C157.031 9.14844 156.558 8.97754 155.962 8.97754C155.288 8.97754 154.663 9.14355 154.087 9.47559C153.511 9.80762 153.013 10.2324 152.593 10.75C152.183 11.2578 151.855 11.8193 151.611 12.4346C151.377 13.0498 151.26 13.6406 151.26 14.207V14.2363L151.23 20.6816C151.406 20.7012 151.577 20.7207 151.743 20.7402C151.909 20.75 152.075 20.7695 152.241 20.7988C152.437 20.8184 152.598 20.9014 152.725 21.0479C152.861 21.1846 152.93 21.3506 152.93 21.5459C152.93 21.7607 152.847 21.9463 152.681 22.1025C152.524 22.2588 152.349 22.3369 152.153 22.3369C152.114 22.3369 152.085 22.3223 152.065 22.293C151.479 22.2344 150.879 22.1758 150.264 22.1172C149.658 22.0586 149.019 22.0293 148.345 22.0293C147.739 22.0293 147.1 22.0586 146.426 22.1172C145.762 22.1855 145.049 22.2881 144.287 22.4248C144.248 22.4443 144.199 22.4541 144.141 22.4541C143.916 22.4541 143.735 22.3711 143.599 22.2051C143.462 22.0391 143.394 21.8584 143.394 21.6631C143.394 21.4873 143.447 21.3262 143.555 21.1797C143.662 21.0332 143.809 20.9453 143.994 20.916C144.355 20.8379 144.702 20.7793 145.034 20.7402C145.366 20.6914 145.698 20.6523 146.03 20.623V9.43164C145.415 9.40234 144.897 9.36816 144.478 9.3291C144.067 9.28027 143.838 9.24609 143.789 9.22656C143.594 9.20703 143.433 9.12402 143.306 8.97754C143.188 8.83105 143.13 8.66016 143.13 8.46484C143.13 8.23047 143.213 8.04492 143.379 7.9082C143.545 7.76172 143.721 7.68848 143.906 7.68848C143.945 7.68848 143.975 7.69824 143.994 7.71777C144.004 7.71777 144.116 7.72754 144.331 7.74707C144.546 7.7666 144.824 7.79102 145.166 7.82031C145.518 7.84961 145.913 7.87402 146.353 7.89355C146.792 7.91309 147.246 7.92285 147.715 7.92285C148.184 7.92285 148.643 7.91309 149.092 7.89355C149.541 7.86426 149.951 7.80566 150.322 7.71777C150.342 7.71777 150.361 7.71289 150.381 7.70312C150.41 7.69336 150.439 7.68848 150.469 7.68848C150.693 7.68848 150.879 7.77148 151.025 7.9375C151.182 8.09375 151.26 8.26953 151.26 8.46484V9.97363C151.826 9.14355 152.5 8.51855 153.281 8.09863C154.072 7.66895 154.966 7.4541 155.962 7.4541C156.548 7.4541 157.056 7.55664 157.485 7.76172C157.925 7.95703 158.301 8.22559 158.613 8.56738C158.936 8.90918 159.194 9.30469 159.39 9.75391C159.595 10.1934 159.756 10.6572 159.873 11.1455C160 11.6338 160.083 12.1318 160.122 12.6396C160.171 13.1377 160.195 13.6064 160.195 14.0459C160.195 14.5342 160.171 15.0713 160.122 15.6572C160.073 16.2334 160.01 16.8096 159.932 17.3857C159.863 17.9619 159.78 18.5088 159.683 19.0264C159.595 19.5439 159.507 19.9834 159.419 20.3447C159.79 20.3643 160.171 20.3838 160.562 20.4033C160.962 20.4229 161.367 20.457 161.777 20.5059C162.002 20.5254 162.173 20.623 162.29 20.7988C162.417 20.9648 162.48 21.1455 162.48 21.3408ZM175.503 7.74707C175.503 7.94238 175.435 8.11816 175.298 8.27441C175.171 8.4209 175.01 8.50391 174.814 8.52344C174.18 8.57227 173.55 8.61621 172.925 8.65527C172.3 8.69434 171.67 8.72363 171.035 8.74316V18.9971C171.035 19.1924 171.074 19.373 171.152 19.5391C171.24 19.7051 171.348 19.8467 171.475 19.9639C171.611 20.0811 171.763 20.1738 171.929 20.2422C172.095 20.3105 172.266 20.3447 172.441 20.3447C172.705 20.3447 172.92 20.2764 173.086 20.1396C173.262 19.9932 173.408 19.8174 173.525 19.6123C173.643 19.3975 173.735 19.1729 173.804 18.9385C173.882 18.7041 173.945 18.4941 173.994 18.3086C174.023 18.1328 174.111 17.9912 174.258 17.8838C174.404 17.7666 174.565 17.708 174.741 17.708C174.966 17.708 175.146 17.7959 175.283 17.9717C175.43 18.1377 175.503 18.3086 175.503 18.4844V18.6455C175.22 19.9443 174.663 20.9502 173.833 21.6631C173.003 22.3662 171.978 22.7178 170.757 22.7178C170.2 22.7178 169.629 22.6445 169.043 22.498C168.457 22.3516 167.925 22.0781 167.446 21.6777C166.978 21.2773 166.592 20.7256 166.289 20.0225C165.986 19.3096 165.835 18.3867 165.835 17.2539V8.71387C165.396 8.68457 164.951 8.65527 164.502 8.62598C164.062 8.59668 163.618 8.5625 163.169 8.52344C162.974 8.49414 162.808 8.40625 162.671 8.25977C162.544 8.11328 162.48 7.94238 162.48 7.74707C162.48 7.52246 162.563 7.3418 162.729 7.20508C162.905 7.06836 163.081 7 163.257 7H163.315C163.745 7.0293 164.165 7.05859 164.575 7.08789C164.995 7.11719 165.415 7.14648 165.835 7.17578V2.19531C165.835 2.0293 165.889 1.87793 165.996 1.74121C166.104 1.59473 166.24 1.49707 166.406 1.44824L170.068 0.466797C170.098 0.447266 170.132 0.4375 170.171 0.4375C170.21 0.427734 170.244 0.422852 170.273 0.422852C170.498 0.422852 170.679 0.505859 170.815 0.671875C170.962 0.837891 171.035 1.01855 171.035 1.21387V7.20508C171.631 7.18555 172.231 7.16113 172.837 7.13184C173.452 7.09277 174.067 7.04883 174.683 7H174.741C174.956 7 175.137 7.07812 175.283 7.23438C175.43 7.38086 175.503 7.55176 175.503 7.74707ZM186.87 22.3662C186.851 22.3662 186.826 22.3613 186.797 22.3516C186.777 22.3418 186.753 22.3369 186.724 22.3369C185.933 22.1807 185.181 22.0684 184.468 22C183.755 21.9219 183.047 21.8828 182.344 21.8828C181.631 21.8828 180.923 21.9219 180.22 22C179.517 22.0684 178.774 22.1807 177.993 22.3369C177.964 22.3369 177.939 22.3418 177.92 22.3516C177.9 22.3613 177.876 22.3662 177.847 22.3662C177.622 22.3662 177.437 22.2832 177.29 22.1172C177.153 21.9512 177.085 21.7705 177.085 21.5752C177.085 21.3994 177.139 21.2383 177.246 21.0918C177.363 20.9453 177.51 20.8574 177.686 20.8281C178.027 20.75 178.369 20.6914 178.711 20.6523C179.062 20.6035 179.404 20.5547 179.736 20.5059V9.28516C179.121 9.25586 178.604 9.2168 178.184 9.16797C177.764 9.11914 177.529 9.09473 177.48 9.09473C177.285 9.06543 177.124 8.97754 176.997 8.83105C176.88 8.68457 176.821 8.51367 176.821 8.31836C176.821 8.07422 176.909 7.88867 177.085 7.76172C177.261 7.63477 177.432 7.57129 177.598 7.57129H177.686C177.695 7.57129 177.808 7.58594 178.022 7.61523C178.237 7.63477 178.516 7.65918 178.857 7.68848C179.209 7.71777 179.604 7.74707 180.044 7.77637C180.483 7.7959 180.938 7.80566 181.406 7.80566C181.875 7.80566 182.334 7.79102 182.783 7.76172C183.232 7.72266 183.643 7.65918 184.014 7.57129H184.175C184.399 7.57129 184.585 7.64941 184.731 7.80566C184.878 7.95215 184.951 8.12305 184.951 8.31836L184.922 20.5059C185.264 20.5547 185.605 20.6035 185.947 20.6523C186.299 20.6914 186.655 20.75 187.017 20.8281C187.202 20.8574 187.354 20.9453 187.471 21.0918C187.588 21.2383 187.646 21.3994 187.646 21.5752C187.646 21.7998 187.563 21.9854 187.397 22.1318C187.231 22.2881 187.056 22.3662 186.87 22.3662ZM184.746 3.10352C184.746 3.46484 184.678 3.80664 184.541 4.12891C184.404 4.44141 184.214 4.71484 183.97 4.94922C183.735 5.18359 183.457 5.36914 183.135 5.50586C182.822 5.64258 182.485 5.71094 182.124 5.71094C181.763 5.71094 181.421 5.64258 181.099 5.50586C180.786 5.36914 180.513 5.18359 180.278 4.94922C180.044 4.71484 179.858 4.44141 179.722 4.12891C179.585 3.80664 179.517 3.46484 179.517 3.10352C179.517 2.74219 179.585 2.40527 179.722 2.09277C179.858 1.77051 180.044 1.49219 180.278 1.25781C180.513 1.02344 180.786 0.837891 181.099 0.701172C181.421 0.564453 181.763 0.496094 182.124 0.496094C182.485 0.496094 182.822 0.564453 183.135 0.701172C183.457 0.837891 183.735 1.02344 183.97 1.25781C184.214 1.49219 184.404 1.77051 184.541 2.09277C184.678 2.40527 184.746 2.74219 184.746 3.10352ZM207.627 21.3408C207.607 21.5361 207.52 21.7021 207.363 21.8389C207.207 21.9658 207.031 22.0293 206.836 22.0293H206.777C206.309 21.9805 205.854 21.9463 205.415 21.9268C204.985 21.8975 204.561 21.8828 204.141 21.8828C203.525 21.8828 202.935 21.9121 202.368 21.9707C201.812 22.0195 201.265 22.0879 200.728 22.1758C200.708 22.1758 200.684 22.1807 200.654 22.1904C200.635 22.2002 200.615 22.2051 200.596 22.2051C200.391 22.2051 200.21 22.127 200.054 21.9707C199.897 21.8047 199.819 21.624 199.819 21.4287C199.819 21.2529 199.878 21.0918 199.995 20.9453C200.122 20.7988 200.273 20.7109 200.449 20.6816C200.859 20.6035 201.27 20.5449 201.68 20.5059C202.1 20.457 202.529 20.4131 202.969 20.374C203.057 20.0713 203.149 19.6611 203.247 19.1436C203.345 18.626 203.433 18.0693 203.511 17.4736C203.599 16.8779 203.667 16.2773 203.716 15.6719C203.774 15.0664 203.804 14.5244 203.804 14.0459C203.804 13.5479 203.774 13.0059 203.716 12.4199C203.667 11.834 203.545 11.2871 203.35 10.7793C203.164 10.2617 202.891 9.83203 202.529 9.49023C202.178 9.14844 201.704 8.97754 201.108 8.97754C200.435 8.97754 199.81 9.14355 199.233 9.47559C198.657 9.80762 198.159 10.2324 197.739 10.75C197.329 11.2578 197.002 11.8193 196.758 12.4346C196.523 13.0498 196.406 13.6406 196.406 14.207V14.2363L196.377 20.6816C196.553 20.7012 196.724 20.7207 196.89 20.7402C197.056 20.75 197.222 20.7695 197.388 20.7988C197.583 20.8184 197.744 20.9014 197.871 21.0479C198.008 21.1846 198.076 21.3506 198.076 21.5459C198.076 21.7607 197.993 21.9463 197.827 22.1025C197.671 22.2588 197.495 22.3369 197.3 22.3369C197.261 22.3369 197.231 22.3223 197.212 22.293C196.626 22.2344 196.025 22.1758 195.41 22.1172C194.805 22.0586 194.165 22.0293 193.491 22.0293C192.886 22.0293 192.246 22.0586 191.572 22.1172C190.908 22.1855 190.195 22.2881 189.434 22.4248C189.395 22.4443 189.346 22.4541 189.287 22.4541C189.062 22.4541 188.882 22.3711 188.745 22.2051C188.608 22.0391 188.54 21.8584 188.54 21.6631C188.54 21.4873 188.594 21.3262 188.701 21.1797C188.809 21.0332 188.955 20.9453 189.141 20.916C189.502 20.8379 189.849 20.7793 190.181 20.7402C190.513 20.6914 190.845 20.6523 191.177 20.623V9.43164C190.562 9.40234 190.044 9.36816 189.624 9.3291C189.214 9.28027 188.984 9.24609 188.936 9.22656C188.74 9.20703 188.579 9.12402 188.452 8.97754C188.335 8.83105 188.276 8.66016 188.276 8.46484C188.276 8.23047 188.359 8.04492 188.525 7.9082C188.691 7.76172 188.867 7.68848 189.053 7.68848C189.092 7.68848 189.121 7.69824 189.141 7.71777C189.15 7.71777 189.263 7.72754 189.478 7.74707C189.692 7.7666 189.971 7.79102 190.312 7.82031C190.664 7.84961 191.06 7.87402 191.499 7.89355C191.938 7.91309 192.393 7.92285 192.861 7.92285C193.33 7.92285 193.789 7.91309 194.238 7.89355C194.688 7.86426 195.098 7.80566 195.469 7.71777C195.488 7.71777 195.508 7.71289 195.527 7.70312C195.557 7.69336 195.586 7.68848 195.615 7.68848C195.84 7.68848 196.025 7.77148 196.172 7.9375C196.328 8.09375 196.406 8.26953 196.406 8.46484V9.97363C196.973 9.14355 197.646 8.51855 198.428 8.09863C199.219 7.66895 200.112 7.4541 201.108 7.4541C201.694 7.4541 202.202 7.55664 202.632 7.76172C203.071 7.95703 203.447 8.22559 203.76 8.56738C204.082 8.90918 204.341 9.30469 204.536 9.75391C204.741 10.1934 204.902 10.6572 205.02 11.1455C205.146 11.6338 205.229 12.1318 205.269 12.6396C205.317 13.1377 205.342 13.6064 205.342 14.0459C205.342 14.5342 205.317 15.0713 205.269 15.6572C205.22 16.2334 205.156 16.8096 205.078 17.3857C205.01 17.9619 204.927 18.5088 204.829 19.0264C204.741 19.5439 204.653 19.9834 204.565 20.3447C204.937 20.3643 205.317 20.3838 205.708 20.4033C206.108 20.4229 206.514 20.457 206.924 20.5059C207.148 20.5254 207.319 20.623 207.437 20.7988C207.563 20.9648 207.627 21.1455 207.627 21.3408ZM227.842 7.4834C227.842 7.65918 227.783 7.82031 227.666 7.9668C227.559 8.11328 227.407 8.20117 227.212 8.23047C226.87 8.30859 226.528 8.37207 226.187 8.4209C225.845 8.45996 225.508 8.50391 225.176 8.55273L224.941 20.6816C225.283 20.6816 225.63 20.6914 225.981 20.7109C226.343 20.7207 226.694 20.75 227.036 20.7988C227.251 20.8184 227.417 20.9062 227.534 21.0625C227.661 21.209 227.725 21.3701 227.725 21.5459C227.725 21.79 227.642 21.9805 227.476 22.1172C227.319 22.2637 227.153 22.3369 226.978 22.3369H226.89C226.489 22.2881 226.094 22.2539 225.703 22.2344C225.322 22.2148 224.946 22.2051 224.575 22.2051C223.901 22.2051 223.232 22.2393 222.568 22.3076C221.914 22.376 221.265 22.4834 220.62 22.6299H220.459C220.254 22.6299 220.073 22.5518 219.917 22.3955C219.761 22.249 219.683 22.0781 219.683 21.8828V21.8535L219.771 19.1729C219.155 20.2959 218.438 21.1553 217.617 21.751C216.797 22.3369 215.884 22.6299 214.878 22.6299C214.243 22.6299 213.682 22.5273 213.193 22.3223C212.715 22.1172 212.29 21.8438 211.919 21.502C211.558 21.1504 211.25 20.75 210.996 20.3008C210.752 19.8418 210.552 19.3633 210.396 18.8652C210.249 18.3574 210.142 17.8447 210.073 17.3271C210.005 16.8096 209.971 16.3164 209.971 15.8477C209.971 14.5684 210.093 13.3135 210.337 12.083C210.591 10.8525 210.967 9.69043 211.465 8.59668L208.828 8.52344C208.613 8.50391 208.433 8.42578 208.286 8.28906C208.149 8.14258 208.081 7.96191 208.081 7.74707C208.081 7.55176 208.154 7.38086 208.301 7.23438C208.447 7.07812 208.633 7 208.857 7L212.725 7.08789C212.939 7.11719 213.115 7.20508 213.252 7.35156C213.398 7.48828 213.472 7.65918 213.472 7.86426C213.472 7.94238 213.457 8.01562 213.428 8.08398C213.408 8.14258 213.384 8.20117 213.354 8.25977C213.169 8.44531 212.993 8.72363 212.827 9.09473C212.661 9.46582 212.51 9.89062 212.373 10.3691C212.236 10.8379 212.114 11.3408 212.007 11.8779C211.899 12.4053 211.807 12.9229 211.729 13.4307C211.65 13.9287 211.592 14.3926 211.553 14.8223C211.514 15.252 211.494 15.6035 211.494 15.877C211.494 16.4824 211.543 17.0977 211.641 17.7227C211.748 18.3379 211.929 18.8994 212.183 19.4072C212.437 19.9053 212.778 20.3154 213.208 20.6377C213.638 20.9502 214.185 21.1064 214.849 21.1064C215.444 21.1064 216.011 20.9355 216.548 20.5938C217.085 20.2422 217.568 19.7441 217.998 19.0996C218.438 18.4551 218.818 17.6689 219.141 16.7412C219.473 15.8135 219.736 14.7686 219.932 13.6064L220.107 7.71777C220.107 7.50293 220.19 7.33203 220.356 7.20508C220.522 7.06836 220.698 7 220.884 7H220.972C221.304 7.04883 221.641 7.08301 221.982 7.10254C222.324 7.1123 222.681 7.11719 223.052 7.11719C223.647 7.11719 224.268 7.08789 224.912 7.0293C225.566 6.9707 226.245 6.87305 226.948 6.73633C226.968 6.73633 226.987 6.73145 227.007 6.72168C227.026 6.71191 227.046 6.70703 227.065 6.70703C227.29 6.70703 227.476 6.79004 227.622 6.95605C227.769 7.1123 227.842 7.28809 227.842 7.4834ZM242.622 14.2656V14.0166C242.622 13.2842 242.544 12.6055 242.388 11.9805C242.231 11.3555 241.982 10.8037 241.641 10.3252C241.309 9.83691 240.879 9.43652 240.352 9.12402C239.824 8.81152 239.189 8.60156 238.447 8.49414C237.93 8.55273 237.48 8.69434 237.1 8.91895C236.719 9.14355 236.392 9.42188 236.118 9.75391C235.854 10.0762 235.635 10.4424 235.459 10.8525C235.283 11.2627 235.142 11.6875 235.034 12.127C234.937 12.5566 234.863 12.9912 234.814 13.4307C234.766 13.8604 234.736 14.2656 234.727 14.6465C234.883 14.6953 235.078 14.749 235.312 14.8076C235.557 14.8662 235.83 14.9248 236.133 14.9834C236.436 15.0322 236.763 15.0762 237.114 15.1152C237.476 15.1445 237.852 15.1592 238.242 15.1592C239.072 15.1592 239.849 15.0811 240.571 14.9248C241.304 14.7686 241.987 14.5488 242.622 14.2656ZM244.116 14.8369C244.087 15.0908 243.95 15.3105 243.706 15.4961C243.462 15.6816 243.154 15.8477 242.783 15.9941C242.412 16.1309 242.002 16.248 241.553 16.3457C241.113 16.4336 240.679 16.5068 240.249 16.5654C239.819 16.624 239.424 16.668 239.062 16.6973C238.701 16.7168 238.418 16.7266 238.213 16.7266C237.5 16.7266 236.841 16.6777 236.235 16.5801C235.64 16.4824 235.146 16.3799 234.756 16.2725C234.814 16.8779 234.927 17.4736 235.093 18.0596C235.259 18.6455 235.498 19.1729 235.811 19.6416C236.123 20.1006 236.514 20.4766 236.982 20.7695C237.451 21.0527 238.018 21.1943 238.682 21.1943C238.926 21.1943 239.204 21.165 239.517 21.1064C239.829 21.0381 240.137 20.9453 240.439 20.8281C240.742 20.7012 241.021 20.5547 241.274 20.3887C241.528 20.2129 241.729 20.0176 241.875 19.8027C242.041 19.6074 242.241 19.5098 242.476 19.5098C242.681 19.5098 242.861 19.5928 243.018 19.7588C243.174 19.915 243.252 20.0908 243.252 20.2861C243.252 20.4912 243.188 20.6523 243.062 20.7695C242.827 21.1309 242.5 21.4385 242.08 21.6924C241.66 21.9463 241.206 22.1514 240.718 22.3076C240.229 22.4736 239.736 22.5908 239.238 22.6592C238.74 22.7373 238.286 22.7764 237.876 22.7764C236.704 22.7764 235.615 22.5664 234.609 22.1465C233.604 21.7363 232.729 21.1699 231.987 20.4473C231.245 19.7246 230.659 18.875 230.229 17.8984C229.81 16.9219 229.6 15.8672 229.6 14.7344C229.6 13.4941 229.785 12.3906 230.156 11.4238C230.527 10.4473 231.055 9.62695 231.738 8.96289C232.422 8.28906 233.252 7.78125 234.229 7.43945C235.205 7.08789 236.304 6.91211 237.524 6.91211C238.677 6.96094 239.668 7.15625 240.498 7.49805C241.338 7.83984 242.026 8.31348 242.563 8.91895C243.101 9.52441 243.496 10.2568 243.75 11.1162C244.014 11.9658 244.146 12.9229 244.146 13.9873C244.146 14.2314 244.141 14.4268 244.131 14.5732C244.121 14.71 244.116 14.7979 244.116 14.8369Z" fill="black"/>
</svg>
