<?xml version="1.0" encoding="UTF-8" standalone="no"?>
<svg
   xmlns:dc="http://purl.org/dc/elements/1.1/"
   xmlns:cc="http://creativecommons.org/ns#"
   xmlns:rdf="http://www.w3.org/1999/02/22-rdf-syntax-ns#"
   xmlns:svg="http://www.w3.org/2000/svg"
   xmlns="http://www.w3.org/2000/svg"
   xmlns:sodipodi="http://sodipodi.sourceforge.net/DTD/sodipodi-0.dtd"
   xmlns:inkscape="http://www.inkscape.org/namespaces/inkscape"
   version="1.1"
   id="Layer_1"
   x="0px"
   y="0px"
   width="665"
   height="484"
   viewBox="0 0 665 483.9999999999997"
   enable-background="new 0 0 578 462"
   xml:space="preserve"
   inkscape:version="0.91 r13725"
   sodipodi:docname="Bat-1.svg"><metadata
     id="metadata8"><rdf:RDF><cc:Work
         rdf:about=""><dc:format>image/svg+xml</dc:format><dc:type
           rdf:resource="http://purl.org/dc/dcmitype/StillImage" /><dc:date>2016</dc:date><dc:creator><cc:Agent><dc:title>Lazur</dc:title></cc:Agent></dc:creator><dc:description>Original raster images of this series were uploaded by NicholasJudy456 to openclipart embedded in svg-s (416 in total).  This is one of the refixes upon request by the original author.</dc:description><dc:contributor><cc:Agent><dc:title /></cc:Agent></dc:contributor><dc:title /></cc:Work></rdf:RDF></metadata><defs
     id="defs6" /><sodipodi:namedview
     pagecolor="#ffffff"
     bordercolor="#666666"
     borderopacity="1"
     objecttolerance="10"
     gridtolerance="10"
     guidetolerance="10"
     inkscape:pageopacity="0"
     inkscape:pageshadow="2"
     inkscape:window-width="1366"
     inkscape:window-height="705"
     id="namedview4"
     showgrid="false"
     borderlayer="true"
     inkscape:showpageshadow="false"
     inkscape:zoom="1.146694214876033"
     inkscape:cx="332.4999999999999"
     inkscape:cy="242"
     inkscape:window-x="-8"
     inkscape:window-y="-8"
     inkscape:window-maximized="1"
     inkscape:current-layer="Layer_1"
     fit-margin-top="0"
     fit-margin-left="0"
     fit-margin-right="0"
     fit-margin-bottom="0"
     showguides="true"
     inkscape:guide-bbox="true" /><path
     inkscape:connector-curvature="0"
     id="path4777"
     d="m 332.1575179286587,446.0020906221292 -0.9614489584198,2.4979093778708 -4.5980344851194,-9.8205677128386 -4.5980344851195,-9.8205677128386 0,-6.5518770026036 0,-6.5518770026036 -1.4450550411519,1.1992891651842 -1.445055041152,1.1992891651842 -1.054944958848,5.423155550258 -2.1253271598805,10.9206718978669 -1.0703822010323,5.4975163476088 -1.9296177989677,-1.0327001060968 -1.9296177989676,-1.0327001060968 0,-3.8409264889863 0,-3.8409264889864 6.002877641506,-15.9306311810534 6.0028776415059,-15.9306311810533 -9.3023730777128,-22.4432585714723 -9.3023730777126,-22.4432585714724 -10.2073011410329,-14 -10.2073011410327,-14 -13.5604301316109,-10.1730182167276 -13.5604301316108,-10.1730182167277 -7.1827732911495,-2.13549992894 -8.734020589112,-2.5812877967128 -1.5512472979623,-0.4457878677728 -14.980558546499,4.3865239634375 -14.9805585464989,4.3865239634376 -11.1487641455676,5.591315164667 -11.1487641455676,5.5913151646669 -3.0694300099711,-9.973533114664 -6.1026121428714,-19.8303920832354 -3.0331821329004,-9.8568589685713 -2.3548237400022,-2.2122420386504 -2.3548237400021,-2.2122420386505 -9.0432788231249,-2.4715723256161 -9.0432788231248,-2.4715723256159 -15.3187153039726,7.6718311483071 -15.3187153039727,7.6718311483071 -12.25,11.4924764174733 -12.25544696739425,11.1188421845304 -2.50101677148257,-13.3736342329427 -2.49556980408839,-13 -6.02843424156137,-15.0561262279394 -6.02843424156136,-15.0561262279395 -5.27207818406238,-2.5856692531878 -5.27207818406238,-2.5856692531879 -9.67630636728926,-0.7254619426628 -9.67630636728926,-0.725461942663 -12.86072547196353,5.1608372571957 -12.86072547196352,5.1608372571959 -7.80205198974489,9.4824738071529 -8.198506152464577,9.0860196444419 4.313605391841988,-19.2760536405584 4.71005955456165,-18.8795994778475 10.64615915141161,-22.5 10.64615915141162,-22.5 10.17518893872236,-18.4853854726859 10.17518893872235,-18.4853854726859 21.07322680380756,-25.6044483325755 21.07322680380758,-25.6044483325754 17.1317981963955,-14.91016619473865 35.2005033254887,-31.41016619473862 22.3035153669583,-20.24999999999993 4.2348102378651,-3.75 4.6227584929086,0 4.6227584929087,-6e-14 13.3025302983562,7.028430102892 13.3025302983563,7.02843010289201 13.1770901762695,13.94108960823962 28.3218303857016,27.92346965986491 15.1447402094325,13.98238005162524 5,6.5115145799631 5.616009404831,6.5481002372433 2.7289680511647,-5.7584029890774 2.1129586463338,-5.7949886463573 10.2670385162672,-9.12567145288007 10.4465088607533,-8.94620110838855 1.2946822368729,16.12801557020522 1.3245230880819,16.142390139455 7.5694900314183,-1.0766115776341 7.3601788357232,-1.2704564913752 0.6940553933571,-1.1230052165274 4.4849194705792,-17.23564558703658 3.7908640772219,-16.11264037050957 0.7737715289721,0.85490169370293 6.175327956845,8.85490169370297 5.4015564278727,8 2.9336161990312,10.36440675851246 2.9336161990311,10.3644067585123 2.3675708462762,1.0787374687365 2.367570846276,1.0787374687365 0.6783866915456,-1.0680309890747 13.0877952967507,-19.1712308750736 12.4094086052052,-18.10319988599883 20.8151147804112,-18.16067909413668 20.8151147804111,-18.16067909413675 11.9531995487519,-6.90873511451099 11.9531995487518,-6.90873511451099 7.8222770656318,3.94467474408936 7.8222770656318,3.94467474408935 7.4949054186565,7.85282611238301 49.4885966384923,51.18757331938973 41.9936912198366,43.3347472070065 20.558059386503,31.6652527929935 20.5580593865034,31.6652527929935 8.3668113732905,15.4072761316828 19.6566963400437,34.4633143016295 10.9964958699959,19.3494272666977 -10.6111166222645,-4.2190559653102 -19.9274077211888,-7.4778820016372 -9.6096801956816,-2.9654369395758 -8.9825555470937,2.8214339325309 -8.9825555470937,2.8214339325309 -8.5305532501827,4.2637674093021 -8.5305532501826,4.2637674093021 -5.6679238528335,8.6359772614236 -5.6679238528335,8.6359772614236 -2.5095168621569,14.8746606318375 -2.9043620251371,15.2695057948221 -10.2920060348268,-11.6493283298062 -9.8971608718468,-12.0441734927908 -7,-3.8824644608977 -7,-3.8824644608976 -9.4999999999998,-0.6891545612203 -9.5,-0.6891545612202 -6.3972944735594,1.6618326365875 -6.3972944735595,1.6618326365876 -6.4573160048991,5.6844540834989 -6.4573160048991,5.6844540834988 -5.3137458886294,10.5705506963689 -8.4680754308037,18.75 -3.5647977599557,8.1794493036311 -2.7792319320737,-4.75 -5.0961674977061,-11.9787945723038 -2.727403783414,-7.2287945723038 -3.794026985119,-3.0049249874213 -3.7940269851188,-3.0049249874215 -8.3253728469215,-3.563408155261 -8.3253728469214,-3.563408155261 -5.5512785432098,0.6792944257712 -5.5512785432097,0.6792944257713 -7.6145291867111,3.810880555431 -16.7982266622528,9.7098119867717 -9.1836974755417,5.8989314313405 -6.5559278175143,7.8853874442709 -6.5559278175143,7.885387444271 -4.395845520233,8.7526516834275 -4.3958455202329,8.7526516834274 0,3.9855998381241 -1.5594277930255,15.1662246661407 -1.5594277930256,11.1806248280166 -2.9516121762159,5.8471108699599 -2.951612176216,5.8471108699601 6.1476835028276,12.2566466386439 8.0404165972904,17.7485817432004 1.892733094463,5.4919351045564 -1.7205062631539,1.2580648954436 -2.4555215948503,1.2580648954434 -3.7708824145647,-7.75 -3.0358670828681,-7.75 -0.032411015928,6 -0.032411015928,6 1.0796211416444,3.888327698852 1.0796211416444,3.8883276988518 -1.3351980760472,0.8463595266311 -3.0048313941289,0.8616723011481 -1.6696333180817,0.015312774517 -1.50604506172,-4.75 -1.5060450617199,-4.75 -0.4330291411652,-13.5 -0.4330291411653,-13.5 -2.2939974323671,-6 -2.2939974323672,-6 0.090813184124,-2.5 0.7774017809877,-15.5275841037279 0.6865885968639,-13.0275841037281 -3.9692402820603,-2.7506853737259 -3.9692402820604,-2.7506853737261 -1.6927127859413,0.6495548424793 -1.6927127859414,0.6495548424792 -1.4627437596521,3.5008385896476 -1.462743759652,3.5008385896474 0,7.7213255923341 0,7.7213255923339 2.0763748579525,5.9065504529934 2.0763748579525,5.9065504529932 0.326152327661,17 0.3261523276611,17 1.1569562579256,6.5020906221291 1.1569562579257,6.5020906221292 z"
     style="fill:#000000"
     sodipodi:nodetypes="cccccccccccccccccccccccccccccccccccccccccccccccccccccccccccccccccccccccccccccccccccccccccccccccccccccccccccccccccccccccccccccccccccccccccccccccccccccccccccccccccccccccccccccccccccccccccccccccc" /></svg>