<svg width="409" height="109" viewBox="0 0 409 109" fill="none" xmlns="http://www.w3.org/2000/svg">
<rect x="1.5" y="1.5" width="406" height="106" rx="28.5" fill="white" stroke="black" stroke-width="3"/>
<path d="M153.63 49.9941C153.557 50.2432 153.418 50.4336 153.213 50.5654C153.008 50.6826 152.781 50.7412 152.532 50.7412C152.195 50.7412 151.917 50.6167 151.697 50.3677C151.477 50.1187 151.367 49.8696 151.367 49.6206C151.367 49.5034 151.396 49.3862 151.455 49.269L152.861 45.1602C152.495 44.5742 152.048 44.0176 151.521 43.4902C151.008 42.9482 150.444 42.4722 149.829 42.062C149.214 41.6519 148.562 41.3296 147.874 41.0952C147.185 40.8462 146.489 40.7217 145.786 40.7217C144.453 40.7217 143.259 40.9268 142.205 41.3369C141.165 41.7471 140.249 42.3037 139.458 43.0068C138.682 43.71 138.015 44.5376 137.458 45.4897C136.902 46.4272 136.448 47.4307 136.096 48.5C135.759 49.5693 135.51 50.6753 135.349 51.8179C135.203 52.9458 135.129 54.0591 135.129 55.1577C135.129 56.1099 135.181 57.1279 135.283 58.2119C135.386 59.2812 135.562 60.3579 135.811 61.4419C136.06 62.5112 136.389 63.5439 136.799 64.54C137.209 65.5215 137.715 66.3931 138.315 67.1548C138.931 67.9165 139.648 68.5244 140.469 68.9785C141.289 69.4326 142.241 69.6597 143.325 69.6597C144.6 69.6597 145.808 69.4766 146.951 69.1104C148.108 68.7441 149.155 68.2241 150.093 67.5503C151.045 66.8618 151.873 66.0415 152.576 65.0894C153.293 64.1372 153.85 63.0752 154.246 61.9033C154.319 61.6396 154.458 61.4272 154.663 61.2661C154.868 61.0903 155.103 61.0024 155.366 61.0024C155.688 61.0024 155.959 61.127 156.179 61.376C156.399 61.625 156.509 61.896 156.509 62.189V62.4526C156.494 62.4819 156.443 62.6284 156.355 62.8921C156.282 63.1558 156.15 63.5 155.959 63.9248C155.784 64.335 155.542 64.811 155.234 65.353C154.941 65.8804 154.568 66.4297 154.114 67.001C153.44 67.8359 152.686 68.561 151.851 69.1763C151.016 69.7915 150.129 70.3042 149.192 70.7144C148.269 71.1245 147.31 71.4321 146.313 71.6372C145.317 71.8423 144.321 71.9448 143.325 71.9448C140.82 71.9009 138.572 71.498 136.58 70.7363C134.602 69.96 132.917 68.8833 131.526 67.5063C130.149 66.1147 129.087 64.4448 128.34 62.4966C127.607 60.5483 127.241 58.373 127.241 55.9707C127.241 53.7441 127.476 51.7593 127.944 50.0161C128.413 48.2729 129.05 46.7495 129.856 45.4458C130.676 44.1274 131.636 43.0142 132.734 42.106C133.833 41.1831 134.998 40.436 136.228 39.8647C137.473 39.2935 138.762 38.8833 140.095 38.6343C141.428 38.3706 142.739 38.2388 144.028 38.2388C145.317 38.2388 146.475 38.3779 147.5 38.6562C148.525 38.9199 149.441 39.2642 150.247 39.689C151.052 40.1138 151.741 40.5825 152.312 41.0952C152.898 41.5933 153.381 42.0693 153.762 42.5234L154.971 39.0518C155.059 38.8027 155.205 38.605 155.41 38.4585C155.615 38.312 155.828 38.2388 156.047 38.2388C156.37 38.2388 156.641 38.3633 156.86 38.6123C157.095 38.8467 157.212 39.1104 157.212 39.4033C157.212 39.5352 157.183 39.6597 157.124 39.7769L153.63 49.9941ZM186.787 70.6484C186.729 70.6484 186.685 70.6338 186.655 70.6045C186.143 70.5312 185.637 70.48 185.139 70.4507C184.641 70.4214 184.143 70.4067 183.645 70.4067C182.898 70.4067 182.151 70.4434 181.404 70.5166C180.671 70.5898 179.932 70.6924 179.185 70.8242C179.155 70.8535 179.126 70.8682 179.097 70.8682C179.067 70.8682 179.038 70.8682 179.009 70.8682C178.672 70.8682 178.394 70.751 178.174 70.5166C177.954 70.2676 177.844 69.9966 177.844 69.7036C177.844 69.4253 177.932 69.1836 178.108 68.9785C178.284 68.7588 178.511 68.6196 178.789 68.561C179.829 68.3413 180.876 68.2095 181.931 68.1655C182.737 64.4595 183.14 61.2954 183.14 58.6733C183.14 57.5308 183.052 56.4614 182.876 55.4653C182.715 54.4546 182.415 53.5757 181.975 52.8286C181.55 52.0815 180.964 51.4883 180.217 51.0488C179.47 50.6094 178.511 50.3896 177.339 50.3896C176.68 50.3896 176.05 50.5142 175.449 50.7632C174.863 51.0122 174.314 51.3491 173.801 51.7739C173.303 52.1841 172.849 52.6675 172.439 53.2241C172.029 53.7808 171.677 54.3667 171.384 54.9819C171.106 55.5825 170.886 56.1978 170.725 56.8276C170.579 57.4575 170.505 58.0581 170.505 58.6294L170.461 68.4292C170.974 68.4731 171.487 68.5391 172 68.627C172.527 68.7148 173.062 68.8174 173.604 68.9346C173.882 68.9785 174.109 69.1104 174.285 69.3301C174.46 69.5352 174.548 69.7769 174.548 70.0552C174.548 70.3921 174.424 70.6631 174.175 70.8682C173.94 71.0732 173.677 71.1758 173.384 71.1758H173.164C171.978 70.9561 170.85 70.7876 169.78 70.6704C168.711 70.5532 167.649 70.4946 166.594 70.4946C165.554 70.4946 164.5 70.5532 163.43 70.6704C162.361 70.7876 161.24 70.9561 160.068 71.1758H159.849C159.512 71.1758 159.233 71.0659 159.014 70.8462C158.809 70.6118 158.706 70.3481 158.706 70.0552C158.706 69.7769 158.787 69.5352 158.948 69.3301C159.124 69.1104 159.343 68.9785 159.607 68.9346C160.12 68.8174 160.632 68.7222 161.145 68.6489C161.672 68.5757 162.185 68.5024 162.683 68.4292V42.2378C161.76 42.1938 160.984 42.1426 160.354 42.084C159.724 42.0107 159.373 41.9741 159.299 41.9741C159.006 41.9302 158.765 41.7983 158.574 41.5786C158.398 41.3589 158.311 41.1025 158.311 40.8096C158.311 40.4434 158.442 40.165 158.706 39.9746C158.97 39.7842 159.226 39.689 159.475 39.689H159.607C159.622 39.689 159.79 39.7109 160.112 39.7549C160.435 39.7842 160.852 39.8208 161.365 39.8647C161.892 39.9087 162.485 39.9526 163.145 39.9966C163.804 40.0259 164.485 40.0405 165.188 40.0405C165.891 40.0405 166.58 40.0186 167.253 39.9746C167.927 39.916 168.55 39.8208 169.121 39.689H169.341C169.678 39.689 169.956 39.8062 170.176 40.0405C170.396 40.2603 170.505 40.5166 170.505 40.8096V51.9717C171.34 50.6826 172.329 49.7158 173.472 49.0713C174.629 48.4268 175.918 48.1045 177.339 48.1045C178.862 48.1045 180.137 48.3828 181.162 48.9395C182.202 49.4961 183.037 50.2505 183.667 51.2026C184.312 52.1548 184.766 53.2827 185.029 54.5864C185.308 55.8755 185.447 57.2524 185.447 58.7173C185.447 61.3101 185.059 64.4448 184.282 68.1216C184.736 68.1216 185.183 68.1436 185.623 68.1875C186.077 68.2168 186.516 68.2681 186.941 68.3413C187.234 68.3706 187.476 68.4951 187.666 68.7148C187.871 68.9199 187.974 69.1689 187.974 69.4619C187.974 69.7842 187.849 70.0625 187.6 70.2969C187.351 70.5312 187.08 70.6484 186.787 70.6484ZM205.596 63.3096C205.566 63.0605 205.544 62.8042 205.53 62.5405C205.515 62.2769 205.508 62.0059 205.508 61.7275H204.695C204.109 61.7275 203.413 61.7715 202.607 61.8594C201.816 61.9473 200.996 62.0864 200.146 62.2769C199.297 62.4673 198.455 62.7236 197.62 63.0459C196.785 63.3535 196.038 63.7344 195.378 64.1885C194.719 64.6279 194.185 65.1479 193.774 65.7485C193.379 66.3491 193.181 67.0376 193.181 67.814C193.181 68.2241 193.276 68.5757 193.467 68.8687C193.672 69.1616 193.921 69.4033 194.214 69.5938C194.521 69.7695 194.858 69.9014 195.225 69.9893C195.591 70.0625 195.942 70.0991 196.279 70.0991C197.319 70.0991 198.301 69.9014 199.224 69.5059C200.161 69.0957 201.025 68.5684 201.816 67.9238C202.607 67.2646 203.318 66.5322 203.948 65.7266C204.578 64.9209 205.127 64.1152 205.596 63.3096ZM216.121 70.9121H216.033C215.784 70.8828 215.527 70.8682 215.264 70.8682C215 70.8682 214.744 70.8682 214.495 70.8682C213.118 70.8682 211.792 70.9561 210.518 71.1318C209.258 71.3076 207.991 71.5786 206.716 71.9448C206.672 71.9448 206.628 71.9521 206.584 71.9668C206.541 71.9814 206.482 71.9888 206.409 71.9888C206.072 71.9888 205.793 71.8569 205.574 71.5933C205.369 71.3442 205.266 71.0879 205.266 70.8242V70.6484C205.266 70.6191 205.303 70.3262 205.376 69.7695C205.449 69.1982 205.522 68.4072 205.596 67.3965C204.966 68.0996 204.292 68.7588 203.574 69.374C202.871 69.9746 202.124 70.502 201.333 70.9561C200.557 71.3955 199.751 71.7397 198.916 71.9888C198.081 72.2524 197.217 72.3843 196.323 72.3843C195.62 72.3843 194.939 72.2744 194.28 72.0547C193.621 71.8496 193.035 71.5493 192.522 71.1538C192.024 70.7583 191.621 70.2822 191.313 69.7256C191.021 69.1543 190.874 68.5171 190.874 67.814C190.874 66.7153 191.108 65.7485 191.577 64.9136C192.061 64.0786 192.69 63.3535 193.467 62.7383C194.243 62.1084 195.122 61.5884 196.104 61.1782C197.1 60.7534 198.11 60.4165 199.136 60.1675C200.161 59.9038 201.157 59.7207 202.124 59.6182C203.091 59.501 203.948 59.4424 204.695 59.4424H205.222C205.222 58.5488 205.061 57.6772 204.739 56.8276C204.431 55.978 203.992 55.2236 203.42 54.5645C202.864 53.9053 202.197 53.3779 201.421 52.9824C200.645 52.5723 199.788 52.3672 198.85 52.3672C198.162 52.3672 197.488 52.5649 196.829 52.9604C196.169 53.3413 195.583 53.832 195.071 54.4326C194.558 55.0332 194.141 55.707 193.818 56.4541C193.511 57.2012 193.357 57.9263 193.357 58.6294C193.357 58.9224 193.232 59.1714 192.983 59.3765C192.749 59.5669 192.485 59.6621 192.192 59.6621C191.87 59.6621 191.592 59.5449 191.357 59.3105C191.123 59.0615 191.006 58.7905 191.006 58.4976C191.006 57.7944 191.13 57.062 191.379 56.3003C191.628 55.5239 191.987 54.7695 192.456 54.0371C192.939 53.29 193.518 52.5869 194.192 51.9277C194.88 51.2686 195.657 50.6899 196.521 50.1919C197.4 49.6792 198.359 49.2764 199.399 48.9834C200.439 48.6904 201.545 48.5439 202.717 48.5439C204.358 48.5439 205.757 48.8003 206.914 49.313C208.086 49.8257 209.06 50.5215 209.836 51.4004C210.627 52.2793 211.25 53.2974 211.704 54.4546C212.158 55.6118 212.502 56.835 212.737 58.124C212.971 59.4131 213.118 60.7241 213.176 62.0571C213.25 63.3901 213.286 64.6646 213.286 65.8804C213.286 66.4956 213.279 67.0229 213.264 67.4624C213.25 67.9019 213.242 68.2681 213.242 68.561C213.462 68.561 213.682 68.5537 213.901 68.5391C214.136 68.5244 214.363 68.5171 214.583 68.5171C214.832 68.5171 215.088 68.5244 215.352 68.5391C215.63 68.5537 215.901 68.561 216.165 68.561C216.487 68.5903 216.743 68.7148 216.934 68.9346C217.139 69.1543 217.241 69.4253 217.241 69.7476C217.241 70.0552 217.131 70.3262 216.912 70.5605C216.707 70.7949 216.443 70.9121 216.121 70.9121ZM238.181 60.1016C237.639 60.1016 237.126 59.999 236.643 59.7939C236.174 59.5889 235.764 59.3105 235.413 58.959C235.061 58.6074 234.783 58.1973 234.578 57.7285C234.373 57.2451 234.27 56.7324 234.27 56.1904C234.27 55.6484 234.373 55.1431 234.578 54.6743C234.783 54.1909 235.061 53.7734 235.413 53.4219C235.764 53.0557 236.174 52.77 236.643 52.5649C237.126 52.3452 237.639 52.2354 238.181 52.2354C238.254 52.2354 238.32 52.2427 238.379 52.2573C238.452 52.272 238.525 52.2793 238.599 52.2793C238.218 51.9863 237.771 51.7666 237.258 51.6201C236.76 51.459 236.182 51.3784 235.522 51.3784C234.688 51.3784 233.962 51.5542 233.347 51.9058C232.732 52.2427 232.205 52.6748 231.765 53.2021C231.34 53.7148 230.996 54.2788 230.732 54.894C230.469 55.4946 230.256 56.0659 230.095 56.6079C229.949 57.1353 229.846 57.5894 229.788 57.9702C229.744 58.3511 229.722 58.5708 229.722 58.6294L229.678 68.3853C230.19 68.4292 230.703 68.4951 231.216 68.583C231.743 68.6709 232.278 68.7588 232.82 68.8467C233.098 68.9199 233.325 69.0664 233.501 69.2861C233.677 69.4912 233.765 69.7329 233.765 70.0112C233.765 70.3335 233.64 70.6045 233.391 70.8242C233.142 71.0293 232.878 71.1318 232.6 71.1318H232.38C231.194 70.9121 230.066 70.7437 228.997 70.6265C227.927 70.5093 226.865 70.4507 225.811 70.4507C224.756 70.4507 223.701 70.5093 222.646 70.6265C221.592 70.7437 220.471 70.9121 219.285 71.1318H219.065C218.728 71.1318 218.457 71.022 218.252 70.8022C218.047 70.5679 217.944 70.3042 217.944 70.0112C217.944 69.7329 218.025 69.4912 218.186 69.2861C218.347 69.0664 218.567 68.9199 218.845 68.8467C219.358 68.7588 219.871 68.6709 220.383 68.583C220.896 68.4951 221.401 68.4292 221.899 68.3853V52.0156C220.977 51.9717 220.2 51.9131 219.57 51.8398C218.94 51.7666 218.589 51.7153 218.516 51.686C218.223 51.6567 217.981 51.5396 217.791 51.3345C217.615 51.1147 217.527 50.8584 217.527 50.5654C217.527 50.1992 217.651 49.9136 217.9 49.7085C218.164 49.5034 218.428 49.4009 218.691 49.4009H218.845C218.86 49.4155 219.028 49.4448 219.351 49.4888C219.673 49.5181 220.09 49.5547 220.603 49.5986C221.116 49.6426 221.702 49.6792 222.361 49.7085C223.035 49.7378 223.716 49.7524 224.404 49.7524C225.107 49.7524 225.796 49.7305 226.47 49.6865C227.144 49.6426 227.766 49.562 228.337 49.4448C228.367 49.4155 228.44 49.4009 228.557 49.4009C228.894 49.4009 229.172 49.5254 229.392 49.7744C229.612 50.0088 229.722 50.2725 229.722 50.5654V52.1475C230.352 51.2686 231.143 50.5435 232.095 49.9722C233.062 49.3862 234.204 49.0933 235.522 49.0933C236.519 49.1226 237.427 49.2983 238.247 49.6206C239.067 49.9282 239.771 50.3604 240.356 50.917C240.957 51.459 241.418 52.1182 241.741 52.8945C242.078 53.6562 242.246 54.5132 242.246 55.4653C242.246 56.0659 242.151 56.6445 241.96 57.2012C241.77 57.7578 241.499 58.2559 241.147 58.6953C240.796 59.1201 240.364 59.4644 239.851 59.728C239.353 59.9771 238.796 60.1016 238.181 60.1016ZM259.824 63.3096C259.795 63.0605 259.773 62.8042 259.758 62.5405C259.744 62.2769 259.736 62.0059 259.736 61.7275H258.923C258.337 61.7275 257.642 61.7715 256.836 61.8594C256.045 61.9473 255.225 62.0864 254.375 62.2769C253.525 62.4673 252.683 62.7236 251.848 63.0459C251.013 63.3535 250.266 63.7344 249.607 64.1885C248.948 64.6279 248.413 65.1479 248.003 65.7485C247.607 66.3491 247.41 67.0376 247.41 67.814C247.41 68.2241 247.505 68.5757 247.695 68.8687C247.9 69.1616 248.149 69.4033 248.442 69.5938C248.75 69.7695 249.087 69.9014 249.453 69.9893C249.819 70.0625 250.171 70.0991 250.508 70.0991C251.548 70.0991 252.529 69.9014 253.452 69.5059C254.39 69.0957 255.254 68.5684 256.045 67.9238C256.836 67.2646 257.546 66.5322 258.176 65.7266C258.806 64.9209 259.355 64.1152 259.824 63.3096ZM270.349 70.9121H270.261C270.012 70.8828 269.756 70.8682 269.492 70.8682C269.229 70.8682 268.972 70.8682 268.723 70.8682C267.346 70.8682 266.021 70.9561 264.746 71.1318C263.486 71.3076 262.219 71.5786 260.945 71.9448C260.901 71.9448 260.857 71.9521 260.813 71.9668C260.769 71.9814 260.71 71.9888 260.637 71.9888C260.3 71.9888 260.022 71.8569 259.802 71.5933C259.597 71.3442 259.495 71.0879 259.495 70.8242V70.6484C259.495 70.6191 259.531 70.3262 259.604 69.7695C259.678 69.1982 259.751 68.4072 259.824 67.3965C259.194 68.0996 258.521 68.7588 257.803 69.374C257.1 69.9746 256.353 70.502 255.562 70.9561C254.785 71.3955 253.979 71.7397 253.145 71.9888C252.31 72.2524 251.445 72.3843 250.552 72.3843C249.849 72.3843 249.167 72.2744 248.508 72.0547C247.849 71.8496 247.263 71.5493 246.75 71.1538C246.252 70.7583 245.85 70.2822 245.542 69.7256C245.249 69.1543 245.103 68.5171 245.103 67.814C245.103 66.7153 245.337 65.7485 245.806 64.9136C246.289 64.0786 246.919 63.3535 247.695 62.7383C248.472 62.1084 249.351 61.5884 250.332 61.1782C251.328 60.7534 252.339 60.4165 253.364 60.1675C254.39 59.9038 255.386 59.7207 256.353 59.6182C257.319 59.501 258.176 59.4424 258.923 59.4424H259.451C259.451 58.5488 259.29 57.6772 258.967 56.8276C258.66 55.978 258.22 55.2236 257.649 54.5645C257.092 53.9053 256.426 53.3779 255.649 52.9824C254.873 52.5723 254.016 52.3672 253.079 52.3672C252.39 52.3672 251.716 52.5649 251.057 52.9604C250.398 53.3413 249.812 53.832 249.299 54.4326C248.787 55.0332 248.369 55.707 248.047 56.4541C247.739 57.2012 247.585 57.9263 247.585 58.6294C247.585 58.9224 247.461 59.1714 247.212 59.3765C246.978 59.5669 246.714 59.6621 246.421 59.6621C246.099 59.6621 245.82 59.5449 245.586 59.3105C245.352 59.0615 245.234 58.7905 245.234 58.4976C245.234 57.7944 245.359 57.062 245.608 56.3003C245.857 55.5239 246.216 54.7695 246.685 54.0371C247.168 53.29 247.747 52.5869 248.42 51.9277C249.109 51.2686 249.885 50.6899 250.75 50.1919C251.628 49.6792 252.588 49.2764 253.628 48.9834C254.668 48.6904 255.774 48.5439 256.946 48.5439C258.586 48.5439 259.985 48.8003 261.143 49.313C262.314 49.8257 263.289 50.5215 264.065 51.4004C264.856 52.2793 265.479 53.2974 265.933 54.4546C266.387 55.6118 266.731 56.835 266.965 58.124C267.2 59.4131 267.346 60.7241 267.405 62.0571C267.478 63.3901 267.515 64.6646 267.515 65.8804C267.515 66.4956 267.507 67.0229 267.493 67.4624C267.478 67.9019 267.471 68.2681 267.471 68.561C267.69 68.561 267.91 68.5537 268.13 68.5391C268.364 68.5244 268.591 68.5171 268.811 68.5171C269.06 68.5171 269.316 68.5244 269.58 68.5391C269.858 68.5537 270.129 68.561 270.393 68.561C270.715 68.5903 270.972 68.7148 271.162 68.9346C271.367 69.1543 271.47 69.4253 271.47 69.7476C271.47 70.0552 271.36 70.3262 271.14 70.5605C270.935 70.7949 270.671 70.9121 270.349 70.9121ZM293.772 56.4102C293.728 56.7031 293.589 56.9448 293.354 57.1353C293.135 57.3257 292.878 57.4209 292.585 57.4209C292.292 57.4209 292.036 57.3184 291.816 57.1133C291.611 56.9082 291.494 56.6445 291.465 56.3223C291.465 55.6924 291.333 55.0332 291.069 54.3447C290.806 53.6562 290.447 53.0264 289.993 52.4551C289.539 51.8838 289.019 51.415 288.433 51.0488C287.847 50.668 287.224 50.4775 286.565 50.4775C285.745 50.4775 285.02 50.6533 284.39 51.0049C283.76 51.3418 283.21 51.7959 282.742 52.3672C282.273 52.9385 281.885 53.5903 281.577 54.3228C281.27 55.0552 281.021 55.8096 280.83 56.5859C280.64 57.3477 280.5 58.1021 280.413 58.8491C280.339 59.5962 280.303 60.27 280.303 60.8706C280.303 61.896 280.413 62.9214 280.632 63.9468C280.867 64.9722 281.218 65.895 281.687 66.7153C282.156 67.521 282.756 68.1802 283.489 68.6929C284.221 69.2056 285.093 69.4619 286.104 69.4619C286.851 69.4619 287.554 69.2935 288.213 68.9565C288.872 68.6196 289.458 68.1875 289.971 67.6602C290.498 67.1182 290.945 66.5249 291.311 65.8804C291.677 65.2358 291.941 64.606 292.102 63.9907C292.175 63.7124 292.307 63.4854 292.498 63.3096C292.703 63.1338 292.944 63.0459 293.223 63.0459C293.545 63.0459 293.816 63.1704 294.036 63.4194C294.27 63.6538 294.387 63.9175 294.387 64.2104C294.387 64.2983 294.373 64.3716 294.343 64.4302C294.241 64.9136 294.065 65.4409 293.816 66.0122C293.567 66.5835 293.237 67.1548 292.827 67.7261C292.432 68.2974 291.948 68.854 291.377 69.396C290.806 69.9233 290.154 70.3921 289.421 70.8022C288.689 71.2124 287.876 71.542 286.982 71.791C286.089 72.04 285.107 72.1646 284.038 72.1646C282.354 72.1646 280.801 71.8789 279.38 71.3076C277.959 70.751 276.736 69.9673 275.71 68.9565C274.685 67.9312 273.879 66.708 273.293 65.2871C272.722 63.8516 272.437 62.2769 272.437 60.563C272.437 58.7173 272.686 57.0034 273.184 55.4214C273.696 53.8394 274.436 52.4697 275.403 51.3125C276.384 50.1553 277.585 49.2471 279.006 48.5879C280.442 47.9287 282.09 47.5991 283.95 47.5991C285.62 47.5991 287.173 47.936 288.608 48.6099C290.044 49.269 291.223 50.2651 292.146 51.5981L292.871 47.1157C292.915 46.8374 293.04 46.6104 293.245 46.4346C293.464 46.2588 293.713 46.1709 293.992 46.1709C294.358 46.1709 294.644 46.2954 294.849 46.5444C295.054 46.7935 295.156 47.0425 295.156 47.2915V47.4673L293.772 56.4102ZM315.92 49.6206C315.92 49.9136 315.818 50.1772 315.613 50.4116C315.422 50.6313 315.181 50.7559 314.888 50.7852C313.936 50.8584 312.991 50.9243 312.053 50.9829C311.116 51.0415 310.171 51.0854 309.219 51.1147V66.4956C309.219 66.7886 309.277 67.0596 309.395 67.3086C309.526 67.5576 309.688 67.77 309.878 67.9458C310.083 68.1216 310.31 68.2607 310.559 68.3633C310.808 68.4658 311.064 68.5171 311.328 68.5171C311.724 68.5171 312.046 68.4146 312.295 68.2095C312.559 67.9897 312.778 67.7261 312.954 67.4185C313.13 67.0962 313.269 66.7593 313.372 66.4077C313.489 66.0562 313.584 65.7412 313.657 65.4629C313.701 65.1992 313.833 64.9868 314.053 64.8257C314.272 64.6499 314.514 64.562 314.778 64.562C315.115 64.562 315.386 64.6938 315.591 64.9575C315.811 65.2065 315.92 65.4629 315.92 65.7266V65.9683C315.496 67.9165 314.661 69.4253 313.416 70.4946C312.17 71.5493 310.632 72.0767 308.801 72.0767C307.966 72.0767 307.109 71.9668 306.23 71.7471C305.352 71.5273 304.553 71.1172 303.835 70.5166C303.132 69.916 302.554 69.0884 302.1 68.0337C301.646 66.9644 301.418 65.5801 301.418 63.8809V51.0708C300.759 51.0269 300.093 50.9829 299.419 50.939C298.76 50.895 298.093 50.8438 297.419 50.7852C297.126 50.7412 296.877 50.6094 296.672 50.3896C296.482 50.1699 296.387 49.9136 296.387 49.6206C296.387 49.2837 296.511 49.0127 296.76 48.8076C297.024 48.6025 297.288 48.5 297.551 48.5H297.639C298.284 48.5439 298.914 48.5879 299.529 48.6318C300.159 48.6758 300.789 48.7197 301.418 48.7637V41.293C301.418 41.0439 301.499 40.8169 301.66 40.6118C301.821 40.3921 302.026 40.2456 302.275 40.1724L307.769 38.7002C307.812 38.6709 307.864 38.6562 307.922 38.6562C307.981 38.6416 308.032 38.6343 308.076 38.6343C308.413 38.6343 308.684 38.7588 308.889 39.0078C309.109 39.2568 309.219 39.5278 309.219 39.8208V48.8076C310.112 48.7783 311.013 48.7417 311.921 48.6978C312.844 48.6392 313.767 48.5732 314.69 48.5H314.778C315.1 48.5 315.371 48.6172 315.591 48.8516C315.811 49.0713 315.92 49.3276 315.92 49.6206ZM338.376 59.3984V59.0249C338.376 57.9263 338.259 56.9082 338.025 55.9707C337.791 55.0332 337.417 54.2056 336.904 53.4878C336.406 52.7554 335.762 52.1548 334.971 51.686C334.18 51.2173 333.228 50.9023 332.114 50.7412C331.338 50.8291 330.664 51.0415 330.093 51.3784C329.521 51.7153 329.031 52.1328 328.621 52.6309C328.225 53.1143 327.896 53.6636 327.632 54.2788C327.368 54.894 327.156 55.5312 326.995 56.1904C326.848 56.835 326.738 57.4868 326.665 58.146C326.592 58.7905 326.548 59.3984 326.533 59.9697C326.768 60.043 327.061 60.1235 327.412 60.2114C327.778 60.2993 328.188 60.3872 328.643 60.4751C329.097 60.5483 329.587 60.6143 330.115 60.6729C330.657 60.7168 331.221 60.7388 331.807 60.7388C333.052 60.7388 334.216 60.6216 335.3 60.3872C336.399 60.1528 337.424 59.8232 338.376 59.3984ZM340.618 60.2554C340.574 60.6362 340.369 60.9658 340.002 61.2441C339.636 61.5225 339.175 61.7715 338.618 61.9912C338.062 62.1963 337.446 62.3721 336.772 62.5186C336.113 62.6504 335.461 62.7603 334.817 62.8481C334.172 62.936 333.579 63.002 333.037 63.0459C332.495 63.0752 332.07 63.0898 331.763 63.0898C330.693 63.0898 329.705 63.0166 328.796 62.8701C327.903 62.7236 327.163 62.5698 326.577 62.4087C326.665 63.3169 326.833 64.2104 327.083 65.0894C327.332 65.9683 327.69 66.7593 328.159 67.4624C328.628 68.1509 329.214 68.7148 329.917 69.1543C330.62 69.5791 331.47 69.7915 332.466 69.7915C332.832 69.7915 333.25 69.7476 333.718 69.6597C334.187 69.5571 334.648 69.418 335.103 69.2422C335.557 69.0518 335.974 68.832 336.355 68.583C336.736 68.3193 337.036 68.0264 337.256 67.7041C337.505 67.4111 337.805 67.2646 338.157 67.2646C338.464 67.2646 338.735 67.3892 338.97 67.6382C339.204 67.8726 339.321 68.1362 339.321 68.4292C339.321 68.7368 339.226 68.9785 339.036 69.1543C338.684 69.6963 338.193 70.1577 337.563 70.5386C336.934 70.9194 336.252 71.2271 335.52 71.4614C334.788 71.7104 334.048 71.8862 333.301 71.9888C332.554 72.106 331.873 72.1646 331.257 72.1646C329.5 72.1646 327.866 71.8496 326.357 71.2197C324.849 70.6045 323.538 69.7549 322.424 68.6709C321.311 67.5869 320.432 66.3125 319.788 64.8477C319.158 63.3828 318.843 61.8008 318.843 60.1016C318.843 58.2412 319.121 56.5859 319.678 55.1357C320.234 53.6709 321.025 52.4404 322.051 51.4443C323.076 50.4336 324.321 49.6719 325.786 49.1592C327.251 48.6318 328.899 48.3682 330.73 48.3682C332.458 48.4414 333.945 48.7344 335.19 49.2471C336.45 49.7598 337.483 50.4702 338.289 51.3784C339.094 52.2866 339.688 53.3853 340.068 54.6743C340.464 55.9487 340.662 57.3843 340.662 58.981C340.662 59.3472 340.654 59.6401 340.64 59.8599C340.625 60.0649 340.618 60.1968 340.618 60.2554ZM363.997 60.1016C363.455 60.1016 362.942 59.999 362.458 59.7939C361.99 59.5889 361.58 59.3105 361.228 58.959C360.876 58.6074 360.598 58.1973 360.393 57.7285C360.188 57.2451 360.085 56.7324 360.085 56.1904C360.085 55.6484 360.188 55.1431 360.393 54.6743C360.598 54.1909 360.876 53.7734 361.228 53.4219C361.58 53.0557 361.99 52.77 362.458 52.5649C362.942 52.3452 363.455 52.2354 363.997 52.2354C364.07 52.2354 364.136 52.2427 364.194 52.2573C364.268 52.272 364.341 52.2793 364.414 52.2793C364.033 51.9863 363.586 51.7666 363.074 51.6201C362.576 51.459 361.997 51.3784 361.338 51.3784C360.503 51.3784 359.778 51.5542 359.163 51.9058C358.547 52.2427 358.02 52.6748 357.581 53.2021C357.156 53.7148 356.812 54.2788 356.548 54.894C356.284 55.4946 356.072 56.0659 355.911 56.6079C355.764 57.1353 355.662 57.5894 355.603 57.9702C355.559 58.3511 355.537 58.5708 355.537 58.6294L355.493 68.3853C356.006 68.4292 356.519 68.4951 357.031 68.583C357.559 68.6709 358.093 68.7588 358.635 68.8467C358.914 68.9199 359.141 69.0664 359.316 69.2861C359.492 69.4912 359.58 69.7329 359.58 70.0112C359.58 70.3335 359.456 70.6045 359.207 70.8242C358.958 71.0293 358.694 71.1318 358.416 71.1318H358.196C357.009 70.9121 355.881 70.7437 354.812 70.6265C353.743 70.5093 352.681 70.4507 351.626 70.4507C350.571 70.4507 349.517 70.5093 348.462 70.6265C347.407 70.7437 346.287 70.9121 345.1 71.1318H344.88C344.543 71.1318 344.272 71.022 344.067 70.8022C343.862 70.5679 343.76 70.3042 343.76 70.0112C343.76 69.7329 343.84 69.4912 344.001 69.2861C344.163 69.0664 344.382 68.9199 344.661 68.8467C345.173 68.7588 345.686 68.6709 346.199 68.583C346.711 68.4951 347.217 68.4292 347.715 68.3853V52.0156C346.792 51.9717 346.016 51.9131 345.386 51.8398C344.756 51.7666 344.404 51.7153 344.331 51.686C344.038 51.6567 343.796 51.5396 343.606 51.3345C343.43 51.1147 343.342 50.8584 343.342 50.5654C343.342 50.1992 343.467 49.9136 343.716 49.7085C343.979 49.5034 344.243 49.4009 344.507 49.4009H344.661C344.675 49.4155 344.844 49.4448 345.166 49.4888C345.488 49.5181 345.906 49.5547 346.418 49.5986C346.931 49.6426 347.517 49.6792 348.176 49.7085C348.85 49.7378 349.531 49.7524 350.22 49.7524C350.923 49.7524 351.611 49.7305 352.285 49.6865C352.959 49.6426 353.582 49.562 354.153 49.4448C354.182 49.4155 354.255 49.4009 354.373 49.4009C354.709 49.4009 354.988 49.5254 355.208 49.7744C355.427 50.0088 355.537 50.2725 355.537 50.5654V52.1475C356.167 51.2686 356.958 50.5435 357.91 49.9722C358.877 49.3862 360.02 49.0933 361.338 49.0933C362.334 49.1226 363.242 49.2983 364.062 49.6206C364.883 49.9282 365.586 50.3604 366.172 50.917C366.772 51.459 367.234 52.1182 367.556 52.8945C367.893 53.6562 368.062 54.5132 368.062 55.4653C368.062 56.0659 367.966 56.6445 367.776 57.2012C367.585 57.7578 367.314 58.2559 366.963 58.6953C366.611 59.1201 366.179 59.4644 365.667 59.728C365.168 59.9771 364.612 60.1016 363.997 60.1016Z" fill="black"/>
<path d="M101.272 39.4236C98.9852 39.4236 96.9726 40.3783 95.4937 41.8719C90.0506 38.0685 82.7169 35.6202 74.5904 35.3584L78.8137 16.1413L92.2614 19.1901C92.2614 22.5162 94.9448 25.2263 98.2381 25.2263C101.592 25.2263 104.291 22.4392 104.291 19.1131C104.291 15.7871 101.608 13 98.2381 13C95.8901 13 93.8623 14.432 92.856 16.3876L78.0057 13.0616C77.2586 12.8614 76.5267 13.4004 76.3285 14.1549L71.6935 35.343C63.628 35.6818 56.3705 38.1301 50.9122 41.9335C49.4333 40.3783 47.3445 39.4236 45.0575 39.4236C36.5803 39.4236 33.8054 50.9107 41.566 54.8373C41.2915 56.0538 41.1696 57.3472 41.1696 58.6407C41.1696 71.5445 55.5625 82 73.2334 82C90.9806 82 105.374 71.5445 105.374 58.6407C105.374 57.3472 105.236 55.9922 104.901 54.7757C112.509 50.8337 109.704 39.4236 101.272 39.4236ZM53.8701 55.6534C53.8701 52.2658 56.5535 49.5403 59.923 49.5403C63.2163 49.5403 65.8998 52.2504 65.8998 55.6534C65.8998 58.9795 63.2163 61.6896 59.923 61.6896C56.5688 61.705 53.8701 58.9795 53.8701 55.6534ZM86.5438 70.0509C80.994 75.6559 65.3356 75.6559 59.7858 70.0509C59.1759 69.5119 59.1759 68.5572 59.7858 67.9413C60.3194 67.4024 61.2647 67.4024 61.7984 67.9413C66.037 72.3298 80.0945 72.4068 84.516 67.9413C85.0496 67.4024 85.9949 67.4024 86.5286 67.9413C87.1537 68.5572 87.1537 69.5119 86.5438 70.0509ZM86.4219 61.705C83.1286 61.705 80.4451 58.9949 80.4451 55.6688C80.4451 52.2812 83.1286 49.5557 86.4219 49.5557C89.7761 49.5557 92.4748 52.2658 92.4748 55.6688C92.4596 58.9795 89.7761 61.705 86.4219 61.705Z" fill="black"/>
</svg>
