<svg width="409" height="111" viewBox="0 0 409 111" fill="none" xmlns="http://www.w3.org/2000/svg">
<rect x="1.5" y="1.5" width="406" height="108" rx="28.5" fill="white" stroke="black" stroke-width="3"/>
<path d="M222.564 51.4336C222.564 50.2471 222.381 49.1997 222.015 48.2915C221.664 47.3687 221.18 46.5703 220.565 45.8965C219.964 45.208 219.247 44.6294 218.412 44.1606C217.591 43.6772 216.712 43.2891 215.775 42.9961C214.837 42.6885 213.863 42.4614 212.853 42.3149C211.842 42.1685 210.853 42.0732 209.886 42.0293H208.348L207.865 60.5742C208.319 60.6914 208.81 60.7793 209.337 60.8379C209.864 60.8965 210.421 60.9258 211.007 60.9258C212.545 60.9258 214.01 60.728 215.401 60.3325C216.808 59.9224 218.038 59.3218 219.093 58.5308C220.162 57.7397 221.004 56.751 221.62 55.5645C222.25 54.3779 222.564 53.001 222.564 51.4336ZM211.007 63.2329C210.421 63.2329 209.857 63.2109 209.315 63.167C208.788 63.1084 208.29 63.0205 207.821 62.9033L207.645 69.8467C208.202 69.8906 208.766 69.9346 209.337 69.9785C209.923 70.0225 210.509 70.0664 211.095 70.1104C211.388 70.1543 211.629 70.2861 211.82 70.5059C212.025 70.7256 212.127 70.9819 212.127 71.2749C212.127 71.6118 212.003 71.8828 211.754 72.0879C211.505 72.293 211.241 72.3955 210.963 72.3955H210.875C209.703 72.2783 208.531 72.1904 207.359 72.1318C206.202 72.0732 205.038 72.0439 203.866 72.0439C202.708 72.0439 201.559 72.0732 200.416 72.1318C199.288 72.1904 198.153 72.2783 197.01 72.3955H196.922C196.6 72.3955 196.322 72.2783 196.087 72.0439C195.868 71.8242 195.758 71.5679 195.758 71.2749C195.758 70.9819 195.853 70.7256 196.043 70.5059C196.249 70.2861 196.498 70.1543 196.791 70.1104C197.333 70.0664 197.875 70.0225 198.417 69.9785C198.973 69.9346 199.522 69.8906 200.064 69.8467L200.57 42.5786C199.486 42.7544 198.68 42.9302 198.153 43.106C197.64 43.2817 197.369 43.3696 197.34 43.3696C197.164 43.4429 197.025 43.4795 196.922 43.4795C196.6 43.4795 196.322 43.355 196.087 43.106C195.868 42.8569 195.758 42.5859 195.758 42.293C195.758 42.0732 195.816 41.8608 195.934 41.6558C196.065 41.4507 196.249 41.3042 196.483 41.2163C196.527 41.2017 196.798 41.1211 197.296 40.9746C197.794 40.8135 198.512 40.6377 199.449 40.4473C200.401 40.2568 201.581 40.0884 202.987 39.9419C204.393 39.7808 206.034 39.7002 207.909 39.7002C208.231 39.7002 208.561 39.7002 208.897 39.7002C209.249 39.7002 209.593 39.7148 209.93 39.7441C211.205 39.7881 212.457 39.9126 213.688 40.1177C214.918 40.3228 216.09 40.6377 217.203 41.0625C218.316 41.4727 219.334 41.9854 220.257 42.6006C221.195 43.2158 222.008 43.9556 222.696 44.8198C223.385 45.6694 223.919 46.6436 224.3 47.7422C224.681 48.8408 224.872 50.0713 224.872 51.4336C224.872 52.7227 224.681 53.9092 224.3 54.9932C223.919 56.0625 223.392 57.0366 222.718 57.9155C222.059 58.7798 221.283 59.5488 220.389 60.2227C219.496 60.8818 218.529 61.4385 217.489 61.8926C216.463 62.332 215.394 62.6689 214.281 62.9033C213.182 63.123 212.091 63.2329 211.007 63.2329ZM240.165 72.3076H239.945C239.359 72.2051 238.824 72.1172 238.341 72.0439C237.857 71.9707 237.396 71.9194 236.957 71.8901C236.517 71.8462 236.07 71.8169 235.616 71.8022C235.177 71.7876 234.701 71.7803 234.188 71.7803C233.148 71.7803 232.137 71.8242 231.156 71.9121C230.174 71.9854 229.098 72.1318 227.926 72.3516H227.706C227.34 72.3516 227.062 72.2344 226.871 72C226.681 71.7803 226.585 71.5093 226.585 71.187C226.585 70.9233 226.666 70.689 226.827 70.4839C226.988 70.2788 227.208 70.1396 227.486 70.0664C228.028 69.9785 228.519 69.9126 228.958 69.8687C229.398 69.8101 229.867 69.7588 230.365 69.7148V42.8862C229.442 42.813 228.775 42.7471 228.365 42.6885C227.97 42.6152 227.735 42.5786 227.662 42.5786C227.369 42.5347 227.127 42.4028 226.937 42.1831C226.761 41.9634 226.673 41.7144 226.673 41.436C226.673 41.0552 226.805 40.7695 227.069 40.5791C227.333 40.374 227.589 40.2715 227.838 40.2715H227.97C227.984 40.2715 228.116 40.2935 228.365 40.3374C228.614 40.3667 228.951 40.4106 229.376 40.4692C229.815 40.5132 230.328 40.5571 230.914 40.6011C231.515 40.6304 232.167 40.645 232.87 40.645C233.573 40.645 234.261 40.623 234.935 40.5791C235.609 40.5205 236.224 40.4326 236.781 40.3154C236.825 40.2861 236.905 40.2715 237.022 40.2715C237.359 40.2715 237.638 40.396 237.857 40.645C238.077 40.8794 238.187 41.1431 238.187 41.436L238.143 69.7148C238.392 69.7441 238.597 69.7734 238.758 69.8027C238.934 69.8174 239.095 69.8394 239.242 69.8687C239.403 69.8833 239.564 69.9053 239.725 69.9346C239.901 69.9492 240.121 69.9785 240.384 70.0225C240.663 70.0957 240.89 70.2349 241.065 70.4399C241.241 70.645 241.329 70.8794 241.329 71.1431C241.329 71.48 241.205 71.7583 240.956 71.978C240.721 72.1978 240.458 72.3076 240.165 72.3076ZM258.907 64.3096C258.878 64.0605 258.856 63.8042 258.841 63.5405C258.827 63.2769 258.819 63.0059 258.819 62.7275H258.006C257.42 62.7275 256.725 62.7715 255.919 62.8594C255.128 62.9473 254.308 63.0864 253.458 63.2769C252.608 63.4673 251.766 63.7236 250.931 64.0459C250.096 64.3535 249.349 64.7344 248.69 65.1885C248.031 65.6279 247.496 66.1479 247.086 66.7485C246.69 67.3491 246.493 68.0376 246.493 68.814C246.493 69.2241 246.588 69.5757 246.778 69.8687C246.983 70.1616 247.232 70.4033 247.525 70.5938C247.833 70.7695 248.17 70.9014 248.536 70.9893C248.902 71.0625 249.254 71.0991 249.591 71.0991C250.631 71.0991 251.612 70.9014 252.535 70.5059C253.473 70.0957 254.337 69.5684 255.128 68.9238C255.919 68.2646 256.629 67.5322 257.259 66.7266C257.889 65.9209 258.438 65.1152 258.907 64.3096ZM269.432 71.9121H269.344C269.095 71.8828 268.839 71.8682 268.575 71.8682C268.312 71.8682 268.055 71.8682 267.806 71.8682C266.429 71.8682 265.104 71.9561 263.829 72.1318C262.569 72.3076 261.302 72.5786 260.028 72.9448C259.984 72.9448 259.94 72.9521 259.896 72.9668C259.852 72.9814 259.793 72.9888 259.72 72.9888C259.383 72.9888 259.105 72.8569 258.885 72.5933C258.68 72.3442 258.578 72.0879 258.578 71.8242V71.6484C258.578 71.6191 258.614 71.3262 258.688 70.7695C258.761 70.1982 258.834 69.4072 258.907 68.3965C258.277 69.0996 257.604 69.7588 256.886 70.374C256.183 70.9746 255.436 71.502 254.645 71.9561C253.868 72.3955 253.062 72.7397 252.228 72.9888C251.393 73.2524 250.528 73.3843 249.635 73.3843C248.932 73.3843 248.25 73.2744 247.591 73.0547C246.932 72.8496 246.346 72.5493 245.833 72.1538C245.335 71.7583 244.933 71.2822 244.625 70.7256C244.332 70.1543 244.186 69.5171 244.186 68.814C244.186 67.7153 244.42 66.7485 244.889 65.9136C245.372 65.0786 246.002 64.3535 246.778 63.7383C247.555 63.1084 248.434 62.5884 249.415 62.1782C250.411 61.7534 251.422 61.4165 252.447 61.1675C253.473 60.9038 254.469 60.7207 255.436 60.6182C256.402 60.501 257.259 60.4424 258.006 60.4424H258.534C258.534 59.5488 258.373 58.6772 258.05 57.8276C257.743 56.978 257.303 56.2236 256.732 55.5645C256.175 54.9053 255.509 54.3779 254.732 53.9824C253.956 53.5723 253.099 53.3672 252.162 53.3672C251.473 53.3672 250.799 53.5649 250.14 53.9604C249.481 54.3413 248.895 54.832 248.382 55.4326C247.87 56.0332 247.452 56.707 247.13 57.4541C246.822 58.2012 246.668 58.9263 246.668 59.6294C246.668 59.9224 246.544 60.1714 246.295 60.3765C246.061 60.5669 245.797 60.6621 245.504 60.6621C245.182 60.6621 244.903 60.5449 244.669 60.3105C244.435 60.0615 244.317 59.7905 244.317 59.4976C244.317 58.7944 244.442 58.062 244.691 57.3003C244.94 56.5239 245.299 55.7695 245.768 55.0371C246.251 54.29 246.83 53.5869 247.503 52.9277C248.192 52.2686 248.968 51.6899 249.833 51.1919C250.711 50.6792 251.671 50.2764 252.711 49.9834C253.751 49.6904 254.857 49.5439 256.029 49.5439C257.669 49.5439 259.068 49.8003 260.226 50.313C261.397 50.8257 262.372 51.5215 263.148 52.4004C263.939 53.2793 264.562 54.2974 265.016 55.4546C265.47 56.6118 265.814 57.835 266.048 59.124C266.283 60.4131 266.429 61.7241 266.488 63.0571C266.561 64.3901 266.598 65.6646 266.598 66.8804C266.598 67.4956 266.59 68.0229 266.576 68.4624C266.561 68.9019 266.554 69.2681 266.554 69.561C266.773 69.561 266.993 69.5537 267.213 69.5391C267.447 69.5244 267.674 69.5171 267.894 69.5171C268.143 69.5171 268.399 69.5244 268.663 69.5391C268.941 69.5537 269.212 69.561 269.476 69.561C269.798 69.5903 270.055 69.7148 270.245 69.9346C270.45 70.1543 270.553 70.4253 270.553 70.7476C270.553 71.0552 270.443 71.3262 270.223 71.5605C270.018 71.7949 269.754 71.9121 269.432 71.9121ZM296.81 49.8516C296.81 50.1445 296.708 50.4009 296.502 50.6206C296.312 50.8403 296.07 50.9648 295.777 50.9941C295.499 51.0381 295.221 51.0747 294.942 51.104C294.679 51.1187 294.4 51.1406 294.107 51.1699C294.005 51.5801 293.858 52.1587 293.668 52.9058C293.492 53.6382 293.28 54.4805 293.031 55.4326C292.782 56.3848 292.511 57.4175 292.218 58.5308C291.939 59.644 291.646 60.7793 291.339 61.9365C291.031 63.0938 290.716 64.2437 290.394 65.3862C290.072 66.5288 289.757 67.6128 289.449 68.6382C289.156 69.6489 288.871 70.5718 288.592 71.4067C288.329 72.2271 288.087 72.9082 287.867 73.4502C287.267 74.8857 286.549 76.2847 285.714 77.647C284.894 79.0239 283.941 80.2471 282.857 81.3164C281.788 82.3857 280.587 83.2427 279.254 83.8872C277.921 84.5464 276.456 84.876 274.859 84.876C273.863 84.876 272.904 84.7368 271.981 84.4585C271.058 84.1948 270.245 83.792 269.542 83.25C268.839 82.708 268.275 82.0415 267.85 81.2505C267.425 80.4741 267.213 79.5659 267.213 78.5259C267.213 77.8667 267.308 77.2075 267.499 76.5483C267.674 75.9038 267.945 75.3252 268.312 74.8125C268.663 74.3145 269.103 73.9043 269.63 73.582C270.157 73.2744 270.772 73.1206 271.476 73.1206C272.018 73.1206 272.523 73.2231 272.992 73.4282C273.475 73.6333 273.893 73.9116 274.244 74.2632C274.596 74.6147 274.874 75.0249 275.079 75.4937C275.284 75.9771 275.387 76.4897 275.387 77.0317C275.387 77.5737 275.284 78.0791 275.079 78.5479C274.874 79.0312 274.596 79.4487 274.244 79.8003C273.893 80.1665 273.475 80.4521 272.992 80.6572C272.523 80.8623 272.018 80.9648 271.476 80.9648C271.227 80.9648 270.992 80.9429 270.772 80.8989C270.553 80.855 270.34 80.7964 270.135 80.7231C270.472 81.1479 270.86 81.4849 271.3 81.7339C271.739 81.9976 272.215 82.1294 272.728 82.1294C273.373 82.1294 273.988 81.9316 274.574 81.5361C275.16 81.1553 275.709 80.6572 276.222 80.042C276.749 79.4268 277.232 78.7383 277.672 77.9766C278.111 77.2148 278.507 76.4531 278.858 75.6914C279.225 74.9297 279.54 74.2119 279.803 73.5381C280.067 72.8643 280.279 72.3076 280.44 71.8682C280.558 71.5459 280.667 71.209 280.77 70.8574C280.887 70.4912 281.012 70.1104 281.144 69.7148C279.532 67.5176 278.243 65.4668 277.276 63.5625C276.31 61.6582 275.555 59.937 275.013 58.3989C274.486 56.8608 274.127 55.5278 273.937 54.3999C273.761 53.2573 273.658 52.3564 273.629 51.6973C273.072 51.6973 272.508 51.6899 271.937 51.6753C271.38 51.646 270.824 51.5947 270.267 51.5215C269.974 51.4922 269.725 51.375 269.52 51.1699C269.33 50.9502 269.234 50.6938 269.234 50.4009C269.234 50.0786 269.352 49.8076 269.586 49.5879C269.835 49.3535 270.106 49.2363 270.399 49.2363H270.531C271.043 49.3096 271.563 49.3608 272.091 49.3901C272.633 49.4048 273.182 49.4121 273.739 49.4121C274.588 49.4121 275.445 49.3828 276.31 49.3242C277.188 49.251 278.082 49.1411 278.99 48.9946C279.049 48.9653 279.107 48.9507 279.166 48.9507C279.503 48.9507 279.781 49.0752 280.001 49.3242C280.235 49.5732 280.353 49.8442 280.353 50.1372C280.353 50.4009 280.257 50.6426 280.067 50.8623C279.891 51.082 279.657 51.2139 279.364 51.2578C278.763 51.3457 278.177 51.4263 277.606 51.4995C277.049 51.5581 276.493 51.6094 275.936 51.6533C275.951 52.1807 276.031 52.9204 276.178 53.8726C276.339 54.8247 276.632 55.9526 277.057 57.2563C277.496 58.5601 278.104 60.0249 278.88 61.6509C279.671 63.2769 280.711 65.0347 282 66.9243C282.411 65.5181 282.821 64.0459 283.231 62.5078C283.656 60.9551 284.051 59.4609 284.417 58.0254C284.798 56.5898 285.135 55.2715 285.428 54.0703C285.736 52.8691 285.978 51.9023 286.153 51.1699C285.86 51.1406 285.553 51.1187 285.23 51.104C284.923 51.0747 284.615 51.0381 284.308 50.9941C284.015 50.9648 283.766 50.8403 283.561 50.6206C283.37 50.4009 283.275 50.1445 283.275 49.8516C283.275 49.5 283.399 49.2217 283.648 49.0166C283.897 48.7969 284.161 48.687 284.439 48.687H284.571C285.479 48.8042 286.38 48.8848 287.274 48.9287C288.182 48.9727 289.098 48.9946 290.021 48.9946C290.929 48.9946 291.837 48.9727 292.745 48.9287C293.668 48.8848 294.591 48.8042 295.514 48.687H295.646C295.982 48.687 296.261 48.8115 296.48 49.0605C296.7 49.2949 296.81 49.5586 296.81 49.8516Z" fill="black"/>
<path d="M179.296 58C179.296 76.4659 163.932 91.5 144.898 91.5C125.865 91.5 110.5 76.4659 110.5 58C110.5 39.5341 125.865 24.5 144.898 24.5C163.932 24.5 179.296 39.5341 179.296 58Z" fill="white" stroke="black" stroke-width="3"/>
<path d="M156.53 55.6835L136.185 44.0236C134.532 43.0767 132 43.9956 132 46.3377V69.6518C132 71.7529 134.352 73.0192 136.185 71.9658L156.53 60.3116C158.345 59.275 158.351 56.72 156.53 55.6835Z" fill="black"/>
</svg>
