<svg width="98" height="98" viewBox="0 0 98 98" fill="none" xmlns="http://www.w3.org/2000/svg">
<circle cx="49" cy="49" r="47" fill="white" stroke="black" stroke-width="4"/>
<path d="M78.5626 75.8189H49.7872L61.4541 64.152L61.4597 64.147L61.4646 64.1415L80.463 45.1433C81.9726 43.63 82.8204 41.5797 82.8204 39.4422C82.8204 37.3047 81.9726 35.2544 80.463 33.7411L65.2603 18.5383C63.7482 17.0263 61.6975 16.1769 59.5592 16.1769C57.4209 16.1769 55.3702 17.0263 53.8581 18.5383L34.8579 37.5386L34.8544 37.5417L34.8513 37.5452L15.8511 56.5455C14.3391 58.0575 13.4897 60.1083 13.4897 62.2466C13.4897 64.3849 14.3391 66.4356 15.8511 67.9477L28.3106 80.4069C28.8147 80.9108 29.4983 81.1939 30.211 81.1939H78.5626C79.2753 81.1939 79.9589 80.9108 80.4629 80.4068C80.9669 79.9028 81.2501 79.2192 81.2501 78.5064C81.2501 77.7936 80.9669 77.1101 80.4629 76.6061C79.9589 76.1021 79.2753 75.8189 78.5626 75.8189ZM57.6591 22.3392C57.9085 22.0896 58.2048 21.8916 58.5308 21.7565C58.8568 21.6214 59.2063 21.5519 59.5592 21.5519C59.9121 21.5519 60.2616 21.6214 60.5876 21.7565C60.9136 21.8916 61.2099 22.0896 61.4593 22.3392L76.6621 37.542C77.1653 38.0464 77.448 38.7298 77.448 39.4424C77.448 40.1549 77.1653 40.8383 76.6621 41.3427L59.5592 58.4456L40.556 39.4424L57.6591 22.3392Z" fill="black"/>
</svg>
