<svg width="196" height="202" viewBox="0 0 196 202" fill="none" xmlns="http://www.w3.org/2000/svg">
<path d="M113.812 42.4787C110.697 44.8883 108.907 48.2364 108.379 51.7154C97.1827 52.5592 84.7603 57.1375 73.4338 65.3629L60.064 36.2006L81.4095 25.953C84.7189 30.2302 91.0694 30.888 95.554 27.4182C100.122 23.8842 101.023 17.4567 97.7139 13.1796C94.4045 8.90238 87.9773 8.14552 83.389 11.6956C80.1917 14.1695 78.8552 18.1475 79.4308 21.7226L55.8994 33.0917C54.6829 33.6214 54.2226 35.0855 54.7034 36.2646L69.4738 68.3953C58.8279 77.3287 51.3813 88.1236 47.7329 98.7655C44.1716 98.3238 40.3773 99.2968 37.2631 101.706C25.7195 110.638 33.3705 128.334 47.8451 125.207C48.6817 127.06 49.8026 128.852 51.0896 130.515C63.9287 147.109 93.9309 145.39 117.994 126.772C142.16 108.074 151.356 79.4639 138.517 62.8701C137.23 61.2067 135.695 59.6088 134.028 58.3978C140.466 45.3127 125.293 33.5954 113.812 42.4787ZM65.4118 113.292C62.0412 108.936 62.9834 102.604 67.5718 99.0538C72.0563 95.584 78.4069 96.2419 81.7929 100.618C85.1022 104.895 84.1447 111.208 79.6601 114.677C75.1079 118.231 68.7212 117.57 65.4118 113.292ZM124.23 97.3821C122.249 110.437 100.927 126.935 87.7927 125.574C86.426 125.524 85.476 124.296 85.6937 122.861C85.8841 121.606 87.1713 120.61 88.4342 120.741C98.5725 121.919 117.791 107.207 119.369 96.8058C119.56 95.5505 120.847 94.5545 122.11 94.6853C123.574 94.8188 124.524 96.0465 124.23 97.3821ZM115.759 86.7781C111.275 90.2479 104.924 89.59 101.615 85.3129C98.2443 80.9565 99.1865 74.6243 103.671 71.1545C108.239 67.6204 114.61 68.2622 117.996 72.6384C121.269 76.9119 120.327 83.244 115.759 86.7781Z" fill="black"/>
<ellipse cx="18.5869" cy="5.19547" rx="18.5869" ry="5.19547" transform="matrix(0.990961 -0.134149 0.0924689 0.995716 86.1936 152.156)" fill="black"/>
<ellipse cx="18.5869" cy="5.19547" rx="18.5869" ry="5.19547" transform="matrix(0.990961 -0.134149 0.0924689 0.995716 86.1936 152.156)" fill="black"/>
<ellipse cx="18.5869" cy="5.19547" rx="18.5869" ry="5.19547" transform="matrix(-0.378637 0.925545 0.940611 0.339485 154.016 99.6802)" fill="black"/>
<ellipse cx="18.5869" cy="5.19547" rx="18.5869" ry="5.19547" transform="matrix(-0.378637 0.925545 0.940611 0.339485 154.016 99.6802)" fill="black"/>
<ellipse cx="132.606" cy="142.177" rx="21.5046" ry="25.6378" transform="rotate(-37.7301 132.606 142.177)" fill="black"/>
<rect x="113.37" y="170.028" width="37.633" height="15.3827" rx="7.69133" transform="rotate(-37.7301 113.37 170.028)" fill="black"/>
<rect x="134.63" y="153.578" width="37.633" height="15.3827" rx="7.69133" transform="rotate(-37.7301 134.63 153.578)" fill="black"/>
<ellipse cx="95.2493" cy="96.5853" rx="39.5401" ry="29.7186" transform="rotate(-42.26 95.2493 96.5853)" fill="black"/>
<path d="M95 118.927L118.317 101" stroke="white" stroke-width="5" stroke-linecap="round"/>
<path d="M63 100.168L77.8318 101.177" stroke="white" stroke-width="3" stroke-linecap="round"/>
<path d="M63 100.168L77.8318 101.177" stroke="white" stroke-width="3" stroke-linecap="round"/>
<path d="M63 100.168L77.8318 101.177" stroke="white" stroke-width="3" stroke-linecap="round"/>
<path d="M70.7219 93L69.7982 107.837" stroke="white" stroke-width="3" stroke-linecap="round"/>
<path d="M70.7219 93L69.7982 107.837" stroke="white" stroke-width="3" stroke-linecap="round"/>
<path d="M70.7219 93L69.7982 107.837" stroke="white" stroke-width="3" stroke-linecap="round"/>
<path d="M95 80.1683L109.832 81.177" stroke="white" stroke-width="3" stroke-linecap="round"/>
<path d="M95 80.1683L109.832 81.177" stroke="white" stroke-width="3" stroke-linecap="round"/>
<path d="M95 80.1683L109.832 81.177" stroke="white" stroke-width="3" stroke-linecap="round"/>
<path d="M102.722 73L101.798 87.8373" stroke="white" stroke-width="3" stroke-linecap="round"/>
<path d="M102.722 73L101.798 87.8373" stroke="white" stroke-width="3" stroke-linecap="round"/>
<path d="M102.722 73L101.798 87.8373" stroke="white" stroke-width="3" stroke-linecap="round"/>
</svg>
