<svg width="98" height="98" viewBox="0 0 98 98" fill="none" xmlns="http://www.w3.org/2000/svg">
<circle cx="49" cy="49" r="47" fill="white" stroke="black" stroke-width="4"/>
<path d="M78.2925 35.199L72.7098 40.7817C72.1407 41.3508 71.2203 41.3508 70.6511 40.7817L57.2091 27.3397C56.6399 26.7706 56.6399 25.8502 57.2091 25.2811L62.7918 19.6984C65.0563 17.4339 68.7378 17.4339 71.0144 19.6984L78.2925 26.9764C80.5692 29.241 80.5692 32.9224 78.2925 35.199ZM52.4136 30.0766L20.6129 61.877L18.0456 76.5905C17.6944 78.5765 19.4261 80.2961 21.4121 79.9571L36.1257 77.3777L67.9264 45.5772C68.4956 45.008 68.4956 44.0877 67.9264 43.5185L54.4844 30.0766C53.9031 29.5074 52.9827 29.5074 52.4136 30.0766ZM33.0256 59.1523C32.3595 58.4863 32.3595 57.4206 33.0256 56.7546L51.6749 38.1054C52.3409 37.4393 53.4066 37.4393 54.0726 38.1054C54.7387 38.7714 54.7387 39.8371 54.0726 40.5031L35.4233 59.1523C34.7573 59.8184 33.6916 59.8184 33.0256 59.1523ZM28.6539 69.3367H34.4666V73.7326L26.6557 75.101L22.8895 71.3348L24.258 63.524H28.6539V69.3367Z" fill="black"/>
</svg>
