<svg width="159" height="142" viewBox="0 0 159 142" fill="none" xmlns="http://www.w3.org/2000/svg">
<path d="M151.879 17.75H123.264V6.65625C123.264 2.96758 120.32 0 116.66 0H41.8217C38.1623 0 35.2183 2.96758 35.2183 6.65625V17.75H6.60342C2.94403 17.75 0 20.7176 0 24.4062V39.9375C0 49.8387 6.19071 60.0172 17.0313 67.866C25.6983 74.1617 36.2363 78.1555 47.297 79.4312C55.9365 93.8809 66.0342 99.8438 66.0342 99.8438V119.812H52.8274C43.1148 119.812 35.2183 125.554 35.2183 135.344V138.672C35.2183 140.502 36.704 142 38.52 142H119.962C121.778 142 123.264 140.502 123.264 138.672V135.344C123.264 125.554 115.367 119.812 105.655 119.812H92.4479V99.8438C92.4479 99.8438 102.546 93.8809 111.185 79.4312C122.273 78.1555 132.811 74.1617 141.451 67.866C152.264 60.0172 158.482 49.8387 158.482 39.9375V24.4062C158.482 20.7176 155.538 17.75 151.879 17.75ZM27.3217 53.4719C20.6082 48.5906 17.6091 43.1547 17.6091 39.9375V35.5H35.2733C35.5484 44.5414 36.8691 52.4734 38.7951 59.407C34.6405 57.9648 30.7609 55.968 27.3217 53.4719ZM140.873 39.9375C140.873 44.4027 136.003 49.9496 131.16 53.4719C127.721 55.968 123.814 57.9648 119.66 59.407C121.586 52.4734 122.906 44.5414 123.181 35.5H140.873V39.9375Z" fill="black"/>
<path d="M85.6113 57.7251H85.3696C84.1978 57.4907 83.0845 57.3149 82.0298 57.1978C80.9897 57.0952 79.9497 57.0439 78.9097 57.0439C77.855 57.0439 76.8003 57.0952 75.7456 57.1978C74.7056 57.3149 73.6143 57.4907 72.4717 57.7251H72.23C71.9224 57.7251 71.6514 57.6079 71.417 57.3735C71.1826 57.1538 71.0654 56.8975 71.0654 56.6045C71.0654 56.3262 71.1533 56.0771 71.3291 55.8574C71.5195 55.6377 71.7466 55.5059 72.0103 55.4619C72.5229 55.3447 73.0356 55.2495 73.5483 55.1763C74.061 55.0884 74.5664 55.0225 75.0645 54.9785V34.2803C74.3613 34.9395 73.7827 35.4595 73.3286 35.8403C72.8892 36.2212 72.6475 36.4336 72.6035 36.4775C72.3838 36.6533 72.1274 36.7412 71.8345 36.7412C71.4976 36.7412 71.2266 36.6313 71.0215 36.4116C70.8164 36.1772 70.7139 35.9136 70.7139 35.6206C70.7139 35.4595 70.7432 35.2983 70.8018 35.1372C70.875 34.9761 70.9775 34.8369 71.1094 34.7197C71.1094 34.7197 71.2632 34.5806 71.5708 34.3022C71.8931 34.0239 72.3105 33.6577 72.8232 33.2036C73.3359 32.7349 73.9219 32.1855 74.5811 31.5557C75.2549 30.9258 75.9507 30.2593 76.6685 29.5562C77.3862 28.8384 78.104 28.0986 78.8218 27.3369C79.5396 26.5605 80.2134 25.7988 80.8433 25.0518C80.9604 24.9346 81.0923 24.8394 81.2388 24.7661C81.3853 24.6782 81.5537 24.6343 81.7441 24.6343C82.0518 24.6343 82.3228 24.7588 82.5571 25.0078C82.8062 25.2568 82.9087 25.5278 82.8647 25.8208V54.9785C83.3335 55.0518 83.8169 55.125 84.3149 55.1982C84.813 55.2568 85.3184 55.3447 85.8311 55.4619C86.1094 55.5059 86.3291 55.6377 86.4902 55.8574C86.6514 56.0771 86.7319 56.3262 86.7319 56.6045C86.7319 56.9854 86.6001 57.2637 86.3364 57.4395C86.0728 57.6299 85.8311 57.7251 85.6113 57.7251Z" fill="white"/>
</svg>
